<?xml version="1.0" encoding="UTF-8"?>
<svg id="Layer_2" xmlns="http://www.w3.org/2000/svg" version="1.1" viewBox="0 0 140.8 105.7">
  <!-- Generator: Adobe Illustrator 29.0.1, SVG Export Plug-In . SVG Version: 2.1.0 Build 192)  -->
  <defs>
    <style>
      .st0 {
        fill: #595959;
      }

      .st1 {
        fill: #3a3a3a;
      }

      .st2 {
        fill: #fafafa;
      }

      .st3 {
        fill: #232323;
      }
    </style>
  </defs>
  <rect class="st1" y="0" width="22.5" height="105.7"/>
  <rect class="st3" x="39.2" y="0" width="27.1" height="105.7"/>
  <rect class="st3" x="84.5" y="0" width="17.2" height="105.7"/>
  <rect class="st1" x="117.8" y="0" width="23" height="105.7"/>
  <rect class="st0" x="22.5" y="0" width="16.6" height="105.7"/>
  <rect class="st0" x="66.3" y="0" width="18.2" height="105.7"/>
  <rect class="st0" x="101.7" y="0" width="16.1" height="105.7"/>
  <path class="st2" d="M18,83.7h3.2c-.7,4.6-4.1,8-9.1,8s-10.2-5.2-10.2-11.8,3.7-11.8,10.2-11.8,8.6,3.3,9.1,7.9h-3.2c-.5-3.4-2.7-5.4-6-5.4s-7,3.8-7,9.4,2.8,9.4,7.1,9.4,5.4-2.2,6-5.6"/>
  <path class="st2" d="M34.7,91.3c0-.5-.2-1.1-.2-2.2-1.4,1.8-3.1,2.5-5.5,2.5-3.6,0-5.6-2-5.6-4.9,0-5.3,6.8-5.1,10.7-5.6v-.6c0-2.4-1.1-3.8-3.6-3.8s-3.7,1.1-3.7,3.3h-2.8c0-3.3,2.7-5.4,6.6-5.4,6.1,0,6.4,4.1,6.4,7.3v4.4c0,1.9,0,3.4.4,4.9h-2.7ZM26.4,86.8c0,1.6,1.3,2.7,3.3,2.7s4.5-.9,4.5-5.2v-.9c-2.4.3-7.8.1-7.8,3.4"/>
  <path class="st2" d="M54.2,91.3h-2.9v-8.9c0-2.3-.2-5.2-3.2-5.2s-3.9,3.8-3.9,6.2v8h-2.9v-16.1h2.7v2.1c.9-1.5,2.7-2.4,4.8-2.4s3.7.9,4.4,3c1.3-2.1,3.4-3,5.7-3,3.7,0,5.2,2.3,5.2,6v10.5h-2.9v-8.9c0-2.3-.2-5.2-3.2-5.2s-3.9,3.8-3.9,6.2v8h0Z"/>
  <path class="st2" d="M71.3,97.5h-2.9v-22.4h2.8v2.2c1.1-1.6,2.8-2.5,5.2-2.5,4.3,0,6.8,3.5,6.8,8.4s-2.9,8.4-6.9,8.4-3.9-.6-4.9-2.2v8.1h0ZM75.8,89.3c2.7,0,4.4-2.3,4.4-6.1s-1.7-6.1-4.4-6.1-4.5,2.5-4.5,6.1,1.8,6.1,4.5,6.1"/>
  <path class="st2" d="M97,89.2c-1.4,1.9-3.5,2.4-5.1,2.4-2.8,0-4.2-1.2-5.1-2.9-.5-1.1-.5-2.7-.5-4.2v-9.4h2.8v9.1c0,2.5.3,5.1,3.4,5.1s4.3-1.8,4.3-5.7v-8.5h2.8v16.1h-2.7v-2.1h0Z"/>
  <path class="st2" d="M105.9,86.1c0,2.3,1.5,3.4,4.2,3.4s3.4-.8,3.4-2.4-2-2.3-4.2-2.8c-2.8-.5-6-1.1-6-5s2.5-4.7,6.3-4.7,6.4,1.9,6.4,5.4h-2.8c0-2.1-1.2-3.2-3.7-3.2s-3.2.9-3.2,2.2,1.8,2.2,4,2.6c2.9.6,6.2,1.1,6.2,5.1s-2.8,4.8-6.6,4.8-7-2.1-7-5.7h2.9Z"/>
  <polygon class="st2" points="127.3 79.4 119.8 68.6 123.5 68.6 129.2 77.3 135 68.6 138.3 68.6 130.9 79.4 138.8 91.3 135.2 91.3 129 81.7 122.8 91.3 119.4 91.3 127.3 79.4"/>
</svg>