<svg xmlns="http://www.w3.org/2000/svg" viewBox="0 0 787.46 129.17"><defs><style>.cls-1,.cls-2{stroke:#fff;stroke-miterlimit:10;}.cls-2{stroke-width:0.86px;}</style></defs><g id="Layer_2" data-name="Layer 2"><g id="Layer_1-2" data-name="Layer 1"><path d="M596.58,114.17a8.15,8.15,0,0,1,1.86.76l.95-2.57-.61-.32a7,7,0,0,0-1.11-.43,16,16,0,0,0-1.61-.36,12.53,12.53,0,0,0-2.14-.16,9.07,9.07,0,0,0-3.3.6,7.48,7.48,0,0,0-2.69,1.76,8.24,8.24,0,0,0-1.81,2.83,10.25,10.25,0,0,0-.67,3.85,11.4,11.4,0,0,0,.6,3.85,8,8,0,0,0,1.69,2.82,7.14,7.14,0,0,0,2.63,1.75,9.47,9.47,0,0,0,3.43.6,19,19,0,0,0,3.57-.3,15.24,15.24,0,0,0,2.19-.55V120h-3.14v6.22a6.59,6.59,0,0,1-.95.16c-.4,0-.88.06-1.42.06a5.4,5.4,0,0,1-2.32-.46,4.62,4.62,0,0,1-1.64-1.29,5.36,5.36,0,0,1-1-2,9,9,0,0,1-.34-2.56,6.92,6.92,0,0,1,1.41-4.61,5,5,0,0,1,4.08-1.66,8.93,8.93,0,0,1,2.34.31M578,128.8V111.49h-3.12V123c-.57-.9-1.21-1.87-1.94-2.91s-1.47-2.08-2.24-3.11-1.55-2-2.31-3-1.48-1.78-2.15-2.48h-2.57V128.8h3.09V116.41c.7.83,1.44,1.77,2.21,2.81s1.54,2.11,2.29,3.22,1.47,2.21,2.17,3.3,1.33,2.11,1.9,3.06Zm-25.62,0h3.14V111.49h-3.14Zm-14.19-2.73V111.49h-3.14V128.8H546v-2.73Zm-9.34,2.73c-.53-.87-1.12-1.74-1.76-2.61s-1.31-1.72-2-2.53-1.41-1.56-2.13-2.27a23.06,23.06,0,0,0-2.14-1.86c.63-.62,1.28-1.26,1.94-2s1.31-1.37,2-2.06,1.28-1.38,1.9-2.06,1.19-1.34,1.74-2h-3.77l-1.45,1.62q-.79.9-1.68,1.86c-.59.64-1.19,1.28-1.79,1.9s-1.17,1.21-1.72,1.76v-7.14H514.8V128.8H518V121a17.09,17.09,0,0,1,2,1.6c.67.61,1.31,1.26,1.94,1.94s1.22,1.4,1.78,2.13,1.07,1.43,1.5,2.1Zm-24.42.26a13.75,13.75,0,0,0,1.57-.3c.47-.13.87-.26,1.21-.39a4.18,4.18,0,0,0,.82-.4l-.85-2.57a11.79,11.79,0,0,1-1.63.64,9.25,9.25,0,0,1-2.72.33,5.68,5.68,0,0,1-2.4-.46,4.37,4.37,0,0,1-1.64-1.3,5.55,5.55,0,0,1-1-2,10,10,0,0,1-.31-2.53,8.37,8.37,0,0,1,.4-2.72,5.6,5.6,0,0,1,1.11-1.95,4.69,4.69,0,0,1,1.69-1.16,5.8,5.8,0,0,1,2.1-.38,8.51,8.51,0,0,1,2.41.33,8.08,8.08,0,0,1,1.71.71l.92-2.57-.6-.32a6.76,6.76,0,0,0-1.07-.43,15.24,15.24,0,0,0-1.53-.36,10.5,10.5,0,0,0-1.94-.16,9.16,9.16,0,0,0-3.33.6,7.48,7.48,0,0,0-2.69,1.76,8.24,8.24,0,0,0-1.81,2.83,10.26,10.26,0,0,0-.66,3.85,12,12,0,0,0,.57,3.85,7.77,7.77,0,0,0,1.65,2.83,6.93,6.93,0,0,0,2.62,1.76,9.62,9.62,0,0,0,3.5.6,15.68,15.68,0,0,0,1.87-.11m-15.86-.26v-2.68H480v-5.07h7.1v-2.62H480v-4.27h8v-2.67H476.87V128.8Zm-24.8,0q1.89-4.05,3.61-8.47t3.26-8.84h-3.37l-1.2,3.57c-.42,1.22-.84,2.41-1.27,3.6s-.85,2.31-1.26,3.4-.82,2.1-1.21,3c-.4-.91-.81-1.92-1.22-3s-.84-2.23-1.25-3.41-.84-2.36-1.26-3.58-.82-2.41-1.22-3.57h-3.47q1.5,4.42,3.23,8.84t3.61,8.47ZM435,111.49v2.72h5.32V128.8h3.17V114.21h5.32v-2.72ZM425,128.66a5.5,5.5,0,0,0,2.13-1.44,5.86,5.86,0,0,0,1.25-2.17,8.58,8.58,0,0,0,.41-2.75V111.49h-3.17V122a6.86,6.86,0,0,1-.26,2,3.62,3.62,0,0,1-.75,1.36,3,3,0,0,1-1.16.78,4.45,4.45,0,0,1-1.5.25,4.29,4.29,0,0,1-1.48-.25,2.94,2.94,0,0,1-1.15-.78,3.37,3.37,0,0,1-.75-1.36,6.52,6.52,0,0,1-.27-2V111.49h-3.17V122.3a9.18,9.18,0,0,0,.4,2.75,5.84,5.84,0,0,0,1.24,2.17,5.58,5.58,0,0,0,2.11,1.44,8.18,8.18,0,0,0,3.05.51,8.4,8.4,0,0,0,3.07-.51m-32.64.14q1.88-4.05,3.61-8.47t3.26-8.84H395.8q-.57,1.74-1.2,3.57c-.42,1.22-.84,2.41-1.26,3.6s-.85,2.31-1.27,3.4-.81,2.1-1.2,3c-.4-.91-.81-1.92-1.23-3s-.83-2.23-1.25-3.41-.83-2.36-1.25-3.58l-1.23-3.57h-3.47q1.5,4.42,3.24,8.84t3.61,8.47Zm-19.26,0h3.15V111.49h-3.15Zm-20.2-17.31v2.72h5.32V128.8h3.17V114.21h5.32v-2.72ZM342.65,118c.5,1.28,1,2.67,1.54,4.15H338.5c.53-1.48,1.05-2.86,1.54-4.12s.92-2.34,1.31-3.23c.36.85.8,1.92,1.3,3.2m7.2,10.77q-1-2.78-1.86-5.12t-1.72-4.45c-.56-1.4-1.11-2.73-1.66-4s-1.12-2.51-1.7-3.74h-3c-.59,1.23-1.15,2.48-1.7,3.74s-1.1,2.6-1.66,4-1.13,2.88-1.71,4.45-1.2,3.27-1.85,5.12h3.28c.23-.67.47-1.34.71-2s.48-1.37.71-2.07H345c.24.7.48,1.39.73,2s.49,1.34.72,2ZM321,114.17a4,4,0,0,1,1.34.47,2.18,2.18,0,0,1,.86.87,2.81,2.81,0,0,1,.3,1.35,2.93,2.93,0,0,1-.3,1.4,2.26,2.26,0,0,1-.89.87,4.12,4.12,0,0,1-1.46.45,15,15,0,0,1-2,.12h-1.38v-5.59c.57,0,1.19-.07,1.85-.07a9.87,9.87,0,0,1,1.7.13m-4.24-2.77a16.45,16.45,0,0,0-2.45.34V128.8h3.14v-6.55h2l.6,0c.32.4.66.85,1,1.36s.73,1,1.11,1.62l1.11,1.77c.37.61.71,1.22,1,1.82h3.52c-.3-.65-.64-1.32-1-2s-.78-1.33-1.2-2-.82-1.24-1.22-1.79-.76-1-1.08-1.4a5.18,5.18,0,0,0,1.49-9,10,10,0,0,0-5.73-1.38c-.69,0-1.46,0-2.32.09m-9.37,17.4v-2.68h-8.57v-5.07H306v-2.62h-7.1v-4.27h8v-2.67H295.71V128.8ZM283,114.17a4.12,4.12,0,0,1,1.36.47,2.33,2.33,0,0,1,.9.89,2.85,2.85,0,0,1,.32,1.43,2.46,2.46,0,0,1-1.22,2.41,7.82,7.82,0,0,1-3.5.63H279.3v-5.89c.52,0,1.17-.07,2-.07a10.08,10.08,0,0,1,1.69.13m-4.37-2.77a15.6,15.6,0,0,0-2.44.34V128.8h3.15v-6.1h1.57a16.31,16.31,0,0,0,3.38-.32,7.43,7.43,0,0,0,2.49-1,4.46,4.46,0,0,0,1.56-1.78,5.79,5.79,0,0,0,.54-2.61,4.82,4.82,0,0,0-2-4.29,10.18,10.18,0,0,0-5.78-1.38q-1.12,0-2.46.09M268,116.22a8.5,8.5,0,0,0-1.81-2.83,7.46,7.46,0,0,0-2.66-1.73,9.41,9.41,0,0,0-6.45,0,7.63,7.63,0,0,0-2.68,1.73,8.11,8.11,0,0,0-1.84,2.83,11.77,11.77,0,0,0,0,7.83,8.3,8.3,0,0,0,1.81,2.83,7.48,7.48,0,0,0,2.68,1.72,9.28,9.28,0,0,0,3.26.57,9.16,9.16,0,0,0,3.24-.57,7.49,7.49,0,0,0,2.66-1.72,8,8,0,0,0,1.8-2.83,10.77,10.77,0,0,0,.66-3.92,10.47,10.47,0,0,0-.67-3.91m-12.49,1.34a5.78,5.78,0,0,1,1-2,4.52,4.52,0,0,1,1.61-1.27,5,5,0,0,1,2.15-.45,4.88,4.88,0,0,1,2.12.45,4.61,4.61,0,0,1,1.61,1.26,5.83,5.83,0,0,1,1,2,9.12,9.12,0,0,1,.34,2.59,9,9,0,0,1-.34,2.58,5.79,5.79,0,0,1-1,2,4.61,4.61,0,0,1-1.61,1.26,4.88,4.88,0,0,1-2.12.45,5,5,0,0,1-2.15-.45,4.61,4.61,0,0,1-1.61-1.26,5.61,5.61,0,0,1-1-2,9,9,0,0,1-.35-2.58,8.87,8.87,0,0,1,.35-2.57m-11-1.34a8.34,8.34,0,0,0-1.81-2.83,7.38,7.38,0,0,0-2.66-1.73,9.38,9.38,0,0,0-6.44,0,7.67,7.67,0,0,0-2.69,1.73,8.24,8.24,0,0,0-1.83,2.83,11.61,11.61,0,0,0,0,7.83,8.15,8.15,0,0,0,1.81,2.83,7.53,7.53,0,0,0,2.67,1.72,9.58,9.58,0,0,0,6.51,0,7.58,7.58,0,0,0,2.66-1.72,8.11,8.11,0,0,0,1.79-2.83,11.69,11.69,0,0,0,0-7.83M232,117.56a5.8,5.8,0,0,1,1-2,4.44,4.44,0,0,1,1.61-1.27,5.29,5.29,0,0,1,4.27,0,4.61,4.61,0,0,1,1.61,1.26,5.65,5.65,0,0,1,1,2,9.12,9.12,0,0,1,.35,2.59,9,9,0,0,1-.35,2.58,5.61,5.61,0,0,1-1,2,4.61,4.61,0,0,1-1.61,1.26,5.29,5.29,0,0,1-4.27,0,4.52,4.52,0,0,1-1.61-1.26,5.62,5.62,0,0,1-1-2,9,9,0,0,1-.35-2.58,8.87,8.87,0,0,1,.35-2.57m-8.34,11.24c-.53-.87-1.12-1.74-1.76-2.61s-1.31-1.72-2-2.53-1.41-1.56-2.13-2.27a23.06,23.06,0,0,0-2.14-1.86c.63-.62,1.28-1.26,1.94-2l2-2.06c.65-.69,1.28-1.38,1.9-2.06s1.19-1.34,1.74-2h-3.77L218,113.11q-.79.9-1.68,1.86c-.59.64-1.19,1.28-1.79,1.9s-1.17,1.21-1.72,1.76v-7.14h-3.15V128.8h3.15V121a17.09,17.09,0,0,1,2,1.6c.67.61,1.31,1.26,1.94,1.94s1.22,1.4,1.78,2.13,1.07,1.43,1.5,2.1Z"/><path d="M787.46,91.24V2.1H771.39V61.27q-4.38-6.94-10-15t-11.58-16q-6-8-11.9-15.37T726.88,2.1H713.63V91.24h16V27.44Q735,33.88,741,41.91T752.74,58.5q5.79,8.56,11.19,17t9.77,15.76M698.84,26.48a43.22,43.22,0,0,0-9.32-14.6A37.83,37.83,0,0,0,675.82,3a48,48,0,0,0-33.19,0,39.08,39.08,0,0,0-13.82,8.88,42.16,42.16,0,0,0-9.45,14.6,53.78,53.78,0,0,0-3.48,20.13,54.33,54.33,0,0,0,3.48,20.19,42.44,42.44,0,0,0,9.32,14.6,38.08,38.08,0,0,0,13.76,8.81,47.61,47.61,0,0,0,16.79,3,47.07,47.07,0,0,0,16.72-3,38.27,38.27,0,0,0,13.7-8.81,41.89,41.89,0,0,0,9.26-14.6,55.4,55.4,0,0,0,3.41-20.19,53.78,53.78,0,0,0-3.48-20.13m-64.31,6.88a29.94,29.94,0,0,1,5.21-10.16,23.25,23.25,0,0,1,8.3-6.56,25.42,25.42,0,0,1,11.06-2.32A25.12,25.12,0,0,1,670,16.64a23.62,23.62,0,0,1,8.3,6.49,29.31,29.31,0,0,1,5.21,10.16,46.15,46.15,0,0,1,1.8,13.32,46.13,46.13,0,0,1-1.8,13.31,29.31,29.31,0,0,1-5.21,10.16,23.51,23.51,0,0,1-8.3,6.49,25.12,25.12,0,0,1-10.93,2.32A25.42,25.42,0,0,1,648,76.57a23.51,23.51,0,0,1-8.3-6.49,29.31,29.31,0,0,1-5.21-10.16,46.13,46.13,0,0,1-1.8-13.31,45.42,45.42,0,0,1,1.8-13.25M586.94,91.24h16.21V2.1H586.94Zm-18.26,0V2.1H552.6V61.27q-4.38-6.94-10-15t-11.57-16q-6-8-11.9-15.37T508.1,2.1H494.85V91.24H510.8V27.44q5.4,6.43,11.38,14.47T534,58.5q5.79,8.56,11.19,17t9.78,15.76ZM451.57,35.8q3.85,9.9,8,21.35H430.22q4.11-11.44,7.91-21.22t6.75-16.59q2.83,6.56,6.69,16.46m37.11,55.44q-5-14.28-9.58-26.37T470.22,42q-4.31-10.8-8.55-20.57T452.92,2.1H437.45q-4.5,9.52-8.74,19.3T420.17,42q-4.31,10.81-8.81,22.9t-9.51,26.37h16.86q1.8-5.14,3.67-10.36t3.68-10.61h37.65q1.8,5.4,3.73,10.55t3.74,10.42ZM378.51,15.93a21.75,21.75,0,0,1,7,2.38,11.91,11.91,0,0,1,4.63,4.63,14.66,14.66,0,0,1,1.68,7.33q0,9.14-6.31,12.41t-18,3.28h-7.85V15.61q4-.39,10.16-.39a50.59,50.59,0,0,1,8.68.71M356,1.65a80.33,80.33,0,0,0-12.55,1.74V91.24h16.21V59.85h8.1a80.87,80.87,0,0,0,17.37-1.67A37.18,37.18,0,0,0,398,53a23.26,23.26,0,0,0,8-9.13A30.11,30.11,0,0,0,408.8,30.4q0-15-10.35-22.12T368.67,1.2c-3.85,0-8.08.15-12.66.45M239.28,2.1q-1.18,9.27-2.23,20.2t-1.9,22.57q-.85,11.64-1.57,23.47t-1.24,22.9h15.95q.51-15.57,1.24-32t2.16-31.9c.95,1.89,2.06,4.23,3.35,7l4.11,8.94c1.46,3.17,2.94,6.48,4.44,9.9s3,6.76,4.37,10,2.73,6.24,3.93,9.07,2.23,5.23,3.08,7.2h12.09q1.29-3,3.09-7.13t3.92-9q2.13-4.82,4.38-10t4.44-10c1.45-3.22,2.83-6.2,4.11-8.94s2.4-5.1,3.35-7.08q1.44,15.44,2.16,31.9t1.24,32H329.7q-.52-11.07-1.24-22.7t-1.57-23.16Q326,33.88,325,22.88T322.76,2.1h-14.6q-2.84,4.89-6.3,12t-7.08,14.86q-3.6,7.78-7.07,15.82L281.28,59.6q-3-6.83-6.5-14.86t-7.14-15.82q-3.6-7.79-7.07-14.86t-6.3-12Z"/><path class="cls-1" d="M130.45.5c34.12,0,47.75,25.24,47.75,45.13,0,26.33-16.69,47.11-47.8,47.11C96.73,92.74,83,68.83,83,47.31c0-15.67,6.68-29,18.59-37.6C109,4,119,.5,130.25.5m-1,11.16c-16.22.24-29.12,13.13-29.12,35.15,0,22.35,14.14,34.77,30.55,34.77,17.51,0,30.32-11.23,30.32-34.75,0-24.51-15.92-35.17-31.55-35.17Z"/><path class="cls-2" d="M130.45.5c34.12,0,47.75,25.24,47.75,45.13,0,26.33-16.69,47.11-47.8,47.11C96.73,92.74,83,68.83,83,47.31c0-15.67,6.68-29,18.59-37.6C109,4,119,.5,130.25.5Zm-1.17,11.16c-16.22.24-29.12,13.13-29.12,35.15,0,22.35,14.14,34.77,30.55,34.77,17.51,0,30.32-11.23,30.32-34.75,0-24.51-15.92-35.17-31.55-35.17Z"/><path class="cls-1" d="M144,27.38c4.09,4.08,5,8.53,4.85,9.38a83.33,83.33,0,0,0-1,10.05c0,22.35,14.15,34.77,30.56,34.77,17.52,0,30.34-11.23,30.34-34.75s-14.55-34.22-29.55-35c-.42-.47-3.24-3.51-4.66-5.06a56.39,56.39,0,0,0-5.92-5.37A64.2,64.2,0,0,1,178,.5h.19C212.31.5,226,25.74,226,45.63c0,26.33-16.69,47.11-47.81,47.11-33.66,0-47.4-23.91-47.4-45.43a47.25,47.25,0,0,1,6.21-24s3,0,7.09,4.07"/><path class="cls-2" d="M144,27.38c4.09,4.08,5,8.53,4.85,9.38a83.33,83.33,0,0,0-1,10.05c0,22.35,14.15,34.77,30.56,34.77,17.52,0,30.34-11.23,30.34-34.75s-14.55-34.22-29.55-35c-.42-.47-3.24-3.51-4.66-5.06a56.39,56.39,0,0,0-5.92-5.37A64.2,64.2,0,0,1,178,.5h.19C212.31.5,226,25.74,226,45.63c0,26.33-16.69,47.11-47.81,47.11-33.66,0-47.4-23.91-47.4-45.43a47.25,47.25,0,0,1,6.21-24s3,0,7.09,4.07"/><path d="M59.94,92.59a81.6,81.6,0,0,0,9.24-1.53q4.09-1,7.11-2a26.27,26.27,0,0,0,4.76-2l-5-13.18a69.7,69.7,0,0,1-9.53,3.27,60.82,60.82,0,0,1-16,1.72,37.53,37.53,0,0,1-14.07-2.36,25.5,25.5,0,0,1-9.67-6.66,27.32,27.32,0,0,1-5.64-10.17,43.44,43.44,0,0,1-1.83-12.93,38.33,38.33,0,0,1,2.34-14A26.25,26.25,0,0,1,38.11,16.83a37.34,37.34,0,0,1,12.31-2,55.18,55.18,0,0,1,14.14,1.72,46.93,46.93,0,0,1,10,3.65L80,7c-.68-.34-1.85-.9-3.51-1.66a41.26,41.26,0,0,0-6.3-2.18q-3.83-1-8.95-1.85A71.07,71.07,0,0,0,49.83.51,60.4,60.4,0,0,0,30.34,3.59a45.53,45.53,0,0,0-15.83,9A42.4,42.4,0,0,0,3.88,27.13,47.33,47.33,0,0,0,0,46.84,53.57,53.57,0,0,0,3.37,66.55,39.6,39.6,0,0,0,13,81.07a41.32,41.32,0,0,0,15.39,9A64.12,64.12,0,0,0,49,93.17a99.59,99.59,0,0,0,11-.58"/></g></g></svg>