<?xml version="1.0" encoding="UTF-8"?>
<svg id="svg1" xmlns="http://www.w3.org/2000/svg" xmlns:svg="http://www.w3.org/2000/svg" xmlns:sodipodi="http://sodipodi.sourceforge.net/DTD/sodipodi-0.dtd" xmlns:inkscape="http://www.inkscape.org/namespaces/inkscape" version="1.1" viewBox="0 0 355.3 149.2">
  <!-- Generator: Adobe Illustrator 29.0.1, SVG Export Plug-In . SVG Version: 2.1.0 Build 192)  -->
  <path id="path309" d="M133,69.6v-14.9h8.7v1.8h-6.8v4.4h5.5v1.8h-5.5v6.9h-1.9Z"/>
  <path id="path311" d="M160.5,50.4c.4,0,.6.1.9.3.2.2.3.5.3.9s-.1.6-.3.9c-.2.2-.5.3-.9.3s-.6-.1-.8-.3c-.2-.2-.3-.5-.3-.9s.1-.6.3-.9c.2-.2.5-.3.8-.3M156.9,50.4c.4,0,.6.1.9.3.2.2.3.5.3.9s-.1.6-.3.9c-.2.2-.5.3-.9.3s-.6-.1-.8-.3c-.2-.2-.3-.5-.3-.9s.1-.6.3-.9c.2-.2.5-.3.8-.3M162.1,57.8c-.9-1-2-1.5-3.4-1.5s-2.5.5-3.4,1.5c-.9,1-1.3,2.4-1.3,4.3s.4,3.3,1.3,4.3c.9,1,2,1.5,3.4,1.5s2.5-.5,3.4-1.5c.9-1,1.3-2.4,1.3-4.3s-.4-3.3-1.3-4.3M154,56.6c1.3-1.4,2.9-2,4.7-2s3.4.7,4.7,2c1.3,1.3,1.9,3.2,1.9,5.6s-.6,4.2-1.9,5.6c-1.3,1.3-2.9,2-4.7,2s-3.4-.7-4.7-2c-1.3-1.4-1.9-3.2-1.9-5.6s.6-4.2,1.9-5.6"/>
  <path id="path313" d="M182.4,56.5h-3.1v4.3h3.1c1.6,0,2.4-.7,2.4-2.2s-.8-2.2-2.4-2.2M188.1,69.6h-2.2l-4.4-7h-2.2v7h-1.9v-14.9h5c1.3,0,2.4.4,3.2,1,.8.7,1.2,1.7,1.2,2.9s-.3,1.9-.8,2.5c-.5.7-1.3,1.1-2.3,1.3l4.4,7.1Z"/>
  <path id="path315" d="M203.6,67l4.1-12.2h2l-5.1,14.9h-1.9l-5.1-14.9h2l4.1,12.2Z"/>
  <path id="path317" d="M226.5,63.8l-2.3-6.7-2.3,6.7h4.5ZM218.2,69.6l5.1-14.9h1.8l5.2,14.9h-1.9l-1.3-4h-5.7l-1.3,4h-1.9Z"/>
  <path id="path319" d="M241.5,69.6v-14.9h1.9v13.1h6.8v1.8h-8.6Z"/>
  <path id="path321" d="M262.6,56.5h-4.3v-1.8h10.5v1.8h-4.3v13.1h-1.9v-13.1Z"/>
  <path id="path323" d="M289,66.4v-11.6h1.9v14.9h-2.2l-6.7-11.6v11.6h-1.9v-14.9h2.2l6.7,11.6Z"/>
  <path id="path325" d="M303.7,54.7h1.9v14.9h-1.9v-14.9Z"/>
  <path id="path327" d="M327.4,66.4v-11.6h1.9v14.9h-2.2l-6.7-11.6v11.6h-1.9v-14.9h2.2l6.7,11.6Z"/>
  <path id="path329" d="M352.1,63.9h-3.2v-1.8h5v7.5h-1.6l-.2-2c-.4.7-.9,1.2-1.7,1.6-.7.4-1.6.6-2.5.6-1.8,0-3.4-.7-4.7-2-1.3-1.3-1.9-3.2-1.9-5.6s.7-4.3,2-5.6c1.3-1.3,2.9-2,4.8-2s2.8.4,3.8,1.2c1,.8,1.7,1.9,2,3.3l-1.8.5c-.7-2.2-2.1-3.3-4-3.3s-2.6.5-3.5,1.5c-.9,1-1.3,2.4-1.3,4.3s.4,3.3,1.3,4.3c.9,1,2.1,1.5,3.5,1.5s2.2-.4,2.9-1.1c.7-.7,1.1-1.7,1.2-3"/>
  <path id="path331" d="M132.7,82.7h6.1v30l15.5-15.2h7.9l-17,16.7,18.6,19.7h-7.9l-17.2-18.3v18.3h-6.1v-51.2Z"/>
  <path id="path333" d="M183.4,128.9c2.9,0,5.6-.9,7.9-2.7,2.5-1.9,3.7-4.7,3.7-8.4v-1.2h-7.9c-6.1,0-9.7,2.6-9.7,6.7s2.3,5.6,6,5.6M201.1,133.8h-4.9l-.9-5.1c-2.3,3.4-7.4,5.7-12.9,5.7s-11.3-3.9-11.3-11.1,6.1-11.9,16.5-11.9h7.4v-1.6c0-5.3-3.5-7.5-8.4-7.5s-7.4,2.5-8.6,6.2l-5.3-1.4c1.7-6.3,7.2-10.3,13.9-10.3s14.4,4.4,14.4,14v23Z"/>
  <path id="path335" d="M227,82.7c2.8,0,5,2.2,5,5.1s-2.2,4.9-5,4.9-5-2.2-5-4.9,2.2-5.1,5-5.1M214.7,143.4c6.9-2.3,9.8-6,9.8-13.1v-27.5h-14.3v-5.3h20.4v34.4c0,4.8-1.4,8.7-4,11.6-2.7,2.9-5.9,4.8-9.8,5.8l-2-5.8Z"/>
  <path id="path337" d="M248.6,111.5h21.6c-1.1-5.8-5-9.1-10.8-9.1s-9.5,3.4-10.8,9.1M276.7,116.9h-28.5c.4,7.2,4.8,12,11.2,12s9.1-2.4,11.7-7.2l4.8,2.5c-3.5,6.8-9,10.2-16.5,10.2s-9.4-1.8-12.6-5.3c-3.2-3.5-4.8-8-4.8-13.4s1.6-9.8,4.7-13.4c3.2-3.6,7.4-5.4,12.7-5.4s9.7,1.7,12.7,5.1c3,3.3,4.6,7.5,4.6,12.5v2.5Z"/>
  <path id="path339" d="M287,82.7h6.1v30l15.5-15.2h7.9l-17,16.7,18.6,19.7h-7.9l-17.2-18.3v18.3h-6.1v-51.2Z"/>
  <path id="path341" d="M337.6,128.9c2.9,0,5.6-.9,7.9-2.7,2.5-1.9,3.7-4.7,3.7-8.4v-1.2h-7.9c-6.1,0-9.7,2.6-9.7,6.7s2.3,5.6,6,5.6M355.3,133.8h-4.9l-.9-5.1c-2.3,3.4-7.4,5.7-12.9,5.7s-11.3-3.9-11.3-11.1,6.1-11.9,16.5-11.9h7.4v-1.6c0-5.3-3.5-7.5-8.4-7.5s-7.4,2.5-8.6,6.2l-5.3-1.4c1.7-6.3,7.2-10.3,13.9-10.3s14.4,4.4,14.4,14v23Z"/>
  <path id="path343" d="M15.5,133.8H1.4C.6,133.8,0,133.2,0,132.4V33.7C0,31.9.9,30.3,2.4,29.4L48.2.8c1.6-1,3.7-1,5.4,0l45.8,28.6c1.5.9,2.4,2.5,2.4,4.3v98.7c0,.8-.7,1.4-1.5,1.4h-14.1c-.8,0-1.4-.6-1.4-1.4V40c0-1.7-.9-3.4-2.4-4.3l-28.9-18c-1.6-1-3.7-1-5.4,0l-28.9,18c-1.5.9-2.4,2.5-2.4,4.3v92.3c0,.8-.6,1.4-1.5,1.4"/>
  <path id="path345" d="M16.3,87.6l24.7-26.9c.3-.3.7-.5,1.1-.5h12.9c1.3,0,1.9,1.5,1.1,2.4l-27.7,30.5,30.1,38.3c.7,1,0,2.3-1.1,2.3h-13.6c-.5,0-.9-.2-1.2-.6l-26.3-34.5"/>
</svg>