<?xml version="1.0" encoding="UTF-8"?>
<svg id="Layer_1" xmlns="http://www.w3.org/2000/svg" xmlns:xlink="http://www.w3.org/1999/xlink" version="1.1" viewBox="0 0 750 250">
  <!-- Generator: Adobe Illustrator 29.0.1, SVG Export Plug-In . SVG Version: 2.1.0 Build 192)  -->
  <defs>
    <style>
      .st0, .st1, .st2, .st3, .st4, .st5 {
        fill: none;
      }

      .st6 {
        clip-path: url(#clippath-1);
      }

      .st1 {
        stroke-width: .5px;
      }

      .st1, .st2, .st3, .st4 {
        stroke: #fff;
      }

      .st1, .st2, .st3, .st4, .st5 {
        stroke-miterlimit: 10;
      }

      .st7 {
        fill: #fff;
      }

      .st2 {
        stroke-width: .4px;
      }

      .st3 {
        stroke-width: .2px;
      }

      .st4 {
        stroke-width: .3px;
      }

      .st5 {
        stroke: #000;
        stroke-width: .9px;
      }

      .st8 {
        clip-path: url(#clippath);
      }
    </style>
    <clipPath id="clippath">
      <circle class="st0" cx="137.3" cy="126.7" r="103.5" transform="translate(-49.4 134.2) rotate(-45)"/>
    </clipPath>
    <clipPath id="clippath-1">
      <path class="st0" d="M27.9,174c-.3-.2-.8-1.8-.3-3,.1-.3.8,0,1.4-.4.2-.1.3-.3.3-.8.1-.7-.1-.9.1-1.1.3-.3.8,0,1.7-.3.7-.2.6-.4,1.3-.6.5,0,.6,0,1.2,0,1.1-.2,1.3-.6,1.8-.5,0,0,.3,0,.9,1,.4.7.5,1,.9,1.1s.7,0,1.1,0c.5.2.5.6.5.6,0,.3-.3.5,0,.6s2.1,3.3,1.7,1.2c0-.6.3-1.4.6-1.8.4-.5-.2-.7.3-1.1.3-.3.7-.2,1-.6.3-.3,0-.4.5-.9.2-.2.4-.5.9-.6.2,0,.4-.1.7-.1.5,0,.5.3,1,.3s.7,0,1.4-.2c.7-.1.7-.2,1.2-.3.6,0,1.7-.2,1.9,0,.2.2-.2.4,0,.5.2.1.6.1.9,0,.3,0,.2-.3.4-.5.4-.3,1.2-.3,1.8,0,.3,0,.3,0,1,.4.7.2.9.2,1,.2.2,0,0-.2.4-.3.3-.2,1-.2,1.3,0,0,0,.2,0,.4.5.3.5.3.6.5.6.4.2,1.1,0,1.4-.2.7-.2.6-.4,1.2-.6,0,0,1.2-.4,1.9-.2q.2,0,.9.6c.6.5.7.5.9.6.7.1,1.6-.3,1.6-.3.6-.3.5-.5.9-.6.6,0,1.5,0,1.8.4s-.3.8,0,1h1.1s.5,0,1.3.2c0,0,.2-.8.9-.9h1.7c.4.1.3.4.7.5.4.2,1,.1,1.3,0,.5,0,.5-.3.8-.3s1,.2,1.2.5c.3.5-.5.9,0,1.2.2,0,.9,4.1,1.8,1.1,0-.4-.6-1.4-.3-1.9.5-.8.8,0,1.1-.6.2-.5.2-1.4.5-1.5.3,0,.4.1,1.1.2h1.4s1.4.3,1.7.8c.3.5-.5.8,0,1.1.3.2,1,.3,1.5.3s.9-.3,1.2-.2c.2,0,.2.2.2.4,0,.4-.2.6,0,.7.2.2.9.2,1.4,0,.8-.3.7-1,.7-1.1,0-.4-.3-.8-.3-.8l.7-1s1.2-.3,2,0c.4,0,.8.5.8.8.2,0,.7-.3,1.5-.5h1.2c.3,0,.6,0,.9,0,.6.2.7.7.7.8.6-.4,1.2-.4,1.3-.4,1,0,1.9.7,2.1,1.3,0,.3,0,.5.3.7.4.2,1.2.1,1.7,0,.8-.3.9-.9.9-1,0-.6-.5-.9,0-1.2.3-.2.8,0,1.2-.3.5-.3,0-.8.3-1.1.4-.2,1.2-.1,1.7,0,.7.2.8.6,1.3.6s.3-.2.9-.3c.6-.2,1.4-.2,1.8,0,.3.2,0,.3.3.5.5.3,1.7.2,1.7.2-.3-.1.8.2,1,.4s-.2.4,0,.5c.2.2,1.1,0,1.5.2.2,0,.2.2.2.4,0,.5-.3.8,0,.9h1.4s0,.6.3.8c.4.2,1,0,1.4,0,0,0-.4-1.3-.6-.7-.5,1.8-81,9-89,4.1h-.4Z"/>
    </clipPath>
  </defs>
  <g id="Layer_3">
    <path d="M316.6,108.8c-1.5,1-3,2-4.5,2.9s-2.9,1.7-4.3,2.3-2.7,1.2-3.9,1.6c-1.2.4-2.3.7-3.3.8h-2.7c-.8,0-1.4-.2-1.9-.6-.5-.3-.9-.8-1.1-1.6-.3-.7-.4-1.7-.4-3v-47.6c0-.5,0-.9-.3-1.2-.2-.3-.5-.6-.9-.8s-.8-.3-1.4-.4c-.5,0-1.1,0-1.6,0-.9,0-1.9,0-3,.2-1,.2-2,.4-3,.6,1.3-.8,2.6-1.6,3.9-2.4s2.6-1.4,3.9-1.9,2.6-1,4-1.3,2.8-.5,4.2-.5h1.6c.5,0,1,.2,1.4.3s.7.3,1,.6c.2.2.4.5.4.9v50.6c1.4.2,2.6.4,3.7.5,1.1,0,2.1.2,3.1.2h2.1c.6,0,1.1,0,1.5-.2.5,0,.9-.2,1.2-.3h0l.3.4ZM357.7,109.4c-2,1.7-3.7,3-5.2,3.9s-2.8,1.6-3.9,2.1c-1.2.6-2.3.9-3.3,1-1.3.3-2.7.2-4.3,0-1.6-.4-3.2-1-5-1.9-1.7-.9-3.5-1.9-5.3-3.2s-3.6-2.6-5.3-4c-1.8-1.4-3.4-2.9-5.1-4.4s-3.1-3-4.5-4.3c-1.4-1.4-2.6-2.7-3.6-3.8-1-1.2-1.9-2.1-2.5-2.9-.5-.7-.9-1.2-1.2-1.6-.3-.4-.5-.8-.5-1.3s.2-.8.5-1.3c.4-.5,1-1.2,1.9-2,.5-.4,1.1-1,1.8-1.8.8-.7,1.6-1.6,2.5-2.5s1.9-1.9,2.9-3,2-2.2,3-3.3c1-1.1,2-2.2,2.9-3.4s1.7-2.2,2.4-3.2,1.2-1.9,1.7-2.7.6-1.5.6-2.1-.8-1.1-2.4-1.1h-4.5c1.4-.8,2.6-1.5,3.8-2.2,1.2-.7,2.3-1.3,3.5-1.8s2.3-.9,3.4-1.2,2.4-.5,3.6-.5h1.7c.6,0,1.2,0,1.9.2-1.2,2.1-2.4,4-3.6,5.7s-2.5,3.3-3.7,4.7-2.5,2.8-3.7,3.9c-1.2,1.2-2.4,2.3-3.6,3.4s-2.3,2.1-3.4,3.1-2.1,2.1-3.1,3.2c-.5.5-.7,1-.6,1.7,0,.7.5,1.5,1.4,2.5,1.4,1.5,2.9,3.2,4.6,5s3.5,3.6,5.4,5.4,3.9,3.6,6,5.3c2.1,1.7,4.2,3.2,6.4,4.6s4.4,2.4,6.7,3.2,4.5,1.2,6.7,1.2,2.1-.2,2.8-.7h0l.2.2Z"/>
    <path d="M384.8,107.8c-2.6,1.8-4.8,3.3-6.6,4.4-1.8,1.2-3.3,2.1-4.6,2.8-1.3.7-2.5,1.2-3.5,1.4s-2.2.4-3.3.4-2-.2-3-.7-1.8-1.4-2.5-2.7-1.3-3.1-1.8-5.3c-.4-2.2-.7-5.2-.7-8.7s0-7.2.1-11.1c0-3.8.2-7.7.2-11.6s.2-7.7.2-11.4.1-7.2.1-10.4-.5-5.7-1.5-7.4c-1-1.8-2.4-2.7-4.4-2.7s-1.3,0-2,.2-1.5.5-2.3.9c1-.7,2.1-1.5,3.2-2.2,1.1-.8,2.3-1.5,3.4-2.1,1.2-.6,2.3-1.1,3.5-1.5s2.4-.6,3.5-.6,2.6.4,3.5,1.1,1.5,1.7,1.9,2.8.6,2.3.7,3.6c0,1.3.1,2.5.1,3.6,0,1.7,0,3.7-.1,6s0,4.9-.1,7.6c0,2.7-.1,5.5-.2,8.4,0,2.9-.1,5.7-.2,8.5,0,2.8-.1,5.4-.1,7.9s0,4.7-.1,6.6c0,2.6.1,4.8.5,6.6.4,1.9,1,3.4,1.8,4.6s1.7,2.1,2.8,2.7c1.1.6,2.3.9,3.6.9,2.4,0,4.9-.8,7.5-2.4h0l.4-.2Z"/>
    <path d="M432.2,92.3c0,2.2-.3,4.1-.9,5.9s-1.3,3.3-2.1,4.7-1.7,2.4-2.5,3.3c-.9.9-1.5,1.5-2.1,1.9-1.5,1.1-3.1,2.2-4.6,3.2-1.6,1-3.2,2-4.9,2.8s-3.4,1.5-5.2,2-3.6.7-5.5.7c-2.8,0-5.4-.3-7.9-1.1-2.5-.7-4.7-1.8-6.5-3.2-1.9-1.4-3.3-3.2-4.4-5.3-1.1-2.1-1.6-4.6-1.6-7.5s.4-4.9,1.3-7.1,2-4.3,3.5-6.2c1.5-1.9,3.2-3.6,5.2-5.1s4.1-2.8,6.3-3.8c2.2-1,4.5-1.8,6.8-2.4s4.6-.8,6.8-.8,5.2.4,7.4,1.3,4.2,2.2,5.8,3.8,2.9,3.5,3.8,5.7,1.4,4.6,1.4,7.1h0ZM405.3,78.9c-1.3,0-2.5.2-3.6.7s-2.1,1.1-2.9,1.9-1.6,1.8-2.2,2.8c-.6,1.1-1.1,2.2-1.5,3.4s-.7,2.4-.9,3.6-.3,2.3-.3,3.4c0,2.4.4,4.7,1.3,6.8.9,2.1,2.1,3.9,3.6,5.5s3.4,2.8,5.4,3.7c2.1.9,4.3,1.3,6.6,1.3s2.9-.3,4.2-.8,2.6-1.4,3.6-2.7,1.9-2.8,2.5-4.7c.6-1.9,1-4.2,1-6.9s-.4-4.7-1.3-6.8c-.9-2.2-2.1-4.1-3.6-5.8-1.5-1.7-3.3-3-5.4-4s-4.3-1.5-6.6-1.5h0Z"/>
    <path d="M454.8,110.7l-9.3,6.7c.2-5,.4-9.3.5-12.8s.2-6.5.3-8.8c0-2.7.1-4.9.1-6.6.1-3.2-.3-5.6-1.3-7.4s-2.5-2.7-4.5-2.7-1.3,0-2,.3c-.7.2-1.5.5-2.3.8,1-.7,2.1-1.5,3.2-2.2,1.1-.8,2.3-1.5,3.4-2.1s2.4-1.1,3.5-1.5c1.2-.4,2.4-.6,3.5-.6s2.1.2,3,.7,1.6,1.2,2,2.2c.4.9.7,1.9.9,3,.2,1.1.3,2.3.3,3.6,1.3-1.4,2.8-2.7,4.5-3.9,1.6-1.2,3.4-2.3,5.2-3.1s3.6-1.5,5.4-1.9,3.5-.5,5.2-.3c1.2.2,2.4.5,3.6,1,1.3.5,2.4,1.2,3.5,2.3s1.9,2.3,2.6,4,1,3.7.9,6.2c0,2.9-.2,5.6-.4,8-.2,2.4-.3,4.6-.3,6.5s0,2.2.3,3.2.5,1.9,1,2.6,1.1,1.3,1.9,1.8c.8.4,1.8.7,2.9.7s2.1-.2,3.3-.6c1.2-.4,2.3-1,3.5-1.9-1.9,1.7-3.6,3.1-5.2,4.3-1.6,1.2-3,2.1-4.4,2.8s-2.6,1.2-3.8,1.5-2.3.4-3.4.4-2-.2-2.8-.6-1.4-1-1.9-1.9-.8-1.9-1-3.3c-.2-1.3-.2-3-.2-4.9s.2-3.6.3-5.7.2-4.1.2-6.2-.2-4.3-.5-6-.9-3-1.7-4.1-2-1.9-3.4-2.4c-1.5-.5-3.3-.8-5.6-.8s-3,.3-4.2,1-2.1,1.5-2.9,2.6-1.4,2.4-1.8,3.8-.8,3-1,4.6-.4,3.3-.5,5c0,1.7-.1,3.3-.2,4.9,0,1.6-.1,3.1-.2,4.5s-.2,2.6-.5,3.6h0l.3-.3Z"/>
    <path d="M558.7,109.6c-3.5,2.4-6.5,4.1-9,5.2s-4.6,1.6-6.3,1.6-1.4,0-2.2-.3-1.5-.6-2.1-1.1-1.3-1.2-1.9-2.2-1-2-1.3-3.4c-1.3.9-2.7,1.9-4.2,2.8s-3.1,1.7-4.8,2.5c-1.6.7-3.3,1.3-4.9,1.8-1.7.4-3.2.7-4.8.7-2.5,0-4.8-.5-6.9-1.5s-3.8-2.4-5.2-4.1c-1.4-1.7-2.5-3.6-3.3-5.8-.8-2.2-1.1-4.4-1.1-6.7s.4-4.8,1.2-6.9,1.9-3.8,3.2-5.4c1.4-1.6,3-3,4.8-4.2s3.7-2.3,5.7-3.2c2-.9,4.1-1.7,6.2-2.4,2.1-.7,4.2-1.3,6.2-1.9h2.5c.7,0,1.6,0,2.5,0s1.9.2,3,.5l.8-24.7c0-1.4-.3-2.7-.8-3.7-.2-.4-.5-.8-.8-1.2s-.7-.7-1.2-.9-1-.3-1.6-.3-1.4,0-2.2.3c1-.5,2.1-1,3.2-1.6,1.2-.6,2.3-1.1,3.4-1.6s2.2-.9,3.3-1.3c1.1-.3,2.1-.5,3-.5s1.8.3,2.5.8,1,1.3,1.1,2.4c0,.7,0,1.7,0,3v11.6c0,2.5,0,5.3,0,8.1,0,2.8,0,5.7-.2,8.6,0,2.9,0,5.8-.2,8.6,0,2.8,0,5.4,0,7.9v6.7c0,1.9,0,3.1.3,4.6.2,1.5.6,2.9,1.2,4.1.6,1.2,1.4,2.2,2.5,2.9s2.5,1.1,4.2,1.1,1.3,0,2-.2c.7,0,1.5-.3,2.3-.7h0ZM535.8,84c-.9-.8-1.9-1.4-2.9-1.9s-2.1-.9-3.2-1.3c-1.1-.3-2.2-.6-3.3-.7s-2.2-.2-3.2-.2c-2.3,0-4.2.3-5.8,1s-2.9,1.6-3.9,2.9-1.8,2.8-2.2,4.5c-.5,1.8-.7,3.7-.7,5.8s.4,4.5,1.1,6.5c.7,2,1.7,3.8,3,5.4,1.3,1.6,2.9,2.8,4.8,3.7,1.9.9,3.9,1.3,6.2,1.3s3-.2,4.1-.6c1.2-.4,2.1-1,2.9-1.7s1.4-1.6,1.9-2.6.8-2.1,1.1-3.4v-13.1c0-1.8,0-3.7,0-5.6h0Z"/>
    <path d="M603.1,78.2c0,1.2-.2,2.5-.5,3.9-.3,1.5-.8,3.1-1.6,4.9s-1.9,3.8-3.3,5.9-3.2,4.3-5.3,6.7c-2.8,3.1-5.7,6.1-8.6,9.2s-5.8,6-8.4,8.9c-2.7,2.8-5.1,5.5-7.3,8s-3.9,4.7-5.2,6.6c-1.3,1.9-2.3,3.6-3,5-.7,1.5-1.2,2.7-1.5,3.8s-.4,2-.4,2.7,0,1.4.2,1.9v.9c0,.3-.2.5-.3.7-.2.2-.3.4-.6.5s-.5.2-.7.2-.6-.1-.9-.4c-.3-.3-.6-.8-.7-1.5-.2-.8,0-1.9.3-3.3.4-1.4.9-2.9,1.7-4.4s1.7-3.3,2.8-5,2.4-3.3,3.8-4.9c1.7-1.9,3.6-4,5.8-6.5,2.2-2.4,4.4-5,6.7-7.7-.3-1.9-.7-4-1.2-6.5s-1.1-4.9-1.8-7.5-1.5-5-2.4-7.5c-.9-2.4-1.9-4.6-3-6.5s-2.3-3.5-3.5-4.6c-1.3-1.2-2.6-1.8-4.1-1.8s-1.2,0-1.8.3c-.6.2-1.3.5-1.9.9.8-.7,1.6-1.6,2.6-2.5s2-1.8,3-2.5,2.2-1.4,3.3-2,2.2-.8,3.3-.8,1.5.2,2.1.6,1.3,1,1.9,1.9c.5.9,1.3,2.2,2.3,3.9s2,3.8,3.2,6.2,2.2,5.2,3.4,8.3c1.1,3.1,2.1,6.4,2.9,10.1,1.4-1.8,2.7-3.6,3.9-5.4s2.2-3.4,3.1-5c.9-1.6,1.6-3.1,2.1-4.4s.8-2.6.8-3.7,0-1.8-.3-2.6c-.2-.8-.5-1.4-.8-1.9-.4-.5-.8-.9-1.4-1.1-.6-.2-1.2-.2-2,0,.6-.7,1.3-1.5,2.1-2.4s1.6-1.7,2.5-2.5,1.8-1.4,2.8-1.9,2-.8,3-.8,1.3.2,1.7.6.7.9.9,1.4c.2.6.3,1.2.4,1.8v1.7h0v.2Z"/>
    <path d="M622.3,110.7l-9.4,6.7c0-6.8.2-12.8.3-18.2s.2-10.2.2-14.4,0-7.9.2-11c0-3.1,0-5.8,0-8,0-5.2,0-8.8,0-10.9,0-3.2-.4-5.7-1.3-7.4-1-1.8-2.5-2.7-4.5-2.7s-1.3,0-2,.2-1.5.5-2.2.9c1-.7,2.1-1.5,3.2-2.2s2.3-1.5,3.4-2.1c1.2-.6,2.3-1.1,3.5-1.5s2.4-.6,3.5-.6,1.9.2,2.7.6,1.3.9,1.8,1.5.8,1.4,1.1,2.2.5,1.7.6,2.6c0,.9.2,1.8.2,2.7v2.5l-.9,33.4c1.4-1.6,3-3.1,4.8-4.4,1.8-1.4,3.6-2.5,5.6-3.5,1.9-1,3.9-1.7,5.8-2.2s3.8-.6,5.5-.4c1,0,2,.4,2.8.9s1.7,1.1,2.3,1.8c.7.7,1.2,1.6,1.5,2.6.4,1,.6,2,.6,3.1,0,1.8-.4,3.5-1.3,5s-2,2.7-3.3,3.8c-1.3,1.1-2.8,2-4.5,2.7-1.6.7-3.2,1.3-4.7,1.6.7.8,1.5,1.6,2.5,2.7,1,1,2,2.1,3.1,3.1,1.1,1.1,2.2,2.2,3.4,3.2,1.2,1.1,2.4,2,3.6,2.8,1.2.8,2.4,1.5,3.6,2s2.3.8,3.4.8c2.1,0,4.2-.7,6.3-2-1.9,1.3-3.5,2.5-4.9,3.6s-2.8,1.9-4,2.6-2.5,1.2-3.7,1.6c-1.2.3-2.6.4-4.1.3-1.5,0-3-.6-4.5-1.5s-2.8-2-4.2-3.2c-1.3-1.2-2.6-2.5-3.8-3.9s-2.4-2.6-3.5-3.7c-.5-.6-1-1.1-1.6-1.5-.5-.4-1.1-.8-1.8-1.2s-1.5-.7-2.3-.8c.9-.8,1.8-1.4,2.8-2,.9-.6,1.8-1.1,2.5-1.5.9-.5,1.8-.9,2.6-1.3.9-.4,1.8-.8,2.8-1.4,1-.5,1.9-1.1,2.7-1.8s1.5-1.5,2-2.4.8-1.9.8-3.1-.2-1.9-.5-2.8-.8-1.7-1.4-2.5c-.6-.7-1.3-1.3-2.1-1.7s-1.7-.6-2.7-.6-1.9.2-2.8.5-1.7.6-2.3,1c-.5.3-1.2,1.1-2,2.5s-1.6,3.3-2.4,5.7c-.8,2.4-1.5,5.5-2.1,9-.6,3.6-1,7.7-1.1,12.4h0v-.2Z"/>
    <path d="M713.6,77.8c-3,1.5-5.8,2.8-8.3,3.9-2.6,1.1-4.8,2.1-6.8,2.9-2.3.9-4.3,1.7-6.2,2.4-1.2.5-2.5,1-3.9,1.5s-2.9,1-4.4,1.5-3.1,1-4.7,1.4c-1.6.5-3.2,1-4.8,1.4v.8c0,2.7.4,5.1,1.3,7.2.8,2.1,2,3.9,3.5,5.4s3.3,2.6,5.4,3.4c2.1.8,4.4,1.2,7,1.2s2.7,0,4-.3,2.6-.5,3.8-.8,2.3-.8,3.3-1.3,2-1,2.8-1.6c-2,1.8-4,3.3-6.1,4.4-2.1,1.2-4.2,2.2-6.3,2.9-2.1.7-4.2,1.3-6.2,1.6-2,.3-4,.5-5.9.6-1.9,0-3.8-.2-5.6-.9s-3.5-1.6-5-2.9-2.8-2.9-3.8-4.9c-1-1.9-1.7-4.2-2-6.8,0-.9-.2-1.8-.2-2.6s0-1.7.2-2.5c-.9.3-1.7.7-2.5.9s-1.3.6-1.8.9c.8-.5,1.5-1,2.3-1.5s1.5-.9,2.2-1.3c.4-2,1.2-4,2.3-5.8s2.4-3.6,3.9-5.2,3.2-3,5.1-4.3,3.8-2.4,5.8-3.3,4.1-1.6,6.2-2.1c2.1-.5,4.1-.7,6-.7s2.4.2,3.3.6,1.5,1.1,1.8,2.1c.2,1-.2,2.2-1.1,3.4-.4.5-.9,1.1-1.6,1.7s-1.5,1.2-2.6,1.9c-1,.7-2.3,1.3-3.8,2s-3.2,1.4-5.2,2.1l28.6-9.3h0ZM682.6,87.2c1.1-.5,2.1-1,3-1.6s1.6-1.2,2.1-1.8.8-1.3.8-1.9-.2-1.4-.8-2.2c-.4-.6-.9-1-1.6-1.2s-1.4-.3-2.1-.3-1.3,0-2,.2-1.2.3-1.6.6c-.3.2-.7.6-1.3,1.2s-1.1,1.4-1.7,2.4c-.6,1-1.1,2.1-1.6,3.4s-.9,2.7-1.1,4.2c1.6-.6,3.1-1.1,4.5-1.6s2.5-.9,3.5-1.4h-.1Z"/>
    <path d="M325.8,178.9c.8,0,1.4.2,1.7.4.3.2.5.4.5.7s-.2.9-.7,1.3-1.1.9-1.9,1.4-1.6,1-2.5,1.4c-.9.5-1.7.9-2.6,1.3s-1.5.7-2.2,1-1,.4-1.2.5c.3-.4.5-.7.5-.9s-.1-.4-.3-.6c-.2-.2-.5-.3-.9-.4h-1.7c-.8,0-1.9,0-3,.2-1.2,0-2.5.2-4,.3s-3,.2-4.5.4l-.6,20c.6.4,1.3.8,2.1.9.8.2,1.7.3,2.6.3s1.8,0,2.6-.2,1.6-.2,2.3-.4c.8-.2,1.6-.4,2.3-.6-1,.9-2.2,1.8-3.5,2.7s-2.7,1.8-4.2,2.5c-1.5.8-3,1.4-4.7,1.9-1.6.5-3.3.7-4.9.7s-1,0-1.5-.2c-.5-.1-1-.4-1.4-.7s-.7-.8-1-1.3-.4-1.2-.3-2.1v-6.4c0-1.1,0-2.5.1-4.1s0-3.4.1-5.5c0-2.1.1-4.5.2-7.2h-1.1l1.1-.6.7-26.1h-3.8c-1.1,0-2.2,0-3.1-.1l10.6-5.7c1,.1,2,.2,3,.2h3c1,0,2.6,0,4.3-.1,1.7,0,3.5-.1,5.4-.2s3.8-.2,5.7-.3,3.7-.2,5.3-.3,2.9-.2,4-.2h1.9c.4,0,.5.2.4.5s-.4.7-.8,1.1-1,.9-1.7,1.5c-.7.5-1.4,1.1-2.2,1.6-.8.5-1.5,1-2.3,1.5s-1.5.8-2.1,1.1c.4-1.2-.8-1.8-3.4-1.8s-4.7.1-7.1.3-4.8.4-7.4.6l-.7,21.9c4.6-.6,8.4-1.1,11.4-1.4s5.2-.5,6.9-.6c2-.1,3.4-.2,4.3-.2h.3Z"/>
    <path d="M389.3,205c-1.1,1.1-2.3,2.1-3.5,3-1.3.9-2.5,1.7-3.8,2.3s-2.5,1.2-3.7,1.6c-1.2.4-2.3.6-3.3.7h-2.1c-.9,0-1.7-.3-2.5-.7s-1.5-1-2-1.8c-.6-.8-.9-2-.9-3.6v-4.6c-1.4,1.4-2.9,2.8-4.5,4s-3.2,2.4-4.9,3.4-3.4,1.8-5.1,2.4-3.4.9-5.1.9-4-.5-5.6-1.4-3-2.2-4.1-3.7-1.9-3.2-2.5-5.1-.8-3.7-.8-5.6.1-2.7.3-4.1.5-2.6.8-3.8.7-2.3,1.1-3.2.9-1.8,1.4-2.4c.9-1.2,2-2.3,3.3-3.4s2.8-2.1,4.4-3.1,3.2-1.8,5-2.6,3.5-1.5,5.3-2c1.8-.6,3.5-1,5.1-1.3s3.2-.5,4.6-.5,3.2,0,5.2.2,4.2.4,6.8.9c-.1,3-.2,5.6-.3,7.9,0,2.3-.1,4.3-.2,6.1,0,1.8,0,3.5-.1,4.9s0,2.9,0,4.3v4.2c0,1.4,0,2.6.3,3.7.3,1.1.8,2,1.5,2.7.8.7,2,1,3.6,1s2-.1,3.1-.4c1.1-.2,2.2-.6,3.4-1h-.2ZM367.5,177c-1.6-.4-3.2-.7-5-.9s-3.5-.2-5.1-.2h-2.5c-.8,0-1.5.1-2.2.2-.6,0-1.2.2-1.7.3s-.9.2-1.1.4c-.5.2-1,.8-1.6,1.7s-1.2,2-1.8,3.3c-.6,1.3-1.1,2.8-1.5,4.5s-.6,3.4-.6,5.2.2,3.4.7,5.1,1.2,3.2,2.2,4.6c1,1.4,2.1,2.5,3.5,3.3,1.4.9,3,1.3,4.8,1.3s3.2-.3,4.5-.8,2.4-1.3,3.4-2.2,1.8-2.1,2.4-3.3c.6-1.3,1.1-2.7,1.5-4.1v-18.3h.1Z"/>
    <path d="M407,179.4c1.2-1.2,2.6-2.3,4-3.5s2.9-2.2,4.4-3.2c1.5-.9,3-1.7,4.5-2.3s2.9-.9,4.3-.9,1.8.1,2.7.3c.9.2,1.7.4,2.6.7.9.2,1.7.5,2.5.7s1.7.3,2.5.3,1.1,0,1.6-.1,1.2-.2,2-.4c-1.6,1.2-3.1,2.3-4.3,3.2-1.2.9-2.4,1.7-3.4,2.2s-2.1,1-3.2,1.3-2.2.4-3.5.3c-1.3,0-2.5-.2-3.6-.4s-2.2-.5-3.1-.7-1.7-.4-2.4-.6c-.7-.1-1.2,0-1.6.1-.9.5-1.8,1.3-2.5,2.6s-1.3,2.7-1.8,4.4-.9,3.6-1.2,5.6c-.3,2-.5,4-.7,6-.1,2-.2,3.9-.2,5.7s0,3.4.2,4.7c-2,1.2-3.6,2.3-4.8,3.2-1.3.9-2.3,1.7-3,2.3-.9.7-1.6,1.3-2,1.8,0-1.6,0-3.5.1-5.7,0-2.2.1-4.6.1-7s0-4.9.1-7.3v-6.5c0-1.9,0-2.5-.1-3.7s-.3-2.4-.6-3.5c-.4-1-.9-1.9-1.7-2.5-.8-.6-1.9-1-3.3-1s-1.1,0-1.7.2-1.2.3-1.7.6c1.1-.7,2.2-1.5,3.3-2.2,1.1-.8,2.2-1.4,3.3-2.1s2.2-1.1,3.3-1.5c1.1-.4,2.2-.6,3.4-.6s2.5.3,3.2.9c.8.6,1.3,1.4,1.7,2.3.4.9.6,1.9.6,3s.1,2.1.1,3.1h0v.2Z"/>
    <path d="M481.1,183.3c0,1.5-.2,3.4-.3,5.7-.1,1.9-.3,4.3-.5,7.2s-.4,6.3-.7,10.3l-10,6.6c.3-1.7.5-3.6.7-5.5s.4-3.9.5-5.9.2-3.9.3-5.9.1-3.8.1-5.4,0-3.2-.2-4.8c-.1-1.6-.5-3-1-4.3-.6-1.2-1.4-2.3-2.5-3.1s-2.6-1.2-4.5-1.2-3.2.5-4.4,1.4c-1.2,1-2.2,2.6-3.1,4.9-.9,2.3-1.6,5.3-2.1,9.1s-1,8.5-1.4,14.1l-9.3,6.7c.2-5,.4-9.3.5-12.9.1-3.5.2-6.5.3-8.8,0-2.7.1-4.9.1-6.6.1-3.1-.3-5.6-1.3-7.4-1-1.8-2.5-2.7-4.5-2.7s-1.3.1-2,.3-1.5.5-2.3.8c1-.7,2.1-1.5,3.2-2.2,1.1-.8,2.3-1.5,3.4-2.1s2.4-1.1,3.5-1.5c1.2-.4,2.4-.6,3.5-.6s2.1.2,3,.7,1.6,1.2,2,2.2c.4.9.7,2,.9,3.1.2,1.2.3,2.5.4,3.9,1.1-1.3,2.4-2.6,3.8-3.9,1.4-1.2,2.9-2.3,4.4-3.2s3-1.6,4.6-2.1,3-.7,4.3-.5c.9.1,1.9.4,3,.7,1,.3,2,.8,2.9,1.5.9.6,1.8,1.5,2.5,2.5.8,1,1.3,2.2,1.7,3.7,1.1-1.2,2.4-2.3,3.7-3.4s2.7-2,4.1-2.8,2.8-1.4,4.2-1.8c1.4-.4,2.7-.5,3.9-.4,1.2.2,2.4.5,3.6,1,1.3.5,2.4,1.2,3.5,2.3s1.9,2.4,2.6,4,1,3.7.9,6.2c0,2.9-.2,5.6-.4,8.1s-.3,4.6-.3,6.5.1,2.2.3,3.2c.2,1,.5,1.9,1,2.6s1.1,1.3,1.9,1.7,1.8.6,2.9.6,2.1-.2,3.3-.6c1.2-.4,2.3-1,3.5-1.9-1.9,1.7-3.7,3.1-5.2,4.3-1.6,1.1-3,2.1-4.4,2.8s-2.6,1.2-3.8,1.5-2.3.4-3.4.4-2-.2-2.8-.6-1.4-1-1.9-1.9-.8-1.9-1-3.3c-.2-1.3-.2-3-.2-4.9s.2-3.6.3-5.7.2-4.1.2-6.1,0-3.3-.2-4.8c-.1-1.6-.5-2.9-1-4.1s-1.4-2.1-2.4-2.8-2.5-1.1-4.4-1.1-1.9.1-2.7.4c-.8.3-1.5.7-2.2,1.2s-1.2,1.2-1.7,1.9-.9,1.5-1.3,2.4v.2h-.1Z"/>
    <path d="M556.7,195.3c0,1.8-.5,3.5-1.4,5s-2.2,3-3.7,4.3-3.3,2.4-5.2,3.4-3.9,1.8-5.9,2.5-4,1.2-5.8,1.5-3.5.4-4.9.3c-1.2,0-2.5-.2-3.8-.6-1.3-.3-2.5-.7-3.5-1.2s-1.8-1-2.3-1.5-.5-1.1,0-1.6l1.5-1.5c.5-.5,1.2-1,2-1.5s1.7-1.1,2.7-1.7c1-.6,2.3-1.3,3.8-2-.5.7-.6,1.4-.3,1.9s.7,1,1.3,1.5c.6.4,1.4.8,2.3,1.1.9.3,1.8.5,2.7.7s1.7.3,2.5.4,1.3.1,1.6.1c.9,0,1.9,0,2.8-.1.9,0,1.8-.3,2.5-.6s1.3-.8,1.8-1.4c.5-.6.7-1.4.7-2.5s-.4-2.4-1.1-3.3c-.7-.9-1.7-1.7-2.8-2.3-1.2-.6-2.5-1.1-3.9-1.5s-2.9-.7-4.3-.9c-1.4-.2-2.8-.5-4-.6-1.3-.2-2.3-.4-3.1-.6-1.3-.3-2.4-.8-3.3-1.4-.9-.6-1.6-1.2-2.1-1.9s-.9-1.4-1.2-2.2-.3-1.6-.3-2.3c0-1.7.5-3.4,1.4-4.8s2.2-2.8,3.7-4,3.2-2.2,5.1-3.2c1.9-.9,3.8-1.7,5.8-2.3s3.9-1.1,5.7-1.4c1.8-.3,3.5-.5,4.8-.5s3,0,4.2.2,2.2.4,3,.6c.7.2,1.2.5,1.4.9s.2.8,0,1.2-.6,1-1.1,1.5-1.2,1.1-2,1.7c-.6.5-1.2.9-1.9,1.3-.6.4-1.3.7-2,1.1-.7.4-1.5.7-2.3,1,.4-.5.5-.9.5-1.3s-.3-.7-.7-1.1c-.4-.3-1-.6-1.7-.8s-1.5-.4-2.3-.6c-.9-.1-1.8-.2-2.7-.3s-1.9-.1-2.8-.1-1.8,0-2.7.1c-.9,0-1.7.2-2.4.5s-1.3.7-1.7,1.3-.7,1.4-.7,2.3.2,1.6.5,2.5c.4.9.9,1.7,1.6,2.5s1.6,1.4,2.7,2.1,2.3,1,3.7,1.3c1.1.2,2.3.4,3.6.5s2.7.2,4,.4,2.6.4,3.8.7,2.3.7,3.3,1.3,1.7,1.3,2.3,2.3.9,2.1.9,3.6h-.3Z"/>
    <g class="st8">
      <g>
        <circle class="st7" cx="136.2" cy="115.6" r="122.7"/>
        <path d="M138.8,84.1c-.3.2-.3.3,0,.6,0,0,.1.2.2.3.2,0,.3,0,.3-.2v-.5c0-.2-.1-.2-.2-.2s-.1,0,0-.2c.2-.3.3-.6.3-.9v-.3c.1-.3.2-.7.3-1,0,0,0-.2.2,0,.3,0,.6.2.9,0,.1,0,.2,0,.2,0v.4c0,.3-.1.5-.1.8v.8h-1.2c-.1,0-.2.2-.1.3v.3s0,.2.1.2.1,0,.1.2v.2c0,.2.1.3.3.2.3-.2.6-.4.9-.6h0c-.1-.3.1-.3.2-.3s.2,0,.1.2c0,.2.2.4.4.4h.4c.1,0,.2,0,.1,0,0-.3-.2-.5-.5-.5s-.2,0-.2-.2v-.4c0-.4.2-.8.4-1.1,0-.3.1-.6.3-.8,0,0,.1-.2.3-.3.3,0,.6-.2.9-.2s.7-.2,1-.5h.1c.2-.2.4-.3.4-.6s0-.3.2-.4v-.2c0-.5.2-.9.2-1.4s.1-.2.2-.3c.4-.2.6-.4,1-.6s.3-.3.4-.5c.2-.4.4-.8.5-1.2v-.3c0-.2.1-.4.4-.4s.4,0,.4-.4.1-.2.2-.3c0,0,.2,0,.2-.3s-.1-.2-.3-.2h-.3c.1,0,.2,0,.3-.3,0,0,.1,0,.2,0s.2,0,.3,0c.1,0,.2-.2.2-.3s-.1,0-.2-.2c-.2,0-.4-.2-.6-.2-.3,0-.5,0-.8,0h-1.3c-.2,0-.5.2-.7.3-.3,0-.6.3-.9.6-.2.2-.4.3-.6.5-.4.3-.8.4-1.2.4s-1,0-1.5-.2c-.3,0-.6-.2-.9-.3-.2,0-.2-.3-.3-.4-.4-.3-.6-.9-.7-1.4,0-.2,0-.3-.2-.4,0,0-.2-.2-.1-.3h0c-.2-.3-.5-.5-.7-.7-.2,0-.3-.3-.5-.4-.1,0-.3,0-.4,0-.1,0-.2,0-.3-.2-.2-.3-.4-.4-.7,0-.1,0-.2.2-.4,0-.2,0-.4,0-.4.3s-.2.5-.3.7c-.2.2-.2.4,0,.6v.3c-.1,0-.3.3-.4.4,0,0-.1.2,0,.3.1,0,.2.2.4.2h.2c.1,0,.2,0,.1.2,0,.3,0,.6.4.7.1,0,.1,0,0,.2,0,0-.1.3-.2.4-.2.6-.5,1.2-.6,1.8,0,.7,0,1.3.4,1.9,0,0,.1.2.2.2.1.2.2.4.3.6.2.4.4.8.8,1,.2,0,.4.3.5.5.6.4.8,1.1,1,1.7v1.6c0,.2-.1.3-.4.2-.4,0-.8-.2-1.3-.2h-.3v.4c.1.2.2.4.5.4s0,0,.1,0h-.1c-.3,0-.4.3-.3.5,0,0,.1.2.2.2.4,0,.7,0,1.1-.2h.1c.1-.2.3-.3.6-.2h0l.2-.6Z"/>
        <path d="M100.1,146.1c0-.2,0-.3,0-.5h0c.2,0,.3.1.2.3v.6h.2c.2,0,.3-.2.3-.4h0c0,.2.2.3.2.5v.4c0,.1,0,.2.3.2s.3-.1.3-.3h0c0-.1,0-.3,0-.3h.3c.1,0,.2.2.3.3,0,.1.3.2.5.4h.7c0-.1,0-.1,0-.1h0c.2-.1.2-.2,0-.4,0,0-.2-.2-.3-.3v-.2c0-.1,0-.2,0-.2h0c-.4,0-.7-.3-1-.6,0-.1-.2-.2-.2-.4h0c.2-.2,0-.2,0-.4v-1.2c0-.3,0-.2,0-.2s0,0,0-.1c0-.2,0-.4,0-.6h0c0-.1.2-.1.2-.2.4-.2.5-.6.5-1s0-.3.2-.3c.3,0,.6-.3.9-.5,0,0,.2-.1.4-.1.4-.2.7-.5,1-.8s.5-.4.7-.7c.3-.3.5-.7.8-1,.3-.4.5-.9.6-1.3,0-.3,0-.6,0-.8s0-.3,0-.5v-.7c0-.4-.2-.8-.2-1.2v-.2c.2,0,.3-.3.3-.5v-.9c0-.1,0-.2-.2-.3,0,0-.2-.1,0-.2,0,0,0-.2.3-.2s.4-.2.6-.2h0c0-.2,0-.1,0-.1,0,0,0,0,0-.1,0,0,0-.1-.2,0,0,0-.3,0-.4-.1h0v-.8c-.2-.2-.2-.5-.2-.8v-.2c-.2-.1-.2-.3-.3-.5,0,0,0-.2,0-.2,0,0-.2,0-.2.2v.3h0s-.3-.2-.3-.3c0,0,0-.2-.2-.2s-.2.1-.2.2h0q0,.1,0,.1h-.2v.2q0,.3-.3.2c0,0-.2,0-.2.1,0,.2,0,.4.2.5h-.2c0,0-.2.1,0,.2h0c0,.2,0,.1-.2.1,0,0-.2-.1-.2,0v.3h0c.2.1.2.3,0,.4-.3.2-.6.5-.8.8-.4.4-.7,1-.9,1.5,0,.2-.2.6,0,.8v.3c0,.1,0,.2,0,.4s0,.2-.2.2c-.4.1-.8.1-1.3,0h-.5c-.3,0-.5-.2-.7-.3-.3-.3-.6-.6-.9-.9,0,0-.2-.2-.4-.2s-.4-.1-.5-.3c0-.1-.2-.2-.3-.3-.3-.2-.6-.3-.9-.4h-2.1c-.2,0-.4.1-.6.1,0,.3-.5.3-.6.6,0,.2-.3.4-.4.7,0,.2,0,.4-.2.7v1.2c0,0,0,0,0-.1,0-.2.2-.4.2-.5,0,0,0-.1,0-.1h0v2.2c0,.2.2.2.3.2,0,0,0,0,.2-.1,0-.2,0-.4.2-.6q0-.1.2,0c.2.2,0,.4.2.5,0,.2,0,.4.2.6,0,.1.2.2.4.2s.2,0,.3.2c.2.4.4.7.9.7h0c.3-.1.3.1.4.3,0,.4.3.7.6.9,0,0,0,.1,0,.1.2,0,.3.3.5.5.2.3.3.6.5.9.2.3.4.4.7.4h.4c.2.1.2.3.2.5,0,.4-.2.9-.2,1.3s0,.6,0,.9v.9c0,.1,0,.2,0,.3,0,0-.2.1-.2,0,0,.1,0,.2,0,.3,0,.1,0,.3.2.4,0,0,0,0,0-.1,0-.2.3-.3.4-.4h0c0,.2.2.4.2.6h0c.2,0,.4-.1.4-.3h-.3ZM100,144.5v-.4c0-.3,0-.5,0-.7s0-.4.2-.6c0-.1,0-.2.2-.2s.3.1.3.2v.3c0,0,0,.2,0,.3,0,.4-.2.8,0,1.2h0v.2h-.2c0,0-.2-.2-.4-.2,0,0,0,0,0-.1h0Z"/>
        <path d="M220.4,80v2.2-2.2Z"/>
        <polygon points="224.2 87.1 224.2 87.1 224.2 87.1 224.2 87.1"/>
        <line class="st5" x1="142.5" y1="418.7" x2="369.6" y2="63.5"/>
        <path d="M137.7,415.8L364.8,60.4l.8.5c-.9-.2-226.6,357.6-227.9,354.8h0Z"/>
        <path d="M133.3,413L360.5,57.6l.8.5c-.9-.2-226.6,357.6-227.9,354.9h0Z"/>
        <path d="M128.9,410.3L356.1,54.8l.8.5c-.9-.2-226.7,357.6-228,355h0Z"/>
        <path d="M124.5,407.6L351.8,52.1l.7.5c-.9-.2-226.7,357.7-228,355.1h0Z"/>
        <path d="M120.1,404.9L347.4,49.3l.7.5c-.8-.3-226.8,357.8-228,355.1h0Z"/>
        <path d="M115.7,402.2L343.1,46.5l.7.5c-.8-.3-226.9,357.8-228.1,355.2h0Z"/>
        <path d="M111.4,399.4L338.7,43.7l.7.5c-.8-.3-226.9,357.9-228.1,355.3h0Z"/>
        <path d="M107,396.7L334.4,40.9l.7.4c-.8-.2-226.9,357.9-228.1,355.4h0Z"/>
        <path d="M102.6,394L330,38.2l.7.4c-.8-.2-227,357.9-228.1,355.4h0Z"/>
        <path d="M98.2,391.3L325.7,35.4l.7.4c-.7-.2-227,357.9-228.2,355.5h0Z"/>
        <path d="M93.8,388.6L321.3,32.6l.6.4c-.7-.2-227.1,357.9-228.2,355.6h.1Z"/>
        <path d="M89.4,385.9L317,29.8l.6.4c-.7-.2-227.1,358-228.2,355.6h0Z"/>
        <path d="M85,383.1L312.6,27l.6.4c-.7-.2-227.2,358-228.2,355.7h0Z"/>
        <path d="M80.6,380.4C137.3,291.6,251.4,112.9,308.3,24.2l.6.4c-57,88-170.7,269.9-228.3,355.8h0Z"/>
        <path d="M76.2,377.7C132.9,288.8,247.1,110.2,303.9,21.5l.6.4c-57,88.1-170.7,269.9-228.3,355.9h0Z"/>
        <path d="M71.8,375C128.5,286.1,242.7,107.4,299.6,18.7l.6.4c-57,88.1-170.8,269.9-228.3,355.9h-.1Z"/>
        <path d="M67.4,372.2C124.1,283.4,238.3,104.6,295.2,15.9l.6.4c-57,88.2-170.8,269.9-228.4,356h0Z"/>
        <path d="M63,369.5C119.7,280.6,234,101.8,290.9,13.1l.6.4C234.4,101.6,120.6,283.3,63,369.5h0Z"/>
        <path d="M58.6,366.8C115.3,277.9,229.6,99.1,286.5,10.3l.5.4C230.1,98.9,116.2,280.5,58.6,366.8h0Z"/>
        <path d="M54.2,364.1C110.9,275.1,225.2,96.3,282.2,7.5l.5.3C225.7,96.1,111.8,277.8,54.2,364.1h0Z"/>
        <path d="M49.8,361.4C106.5,272.4,220.9,93.5,277.8,4.7l.5.3C221.3,93.4,107.4,275,49.8,361.4h0Z"/>
        <path d="M45.5,358.6C102.1,269.7,216.5,90.8,273.5,2l.5.3C217,90.6,103,272.2,45.5,358.6h0Z"/>
        <path d="M41.1,355.9C97.8,266.9,212.1,88,269.1-.8l.5.3C212.6,87.9,98.6,269.4,41.1,355.9h0Z"/>
        <path d="M36.7,353.2C93.4,264.2,207.8,85.2,264.7-3.6l.5.3C208.2,85.1,94.2,266.6,36.7,353.2h0Z"/>
        <path d="M32.3,350.5C89,261.4,203.4,82.4,260.4-6.4l.5.3C203.9,82.3,89.8,263.8,32.3,350.5h0Z"/>
        <path d="M27.9,347.8C84.6,258.7,199,79.7,256-9.2l.5.3C199.5,79.6,85.5,261,27.9,347.8h0Z"/>
        <path d="M23.5,345.1C80.2,256,194.7,76.9,251.7-12l.4.3C195.2,76.8,81.1,258.2,23.5,345.1h0Z"/>
        <path d="M19.1,342.3C75.8,253.2,190.3,74.1,247.3-14.8l.4.3C190.8,74.1,76.7,255.4,19.1,342.3h0Z"/>
        <path d="M14.7,339.6C71.4,250.5,185.9,71.3,243-17.5l.4.3C186.4,71.3,72.3,252.6,14.7,339.6h0Z"/>
        <path d="M10.3,336.9C67,247.8,181.6,68.6,238.6-20.3l.4.3C182.1,68.6,67.9,249.8,10.3,336.9h0Z"/>
        <path d="M5.9,334.2C62.6,245,177.2,65.8,234.3-23.1l.4.2C177.7,65.8,63.5,247.1,5.9,334.2h0Z"/>
        <path d="M1.5,331.5C58.3,242.3,172.8,63,229.9-25.9l.4.2C173.4,63.1,59.1,244.3,1.5,331.5h0Z"/>
        <path d="M-2.9,328.7C53.9,239.5,168.5,60.3,225.6-28.7l.4.2C169,60.3,54.7,241.5-2.9,328.7h0Z"/>
        <path d="M-7.3,326C57.4,224.5,156.9,68.6,221.2-31.5l.4.2C157.9,68.3,57.9,226.8-7.3,326h0Z"/>
        <path d="M-11.7,323.3C59.7,211.1,145,77.6,216.9-34.2l.3.2C145.7,77.7,60.6,213-11.7,323.3h0Z"/>
        <path d="M-16,320.6C55.3,208.4,140.6,74.8,212.5-37l.3.2C141.3,75,56.2,210.2-16,320.6h0Z"/>
        <path d="M-20.4,317.9C50.9,205.6,136.3,72.1,208.2-39.8l.3.2C137,72.2,51.9,207.4-20.4,317.9h0Z"/>
        <path d="M-24.8,315.1C46.5,202.9,131.9,69.3,203.8-42.6l.3.2C132.6,69.5,47.5,204.6-24.8,315.1h0Z"/>
        <path d="M-29.2,312.4C42.1,200.1,127.5,66.5,199.5-45.4l.3.2C128.2,66.7,43.1,201.8-29.2,312.4h0Z"/>
        <path d="M-33.6,309.7C37.7,197.4,123.2,63.8,195.1-48.2l.3.2C123.9,64,38.7,199-33.6,309.7h0Z"/>
        <path d="M-38,307C33.4,194.6,118.8,61,190.8-50.9l.3.2C119.5,61.2,34.3,196.2-38,307h0Z"/>
        <path d="M-42.4,304.3C29,191.9,114.4,58.2,186.4-53.7l.2.2C115.1,58.5,29.9,193.4-42.4,304.3h0Z"/>
        <path d="M-46.8,301.5C26.2,186.6,108.4,58,182.1-56.5l.2.2C109.2,58.2,27.2,188.1-46.8,301.5h0Z"/>
        <path d="M-51.2,298.8C21.8,183.9,104,55.2,177.7-59.3h.2C104.8,55.5,22.8,185.3-51.2,298.8h0Z"/>
        <path d="M-55.6,296.1C17.4,181.1,99.7,52.4,173.4-62.1h.2C100.5,52.8,18.4,182.5-55.6,296.1h0Z"/>
        <path d="M-60,293.4C13,178.4,95.3,49.7,169-64.9h.2C96.1,50,14,179.7-60,293.4h0Z"/>
        <path d="M-64.4,290.7C8.6,175.6,90.9,46.9,164.7-67.6h.2C91.7,47.3,9.6,176.9-64.4,290.7h0Z"/>
        <path d="M-68.8,288C4.2,172.9,86.5,44.1,160.3-70.4h.2C87.4,44.5,5.2,174.1-68.8,288h0Z"/>
        <path d="M-73.2,285.2C-.2,170.2,82.2,41.4,156-73.2h.2C83,41.8.8,171.4-73.2,285.2h0Z"/>
        <path d="M-77.6,282.5C-4.5,167.4,77.8,38.6,151.6-76h.1C78.7,39-3.6,168.6-77.6,282.5h0Z"/>
        <path d="M-81.9,279.8C-8.9,164.7,73.4,35.8,147.2-78.8h.1C74.3,36.3-8,165.8-81.9,279.8h0Z"/>
        <path d="M-86.3,277.1C-13.3,161.9,69,33,142.9-81.6h.1C69.9,33.5-12.3,163-86.3,277.1h0Z"/>
        <path d="M-90.7,274.4C-17.7,159.2,64.7,30.3,138.5-84.3h.1C65.6,30.8-16.7,160.2-90.7,274.4h0Z"/>
        <path d="M-95.1,271.6C-22.1,156.4,60.3,27.5,134.2-87.1h0C61.2,28-21.1,157.4-95.1,271.6h0Z"/>
        <path d="M-99.5,268.9C-26.5,153.7,55.9,24.8,129.8-89.9h0C56.8,25.3-25.5,154.6-99.5,268.9h0Z"/>
        <path d="M-103.9,266.2C-30.9,150.9,51.6,22,125.5-92.7h0C52.5,22.5-29.9,151.8-103.9,266.2h0Z"/>
        <path d="M-108.3,263.5C-35.3,148.2,47.2,19.2,121.1-95.5h0C48.1,19.8-34.3,149-108.3,263.5h0Z"/>
        <path d="M-112.7,260.8C-39.6,145.4,42.8,16.4,116.8-98.3h0C43.8,17-38.7,146.2-112.7,260.8h0Z"/>
        <path d="M-117.1,258C-44,142.7,38.4,13.7,112.4-101.1h0C39.4,14.3-43.1,143.4-117.1,258h0Z"/>
        <path d="M-121.5,255.3C-48.4,140,34.1,10.9,108.1-103.8h0C35,11.5-47.4,140.6-121.5,255.3h0Z"/>
        <path d="M-125.9,252.6C-52.8,137.2,29.7,8.1,103.7-106.6,30.7,8.8-51.8,137.8-125.9,252.6h0Z"/>
        <path class="st7" d="M72,170.6c0-1,7.9-.1,17-.7,14.5-1,15.1-3.1,23.2-1.7,2.1.4,6.4-.7,10.3-2.1,1.3-.5,3.1-2.4,4.1-5.3.5-1.5,0-1.6-1.9-3.1-1.9-1.6-2.2-1.8-3.7-.4-1.1.9-2.8-.3-3.8.6-2.3,2-7.2,1-7.5-.4-.2-.8,1.5-1.1,2.2-3.1.6-1.5-2-2.6-3-4-1.7-2.3-1.9-1.9-4.2-4.2-1.3-1.4-2.1-3.6-1.6-5.5.7-2.6-1.7-3.9-.4-6.5,1.6-3.1-1.7-2.1-2.3-5.3-.8-4.3-.6-5.2-2.8-8-2.9-3.6-2.6-10.6.6-14.3,3-3.4,6.1-1.4,11.5-6.1,1.3-1.1,2.6-2.5,4.3-2.3,2.1.2,3.6,2.4,4.1,3.2,2.1,3.3,1,5.8,2.4,6.5,1.6.8,4.8-1.3,6.4-4.1.9-1.5,1.5-3.5.9-9.3-1-9.2-3.7-14.2-1.8-15.5.9-.7,2.5,0,2.7,0,2,.9,1.8,3.1,4.3,6.5,1.2,1.6,2,2.6,2.9,2.6,1.5,0,1.7-2.7,4.8-5.9,1.6-1.6,1.8-1.3,3.3-2.8,2-2.1,1.9-3.2,3.8-6.3,1.8-2.9,4-6.6,7.1-6.8.3,0,1.7,0,2.8.9.9.7,1,1.6,1.5,5.9.5,4.1.6,5-.1,5.6s-1.7.2-2.9,1c-.6.4-1.4,1.2-2.2,5.6-.5,2.9-.5,4-1.1,7.4-.6,3.3-.9,3.8-1.4,4.3-1.3,1.4-.2,4.4-2.9,5.3-1,.3-2.8.2-4.4,2.9-1.3,2.4-1.5,1.3-1.9,6.4-.4,4.6-4.5,6.2-3.2,8.2.7,1,1.9,1.7,3.1,1.7,2.5,0,4.4-2.7,5.4-4.2,3.3-4.9,1.8-7.6,5.1-12.1,1.5-1.9,1.7-1.3,3.4-3.6,3.2-4.2,2.8-7,5.1-7.8,1-.3,2.4,0,5.1,1.1,2.4.8,3.8,1.4,4.9,2.8.2.3,1.4,1.8,1.2,3.6-.3,3.4-5.3,3.5-9.9,8.2-3.8,3.9-1.7,5.2-6.5,11.4-2.9,3.7-5.4,5.4-5,8.1.3,1.8,1.9,3.6,2.4,4.2,1.2,1.3,1.9,2.1,2.9,2.2,3.3.4,6-6.7,7.7-6.1.9.3.2,2.1,1.1,4.3,1.8,4.3,6.9,3.6,8.5,7.4,1.1,2.5-.1,5.2-1.2,7.6-2.2,5.1-6.5,7.7-7.4,8.2-3.1,1.9-5.6,2.1-10.7,5.4-1.5,1-2.2,1.6-2.1,2.1.2,1.3,4.6,1.2,12.5,2.1,11.1,1.2,13.1,2.4,13.9,4.1.7,1.5.5,3.5-.4,4.1-1.2.7-3.4-1.6-3.8-1.2-.3.4.8,2.8,3.1,4.3,1.3.9,2.3.9,2.8,2,.3.7.4,1.8-.1,2.4-1.2,1.4-5.3.7-7.2-1.6-1.1-1.3-1.3-2.8-1.8-2.7-.6,0-.4,1.9-1.6,2.8-1.6,1.2-4.7-.2-5.9-.7-3.9-1.8-5.4-4.4-5.9-4.1-.5.4.4,4.2,3.2,6,1.8,1.2,3,.6,4.8,2.1.9.8,2.5,2.5,2.1,3.8-.6,1.9-5.7,2.9-8.9,1-1.3-.8-1.4-1.5-4.7-6.3-.2-.3-3.5-5.1-3.8-4.9s3.5,4.6,2.3,8.9c-.7,2.8-3.3,4.9-4.3,4.4-1.3-.6,1.1-5.6-1.6-8.5-.9-1-2.2-1.5-2.6-1.6-1.4-.5-2.1-.2-4.4-.6-1.9-.3-1.7-.6-3.1-.7-2.6-.3-5,.4-5,.9s3.5,0,5,2.1c.6.8.7,1.9.9,4.1.1,1.8.2,2.6-.2,3.1-.9.9-3.6,0-5.3-1.4-2.4-2-2.5-4.6-3.7-4.6s-1.4,1.5-1.5,1.6c-.4,1.1,0,1.8.5,4.5.7,3.3.7,4.1.5,4.8-.4,1.2-1.1,2-1.5,2.3-.2.2-2.2,2.1-3.3,1.6-.9-.4-.4-2-.7-5.9-.3-3.3-.4-5-1.1-6.5-.9-1.8-1.9-2.7-1.8-4.5,0-1.3.7-2.1.5-2.2-.3-.1-2.1,2.3-3.6,4.4-1.3,1.8-2,2.8-2.6,2.7-.8-.2-.6-2-1.5-2.2-.8-.2-1.9,1.3-2.3,2-1.3,1.9-1.1,2.7-2.2,4.9-1.1,2.1-2.4,3.4-3.1,4.1-1.4,1.4-2.4,2.4-3.3,2.1-1.3-.4-2.1-3.3-1.3-5.6.5-1.6,1.4-2,2.2-4.5.3-1.2.4-1.9,0-2.6-.3-.8-1.1-1.8-1.8-1.7-.9.1-.8,1.9-2.1,4.9-.4.8-1.1,2-2.4,4.4-1.5,2.6-2.3,3.9-2.9,4.7-2.1,2.4-2.8,1.8-4.1,3.8-1,1.6-1,2.8-2.3,3.4-.9.5-1.8.4-2.2.4s-2.2-.1-2.9-1.2c-1.1-1.6.3-4.7,2.3-6.3,1.5-1.2,2.2-.6,3.4-1.8,2.1-2,1.9-4.9,1.8-5.1,0-.9-.4-2.7-1.2-2.8-.8-.1-1.2,1.6-3.4,3.6-1.1.9-1.9,1.7-2.8,1.5-1-.2-1.7-1.5-1.8-2.6-.2-1.8,1.3-2.9.9-3.6-.4-.5-1.5,0-3.8.1-2.1,0-3.8.2-4.5-.9-.8-1.1-.5-3.3.7-4.3,1.3-1,2.4.2,4.4-.7,1.7-.8,1.7-2.1,3.7-2.7,1-.3,1.8-.2,1.8-.5,0-.5-3.1-.5-4.2-2.4-.5-.9-.6-2.2,0-2.9.9-1,3.1-.6,3.1-.5s-3.7,1.8-7.2.5c-.7-.3-2.8-.6-2.8-1.1h0l-.2-.3Z"/>
        <path class="st7" d="M193.5,98.7c1-.4,2.6-.7,4.6-.9v-.3c0-1.3,2.1-2.3,4.7-2.3s.6,0,.9,0c1.2-1.3,4.4-2.2,8.2-2.2s7.6,1.1,8.5,2.6c.7,0,1.4-.2,2.2-.2,3.2,0,5.7,1,5.7,2.2h2.5c3.4,0,6.2.6,6.2,1.4s0,.2-.1.3c2.5.3,3.9.7,3.9,1.1s-1.1.7-3,1h-.7c-5.6,0-11.1.3-16.7.3s-.9,0-1.4,0c-1.8,0-3.6,0-5.3.2s-3.5.4-5.3.3c-1.6,0-3-.4-4.6-.7h-5.3c-1.7,0-3.5.2-5.2.3h-5.4c-.6,0-1.3,0-1.9-.2-1.8-.3-2.8-.6-2.8-1,0-.7,4-1.3,10.2-1.7h.1Z"/>
        <rect class="st7" x="201.2" y="144.9" width="20.6" height="10.4"/>
        <rect class="st7" x="188.5" y="157.6" width="45.7" height="8.2"/>
        <rect class="st7" x="224.7" y="148.4" width="5.3" height="9.9" rx="2.3" ry="2.3"/>
        <rect class="st7" x="218.3" y="146.9" width="5.3" height="11.1" rx="2.3" ry="2.3"/>
        <rect class="st7" x="199.5" y="146.9" width="5.3" height="11.1" rx="2.3" ry="2.3"/>
        <rect class="st7" x="193.1" y="148.4" width="5.3" height="9.9" rx="2.3" ry="2.3"/>
        <path d="M189.4,159.1c0,.9.1,1.9.2,2.8.1,0,.3,0,.4.1.4-.8.7-1.5,1.1-2.3.2,0,.3.1.4.2.4.7.8,1.4,1.2,2.1.5-.7.9-1.5,1.5-2.4.4.9.7,1.7,1.3,2.9.6-1.1,1.1-1.9,1.6-3,.4,1,.7,1.7,1.2,3,.6-1.1,1.1-1.9,1.6-2.9.4.9.8,1.7,1.3,3,.6-1.1,1-1.9,1.5-3,.4,1,.8,1.8,1.3,3,.6-1.1,1-1.9,1.6-2.9.5,1,.8,1.7,1.4,2.9.6-1.1,1-1.9,1.5-2.9.5,1,.9,1.8,1.4,3,.6-1.2.9-1.9,1.4-3,.5,1,.9,1.8,1.5,2.9.5-1.1.9-1.9,1.4-2.9.5,1,.9,1.8,1.5,2.9.5-1.1.9-1.9,1.4-2.9.5,1,.9,1.8,1.5,2.9.6-1.1.9-1.9,1.4-2.9.5,1,.9,1.8,1.5,2.9.6-1.1.9-1.9,1.4-2.9.5,1,.9,1.8,1.4,2.9.6-1.1,1-1.9,1.5-2.9.5,1,.9,1.8,1.5,3,.6-1.2.9-2,1.4-3,.5,1,.9,1.8,1.5,3,.5-1.2.9-2,1.4-3.1.5,1,.8,1.8,1.2,2.6,1.4-.6-.6-2.9,1.9-3-.1,1.3-.2,2.5-.4,3.9-2.3-.5-1.7,1.8-2.8,2.7-.4-.9-.7-1.7-1.2-3-.6,1.2-1.1,2-1.6,3.1-.4-1.1-.8-1.9-1.3-3.2-.6,1.2-1,2-1.6,3.2-.5-1.1-.9-1.9-1.4-3.1-.6,1.2-1,2-1.5,3.2-.4-1.1-.8-1.9-1.3-3.2-.6,1.2-1,2-1.6,3.2-.5-1.1-.9-1.9-1.4-3.2-.6,1.2-.9,2-1.4,3.2-.5-1.1-.9-1.9-1.5-3.2-.5,1.2-.9,2-1.4,3.1-.5-1.1-.9-1.9-1.5-3.1-.6,1.1-.9,2-1.5,3-.5-1.1-.9-1.9-1.5-3-.6,1.2-.9,2-1.4,3.1-.5-1.1-.9-2-1.4-3.2-.6,1.2-.9,2.1-1.5,3.2-.5-1.1-.9-1.9-1.4-3.2-.5,1.2-.9,2.1-1.4,3.3-.5-1.1-.9-2-1.5-3.2-.6,1.3-.9,2.1-1.5,3.2-.5-1.1-.9-1.9-1.4-3.2-.6,1.2-1,2.1-1.5,3.2-.5-1.1-.9-1.9-1.4-3.3-.6,1.2-.9,2.1-1.4,3.3-.5-1.1-.8-1.9-1.4-3.2-.6,1.2-1,2-1.4,2.9-1.2-.7-.4-3.3-2.6-2.5-.8-3.4-.8-3.7.7-3.8h0v-.3Z"/>
        <path d="M222.1,146.9h-21c0-1.7-.9-3.7,2-3.8.2,0,.6-.8.7-1.3.3-2.2.6-4.4.8-6.5.1-1.2.7-1.8,2-1.8h9.7c1.5,0,2.1.6,2.2,2,.2,2.1.5,4.1.7,6.2.1.9.3,1.5,1.5,1.6,2.2.3,1.1,2.1,1.4,3.6h0ZM218.2,143.1c-.3-2.5-.6-4.8-1-7-.1-.5-1.1-1.1-1.7-1.2-2.6-.1-5.2-.1-7.9,0-.6,0-1.6.7-1.6,1.2-.5,2.2-.7,4.6-1,7h13.2Z"/>
        <path d="M188.2,156.8c2.5,0,5.1.1,7.6,0,1.8-.1,3.6-.4,5.3-1,3-1,5.9-2.3,8.9-3.3.9-.3,2-.1,2.9,0,.7,0,1.4.4,2.1.8,5.8,2.7,11.8,4.2,18.3,3.6.5,0,1.1.4,1.6.6-.6.3-1.1.8-1.7.8h-43.6c-.8,0-1.9.2-1.5-1.5h0ZM218.5,156.8c-4.7-2.8-10.7-2.7-13.4,0h13.4Z"/>
        <path d="M216.4,153c-3.3-2.1-6.4-2.3-9.6,0-.2-1.9-.4-3.4-.6-5h10.7c-.1,1.5-.3,3-.5,4.9h0Z"/>
        <path d="M229.8,151.3c-.8-.5-1.4-.9-2-1.2l-.3.3c.8,1,1.6,1.9,2.5,2.9l-.3.3c-.6-.4-1.3-.7-1.9-1.1-.1,0-.2.2-.3.2.4.5.7,1,1.1,1.4.4.5.9.9,1.4,1.3-.1.1-.2.3-.3.4-.6-.4-1.2-.7-2-1.2v1.1h-1.9c.5-.7,1-1.3,1.5-2,0-.1-.1-.2-.2-.3-.7.4-1.4.7-2,1.1,0,0-.2-.2-.2-.3.8-.9,1.7-1.9,2.5-2.8,0-.1-.2-.2-.3-.4-.7.4-1.3.8-2,1.2,0,0-.2-.2-.3-.2.9-1,1.7-1.9,2.6-2.9,0-.1-.2-.2-.3-.4-.7.4-1.3.8-2.1,1.2.4-1.7,1.3-2.2,3.3-1.9,1.7.3,1.9,1.5,1.6,3.1h0v.2Z"/>
        <path d="M198.2,151.3c-.7-.4-1.4-.8-2-1.2l-.3.3c.8.9,1.6,1.9,2.5,2.8l-.2.3-1.9-1.1c-.1.1-.2.2-.4.3.8.9,1.6,1.9,2.4,2.8l-.3.3c-.6-.4-1.2-.7-1.9-1.2,0,.4-.1.6-.2,1.1-.5,0-1.1,0-2.1.1.6-.8,1.1-1.4,1.6-2.1,0-.1-.2-.2-.2-.3-.7.4-1.3.8-2,1.1,0,0-.2-.2-.3-.2.8-1,1.7-1.9,2.5-2.9l-.3-.3c-.7.4-1.3.8-2,1.2l-.3-.3c.9-1,1.7-1.9,2.6-2.9l-.3-.3c-.7.4-1.3.8-2.2,1.3.6-2.3,2.2-2.1,3.6-1.9,1.7.2,1.8,1.5,1.6,3.1h0Z"/>
        <path d="M218.3,152c.9-.9,1.7-1.9,2.5-2.8,0-.1-.2-.2-.3-.4-.6.4-1.2.7-2.2,1.3.4-2.1,1.8-2,3.1-1.9,1.6,0,2.1.8,2,3.1-.8-.4-1.4-.8-2.1-1.2l-.3.3c.9.9,1.7,1.8,2.5,2.8,0,.1-.1.2-.2.3-.7-.4-1.4-.7-2.1-1.1,0,.1-.2.2-.3.3.7.8,1.5,1.6,2.5,2.7-1.1-.4-1.8-.6-2.6-1-.6-.3-1.1-.6-1.7-1,.4-.5,1-1.2,1.6-2l-.3-.3c-.6.4-1.3.8-1.9,1.1l-.3-.3h.1Z"/>
        <path d="M201.8,151.2c-.7.4-1.4.8-2,1.2l-.3-.3c.9-1,1.7-1.9,2.6-2.9-.1-.1-.2-.2-.3-.4-.6.4-1.3.7-1.9,1.2.3-1.6,1.1-2.1,3-1.8,1.8.2,2.1,1.4,1.9,3.1-.8-.4-1.4-.8-2.1-1.2l-.3.3c.9.9,1.7,1.9,2.5,2.8l-.2.3c-.7-.4-1.3-.8-2.4-1.3.4.9.6,1.3.8,1.9-.4.2-.8.3-1.3.6v-1.3c-.8.5-1.4.9-2.1,1.2,0,0-.2-.2-.2-.3.9-1,1.7-1.9,2.6-2.9l-.3-.3h0Z"/>
        <path class="st7" d="M218.2,143.1h-13.2c.3-2.4.6-4.7,1-7,.1-.5,1.1-1.2,1.6-1.2,2.6-.1,5.2-.1,7.9,0,.6,0,1.6.7,1.7,1.2.5,2.2.7,4.6,1,7h0ZM214.7,142.3c.4-1.6,0-2.4-1.7-2.2h-2.8c-1.7-.1-2.2.6-1.8,2.2h6.3Z"/>
        <path class="st7" d="M218.4,156.8h-13.4c2.7-2.7,8.7-2.8,13.4,0Z"/>
        <path d="M214.7,142.3h-6.2c-.4-1.7,0-2.4,1.8-2.2h2.8c1.8-.1,2.2.7,1.7,2.2h-.1Z"/>
        <path d="M214.2,136.9c-.1-.1-.3-.1-.4-.1q-.3,0-.4-.3v-.3c0-.3-.3-.5-.6-.5h-.9c-.2,0-.4.2-.5.4-.1.1,0,.2,0,.3v.3c.1.2,0,.4,0,.6h0v.6s0,.2-.1.3c0,.1-.1.3-.1.4h0q0,.1-.1.1h-.2c-.2.1-.4.2-.6.4-.2.1-.3.3-.4.5h2.6c0-.2-.1-.4-.1-.6v-.2c0,0,.1,0,.2.1v.6h0c.4,0,.8.1,1.2.2v-.4c0-.2-.1-.4-.2-.6,0-.3-.3-.7-.6-.8,0,0-.1,0-.1-.1h.2l.2.2c0,.1.2.2.4.1.2,0,.2-.1.2-.3v-.2c.2-.2.2-.5.1-.8h0c0-.1,0-.2.1-.1h.5c0-.1,0-.2-.1-.3h0l-.3.5ZM212.1,138.2h-.4c.1-.1.1-.2,0-.4v-.2s0-.1,0,0h0s0-.1.1,0c0,0,.2,0,.1.1-.1.2,0,.4.2.5,0,0,.1,0,0,.1h0ZM211.9,136.9q-.2,0-.2-.2c0-.3.2-.3.4-.4h0c.1,0,.2-.1.3-.1s0,.2.1.3c0,0,0,.1.2.1,0,0,.1,0,.1.1h-.3c-.2,0-.4,0-.6.1h0ZM212.9,137.4c-.2.2,0,0-.1,0h-.2s-.1,0-.1.1c0,0,0,.1.1.1h0s0,.1-.1.2h-.1l-.2-.2c-.1-.3,0-.4.3-.4h.3s.2,0,0,0h0v.2Z"/>
        <path class="st7" d="M92.5,91.6c0,1,0,1.5-.4,1.8-1.2,1.3-5.9,1.9-8.2,1.5-.2,0-1-.2-1.3,0-.4.2,0,.6,0,1.1-.2.9-2.3,1.4-2.9,1.6-3.4.9-4.8-.4-8.2.2-2.8.5-2.8,1.5-5.7,1.8-1.3,0-1.6,0-4.2-.3-5.3-.4-5.5.2-8-.3-3.3-.7-3.2-1.9-6.6-2.4-1.8-.3-2,0-4.9,0-3.3-.2-3.4-.7-6.6-1-4.4-.4-5.4.4-8.6-.3-1.1-.3-3.5-.8-3.9-1.9s1.1-2.2,2.6-2.9c3.1-1.3,5.5,0,10.5-1.1,2.2-.5,2.8-1,4.7-1.1,2.5,0,3.2.8,4.9.6,2.2-.4,1.7-1.9,4.1-2.5,2.2-.6,5.5,0,6.7,1.1.5.4.5.8,1.1,1,1,.2,2.3-.5,3-.8,1.7-.9,1.6-1.5,2.6-2,2.4-1.4,7.3-.6,9.7,0,1.3.3,3.2.9,3.7,1.9.3.8-.3,1.2.2,1.7.4.3,1,.4,4.2.2,4-.2,4.7-.4,5.7,0,1.3.5,1,1.3,2.3,1.5,1.4.2,2.1-.2,2.8,0,.4.2.8.2.8,1h0v-.4Z"/>
        <path class="st7" d="M42.9,53.5c.2.4.7.9,4.3,1.4,1.7.2,3.2.3,3.2.6s-1.2.2-1.3.7c0,.4.8,1.1,1.7,1.4,1.3.5,1.7,0,2.8.3,1,.4.8,1,2,1.8.2,0,1.2.8,2.5.9,1.1,0,1.8-.2,3.7-.8,1.8-.5,2.7-.8,3.7-.9,2.7-.3,3.3.5,5.9,0,.7,0,2.7-.5,2.8-1.4,0-.6-.7-1.2-1.2-1.5-1.3-.8-2.8-.3-2.8-.5s.8-.7,1.8-.9c1.9-.5,2.6,0,3.8-.5.7-.3,1.5-1,1.4-1.6,0-.5-1.2-.8-2.3-1-1.6-.3-2,0-2.9-.5-1-.5-.8-1-1.6-1.3-1.3-.6-2.5.3-4.5.8h-.4c-.4,0-.8.2-1.2.4,0,0-.2,0-.3.2-.4.2-.8.3-1.2.3h-1.4c-.5,0-1-.2-1.5-.4,0,0-.2,0-.3,0,0,0-.2,0-.3,0,0,0-.2,0-.3,0-.4,0-.8-.3-1.3-.5-.2,0-.5-.2-.7-.2-1.2-.2-1.8-.3-3.4-.3-4.2,0-3.5,1-8,1.3-.7,0-2,0-2.6,1-.3.4-.3,1.1,0,1.6h-.1Z"/>
        <path class="st7" d="M228.6,81.4c-3.9,0-2.8.2-7.3.3-6,0-8.4-.3-15.6-.6-9.5-.4-7.9.2-12.8-.3-7.9-.8-8.9-1.9-14.9-1.7-2.1,0-4.9.3-5-.3,0-.5,1.4-1.3,2.4-1.7,2.7-1.1,4.9-.7,6.7-.5,4.5.6,9.9.8,10,.3,0-.3-2.1-1.3-4.4-1.7-3.3-.5-4.7.6-7.1-.6-.9-.5-2.4-1.5-2.3-2.2.4-1.9,13.7-.2,15.1,0,3.2.4,10.3,3.2,13.9,1.7,1.9-.7-2.5-3.3-.6-4,5-2,9.7-.7,12,0,3.1.9,3,1.6,6.6,3.1,4.1,1.7,2,0,13.9,2.2,5.9,1.1,12,3.1,12,3.7s-2.9,1.4-4.4,1.7c-6.4,1.3-10.6.6-18,.6h-.2Z"/>
        <path class="st7" d="M59.6,74.4c3.2.8,9.3-1.9,11.3-1,3.8,1.8,2.4,4.6,9,3.1,1.6-.3,10.6-2.2,19.3-2.5,4.7,0,3.2-1.7,11.5-1.1,5.9.4,10.9,1.5,12.1-.8.3-.7,7.2-.6,6.6-1.5-.6-.8-1.8-.9-2.3-.9-7.8-.4-19.6-.5-19.6-.5-5.2,0-9.9-.8-9.9-1.1s5.3-1.1,11.3-.8c4.3.2,7,.9,7.7-.3.7-1.2-7.4-1.3-7.6-1.6-6-7.4-17.9,2.5-49,4.2-3.7.2-13.6-1-13.8.5,0,1.2,3.9,2.9,7.3,3.6,2.8.6,3.5,0,6.2.6h0Z"/>
        <path class="st7" d="M219.8,52.7c-.4.6-1.4,1.4-8.4,2.1-3.2.3-6.1.5-6.2.9,0,.3,2.2.3,2.4,1s-1.6,1.7-3.2,2.1c-2.5.7-3.3-.2-5.4.5-1.9.6-1.6,1.5-3.9,2.6-.4.2-2.3,1.2-4.9,1.4-2.2.2-3.4-.3-7.1-1.1-3.5-.8-5.2-1.2-7.1-1.4-5.2-.5-6.5.8-11.5,0-1.4-.2-5.3-.8-5.5-2.1-.2-.9,1.3-1.8,2.3-2.2,2.6-1.1,5.4-.4,5.5-.8,0-.3-1.5-1-3.6-1.4-3.6-.7-5,.2-7.5-.8-1.4-.5-3-1.6-2.8-2.4.2-.8,2.3-1.2,4.4-1.5,3.1-.5,3.9,0,5.7-.8,1.9-.7,1.6-1.4,3.1-2,2.5-.9,4.8.5,8.8,1.1.3,0,.5,0,.8,0,.8,0,1.6.3,2.4.6.2,0,.4.2.6.3.7.3,1.6.4,2.4.5h2.8c1,0,2-.3,2.9-.6.2,0,.4,0,.6-.2.2,0,.4,0,.6-.2.2,0,.4,0,.7-.2.8-.2,1.6-.4,2.4-.7.5-.2.9-.2,1.4-.3,2.3-.3,3.5-.5,6.6-.5,8.1,0,6.7,1.5,15.6,1.9,1.3,0,4,.2,5,1.5.5.6.7,1.6.2,2.4h0v.2Z"/>
        <circle class="st7" cx="129.3" cy="47.7" r="16.6"/>
        <path class="st7" d="M123.7,49.9c0,0,0-.2,0-.3,0,0,.2-.2.3-.4-.2,0,0-.5-.5-.3v-.3c0-.2,0-.3-.3-.2h-.2c-.2,0-.3,0-.4-.2h0c-.2,0-.4-.2-.7-.3,0,0,0-.3,0-.4s0-.2-.2-.2c0-.2,0-.4-.3-.5,0,0,0,.2,0,.2,0,0,0-.2-.2-.3h0v-.2h0c0-.5,0-.9,0-1.3s0-.5,0-.6c0-.2-.2-.5-.3-.7h.4s.2-.2.2-.3h0c.3.1.4,0,.4-.3h-.2c0,0,.2-.2.4-.2h-.2.3c0-.1.2-.2.3-.5h-.4c-.3.2-.6,0-.8,0h-.3c0,0-.3,0-.4-.2-.2-.2-.4-.3-.7-.5,0,.3,0,.6.4.5h0c.2,0,.2.9,0,1-.4.2-.6.5-.5.9h0q0,0-.2-.1c0,0,0,.3-.3.2v.6h-.3c0,.2-.2.4,0,.5h-.8c0,0-.3-.2-.5-.3,0,0-.2,0-.3,0,0-.2,0-.4-.3-.5,0,0-.3-.2-.5-.2h-.2c0,0-.3.2-.4.4,0,0-.3.3-.4.4,0,.6-.2,1.1,0,1.7,0,0,0,0,.2-.2,0,.2.2.3.3.5,0,.2,0,.4,0,.7v.3h0c0,0,0,.4-.2.3-.2,0-.2-.3-.3-.5v-.4h0c0,0,0,.2,0,.3,0,0-.2-.2-.2-.3-.3.3-.5.6-.6.9,0,0,0,.3-.4.2,0,0-.2,0-.2,0v.4c0,.3.2.7.3,1.1,0,0,0,.2,0,.3.4.2.3.5.3.8s0,.5.2.8c0,.2.2.2.4,0,0,.3,0,.6.2,1,0-.2-.2-.3-.3-.4s-.2-.2-.3-.2c0,.4,0,.5.3.5h0c.3.3.2.7.2,1s0,.3.2.5h0c0,.4,0,.6,0,.9,0,0,.2,0,.2.2h0c0,.3,0,.5.2.8-.2,0-.4.5-.7,0,0,0,0,.2-.2.3-.4-.5-.7-1-1.1-1.5h0l.2.2c-.2-.5-.2-1-.6-1.3v.2c0-.7-.3-1.4-.4-2h0c0,0,0,.2,0,.3,0,.3.2.7.2,1,0-.2-.2-.5-.2-.7,0-.3,0-.5-.2-.8s0-.5,0-.8v-1.6.4h0v-3.5h0v1.2s0,0,0-.2v.7s0,0,.2,0v-.5h0c0,.4.2.7.2,1.1v.3s0,.2-.2.3c0,0,0,0,0,.2h0c0,.4.2.7.3,1.1,0,.3.3.7.4,1s.2.7.4,1c.2-.4,0-.9,0-1.3,0-.3-.4-.6-.2-1v-.2c-.2-.4,0-.8,0-1.1v-.2.2h0c0-.6,0-1,0-1.5h0c-.4-.3,0-.6,0-.9h0c0-.3,0-.4.2-.6,0,0,0-.2,0-.3q0-.2.4-.3h0v.3h0c0,0,0,0,0,.1.2-.3-.2-.7.3-.8,0-.4,0-.8.2-1.1v-.7h0c.3-.2.6-.2.8-.3v.6c.2-.2.5-.3.8-.2.4-.7,1.2-.8,1.9-1,0,0,0,0,0,.2h.3c-.2-.3,0-.5.3-.7,0,0-.3.2-.4.2,0-.2-.2,0-.4,0,0-.2,0-.3,0-.5.2,0,.4.2.6,0,0,0,0-.2-.2-.3h.4c0,0,0-.2-.2-.4h.2v-.2c0-.2.2-.3.2-.5s0-.4.2-.6c0,0,0-.2.2-.4s0-.3,0-.4h.2c-.2-.1-.2-.3,0-.5,0,0,.2-.2.3-.3h.2c.2,0,.3,0,.4-.3.3-.5.7-1,1.3-1.2,0,0,0-.2.3-.2s.4,0,.5,0,.4.2.3.5c0,0,0,0,.2,0,.2,0,.4,0,.6,0h.3s0,0-.2.2c0,0,.3.2.3,0,0,0,0-.2.2-.3s0-.2.2-.3l.4-.2h.3v.5h-.3.2c0,0,0,.3,0,.3,0,.2,0,.5,0,.7.3.2.3.4.2.7h.2s.2,0,.2.2c0,0,0,.2,0,.3s-.3.2-.5.3c0,.2,0,.4,0,.6v.6s0,0-.2.2v.3h.2-.3s0,0-.2,0h.6v.4h.2c.2-.2.2,0,.2,0v.2c.2-.2.3-.3.5-.5v-.2s.2,0,.2-.2v-.2h0s0,0,.2.2c0,.2.2.3.3.5h.2v-.4h0c.1,0,.2.2.3.2h.8c-.1,0-.2.2-.3.2-.2,0-.3.2-.1.4,0,.2.2.3.1.5-.1.3,0,.5.3.7s.6,0,.8.2h.1c.2,0,.4.3.7.3-.3.2-.5.3-.7.4-.1,0-.3,0-.5-.2,0,.5-.1.7-.5.7,0,0,.1.2.2.3.2,0,.3-.2.4-.2.1,0,.2.2.3.3s.2.2,0,.4h0c-.1.4-.2.8-.3,1.2v.2h0c0,0,0,.2.1.3,0,0,.1,0,.1-.2h0c0,0,.3,0,.3,0,0-.2,0-.5.1-.7,0,0,0,0,.1,0h.4v.2q-.1.3.1.3c-.1-.2-.1-.3,0-.4.2,0,.3-.3.5-.4v-.7c.2,0,.3,0,.4,0,0,.2.2.4.4.3h.2c.4,0,.6.3.9.6,0,0,.2,0,.3.2.3,0,.5.3.8.5,0,0,.2,0,.2-.2.1-.2.2-.2.4,0h.3c.2.2.2.3.2.6v.6c0,.2,0,0,.1,0h.2c.1,0,.2-.2.3-.3h0c0,.2-.1.5-.2.8,0,.2.1.3.3.3,0,.3-.1.6-.3.8s-.5.3-.8.2v.3q-.2-.2-.2-1h.2s.2.2.2,0c.1,0,.2-.2.4-.3-.4-.6-.5-.6-.6-.3-.1,0-.2,0-.3,0v.3s-.2.2-.4.3q-.3.3,0,.5c-.1.2-.2.3-.3.5h-.2c-.1,0-.3,0-.4-.2-.2.3-.1.3.5.5-.4.2-.8.4-1.2.6.1,0,.2,0,.4.2-.1,0-.2,0-.3,0h.2c-.2,0-.4,0-.6.2v.2c-.4,0-.5,0-.6-.4,0-.2-.2-.3-.3-.4v1c-.2-.2-.3-.3-.4-.5,0,0-.1,0-.2,0h0c.2-.3.1-.4-.1-.5-.1,0-.3-.2-.2-.4v-.2h-.1v.2c-.1-.2-.2-.4-.3-.5,0,0-.1-.2-.2-.2-.2.2,0,.5-.5.5v-.7c.1-.2.2-.4.3-.5-.1,0-.2,0-.3-.2-.1,0-.2-.2-.3-.4,0,0-.1-.3-.3-.4,0-.4.5-.6.4-1.1h-.4s.2,0,.2-.2v-.3s0-.2-.1-.2c0,.2-.2.3-.2.4,0,.2-.1.4-.2.6-.2,0-.5-.3-.7-.4,0,0-.2.2-.3.3v-.3c-.2,0-.4,0-.7.2h0c0-.3,0-.5-.3-.5h-.4c-.2,0-.3,0-.4,0,0,.2,0,.4-.2.5,0,.3-.3.3-.4.5,0,.2,0,.5,0,.7,0,0-.3.2-.5.3-.2,0-.4,0-.2.3,0,0-.2.3-.4.3h-.2l-.2.4ZM119,42.5s0,0-.2.2c0,0,0,.3,0,.4,0,.2,0,.3.4.3h.5v-.3c0,0,0-.2,0-.3,0,0,.2,0,.3-.2,0,0,0-.2-.2-.2,0,0-.2,0-.3,0,0,0-.2,0-.4-.2h0v.2ZM113.8,52.5c0,0,.2,0,.4.2,0-.2,0-.4,0-.5h0c0,0,0,.2-.2.4h-.1ZM122.8,42.7c0,0,.2,0,.3,0h0s0-.2-.2-.3c0,0,0,.2-.2.3h0ZM128.3,47.4q0,.2-.1.4h.3s-.1-.2-.2-.3h0Z"/>
        <path class="st7" d="M120.2,34.7v.2c-.2.2,0,.2,0,.3-.3,0-.7.2-.7.6,0,0,0,0-.2,0,0,0-.3.2-.3.3,0,.2-.2.3,0,.6,0,0-.2.3-.2.5,0,.2-.2.5-.3.8h0c-.3,0-.4.4-.6.6,0,0-.2.3-.4.4,0,0-.2.2-.3.3h-.2c0,.3,0,.6,0,.8,0,.2.2.5.5.4h0c0,.2,0,.5-.2.7s-.3.5-.5.6c-.2.2-.4.4-.6.5s-.4,0-.6,0h-.3c0,0,0-.3,0-.4-.3.2-.7.4-1,.6h0v-.5h0s0,.2-.2.3h0c.5-1.1.9-2.2,1.5-3.3.6-1,1.3-2,2.1-2.9.8-.9,1.8-1.6,2.8-2.3-.2.3-.4.5-.7.8h0s.2,0,.3,0v.2c.2,0,.4-.2.6-.2h-.3ZM116.3,39.4c-.2,0-.3,0-.4.2v.2s.2,0,.3,0,0-.2,0-.3Z"/>
        <path class="st7" d="M133.6,40.6v.6c.2,0,.5,0,.7-.2h.1c.3-.1.3-.3,0-.6v-.4c.1,0,.2,0,.3,0h.2c0,.3.2.2.4.2s.3,0,.4.2.3,0,.5,0,.3,0,.2.2c.3.2.6.3.9.5-.1.2-.5.2-.4.5.1,0,.2,0,.3-.2q.2,0,.3.2c0,.3,0,.5.1.8-.1,0-.2.2-.3.2h-.4q-.4,0-.4.4c0,.2-.2.5-.4.5-.1,0-.2.3-.4.3s-.4.2-.5.2h-.2c-.2,0-.4,0-.6,0h-.7s-.2-.2-.3-.2c-.3,0-.2-.3-.4-.5s-.4-.4-.5-.7v-.3c0-.3,0-.5.4-.7h-.1c-.1,0-.2-.2-.3-.2,0,0,.1-.4.2-.4.4-.2.6-.5.8-.9h.1v.3Z"/>
        <path class="st7" d="M144.1,48.2c-.1,0-.5,0-.1.5h-.2s-.1.2-.2.3c-.1,0-.2-.2-.3-.4,0,.2,0,.4-.1.5-.1.2-.3.2-.5.3-.2-.3-.2-.5,0-.6h0v-.2c-.2,0-.4.3-.7,0v.3c-.2-.4.2-.6,0-.9.1,0,.2-.2.4-.3,0,.2.1.3.2.5,0-.2.4-.3,0-.4v-.7c0-.3,0-.6.4-.6h.7c.2,0,.3,0,.3.2s0,.4.1.7v.7h0Z"/>
        <path class="st7" d="M141.8,43.1v-.3h-.2c-.1-.2-.2-.3-.3-.5s0-.4.3-.4l-.2.2h.3c0,0,0,.2.1.3.1.3.3.6.6.6,0,0,.1,0,.2.2.2.2.4.3.7.3,0,0,0-.2.1-.4h0s.1.2,0,.3c-.1.2,0,.3,0,.5.1.2,0,.4-.2.6,0-.2-.1-.4-.2-.6h0v.3q0,.2-.3.2c-.2,0-.3-.3-.6-.3h-.8s.1-.2.2-.3v-.4h-.3c0,0,0-.2.1-.4,0,0,.1,0,.2,0h.3Z"/>
        <path class="st7" d="M137.9,44.8c.1,0,.3.2.4.4h-.1c0,.2-.2.4-.1.5.1.3-.1.3-.3.4v-.4c-.2,0-.3.2-.5.4,0,.2.2.3.3.6q-.4,0-.5-.4v-.4c.2-.2.4-.4.5-.6,0,0,0,0,.1.2h0c0-.2,0-.4.1-.6h.1Z"/>
        <path class="st7" d="M136.4,47.8c.2,0,.3-.2.4-.5.2,0,.3,0,.5,0,.4.3,0,.5,0,.8,0,0-.1,0-.2,0,0,0-.1,0-.1-.2s0-.2-.2-.2c-.2,0-.3,0-.3-.2h0Z"/>
        <path class="st7" d="M127.3,53.8c.3.2.7.3.8.8-.3.3-.4.2-.7,0,0,0-.2-.2-.3-.3,0,0,0-.2.2-.4Z"/>
        <path class="st7" d="M142.1,50.1s0-.2.1-.2h.6c-.1.2-.2.4-.4.5h-.3s0,0-.1-.2h0Z"/>
        <path class="st7" d="M131.2,45.4c-.4.2-.6,0-.9,0v-.2h.4c.2,0,.3.2.5.3h0Z"/>
        <path class="st7" d="M137.2,62.6c.2-.4.6-.6.9-.4-.2.3-.6.2-.9.4Z"/>
        <path class="st7" d="M114.2,54.7c.3.6.6,1.2.9,1.8h0c-.3-.6-.6-1.2-.9-1.8h0Z"/>
        <path class="st7" d="M142.5,45.4v-.2c0,0,0-.3-.1-.4v-.2c0-.1.1,0,.1,0,0,0,.1,0,.1.2v.7h-.1Z"/>
        <path class="st7" d="M118.1,39.8c0-.2,0-.4,0-.5h.5c-.2,0-.3.3-.6.4h0Z"/>
        <path class="st7" d="M142.9,42.8c.4.2.5.2.3.6-.2,0-.3-.3-.3-.6Z"/>
        <path class="st7" d="M120.9,43.3c-.2,0-.4,0-.4-.2s.2,0,.3,0c.2,0,.2.2,0,.3Z"/>
        <path class="st7" d="M130.6,52.2c-.2,0-.4-.2-.6-.3h.5v.3h.1Z"/>
        <path class="st7" d="M141.8,58c0,0,.1.2.2.4h-.6c.2-.2.3-.3.4-.4h0Z"/>
        <path class="st7" d="M136.7,45.4c-.1,0-.2.2-.3.2,0,0-.1,0-.2-.2,0,0,.1,0,.2,0,0,0,.1,0,.3.2h0Z"/>
        <path class="st7" d="M136.9,40.3c.4,0,.2.4.5.5-.4,0-.3-.3-.5-.5Z"/>
        <path class="st7" d="M120.2,34.7s0-.2,0-.3c0,0,.2,0,.3-.2,0,0,0,.2-.2.5-.3.4,0,0,0,0h0Z"/>
        <path class="st7" d="M143.3,50.2c0,.2,0,.3-.1.4-.1-.2-.2-.3-.3-.4h.4Z"/>
        <path class="st7" d="M123.5,50.1h-.2v-.3h0s.2.2.2.3h0Z"/>
        <path class="st7" d="M140.5,58.7h.1c0,0-.2.3-.3.3h-.1v-.2s.2-.2.3-.2h0Z"/>
        <path class="st7" d="M117.9,38.4s-.2,0-.2.2h.2-.2s0,0,0,0c0,0,.2-.2.3-.3h0v.2Z"/>
        <path class="st7" d="M138.7,46s.1-.2.2-.3c0,0,.1,0,.1,0,0,0-.1.2-.2.2h-.1Z"/>
        <path class="st7" d="M120.6,33.8c0,0,.3-.2.4-.3h0c0,0-.3.2-.4.3h0Z"/>
        <path class="st7" d="M135.7,63c-.1,0-.3,0-.4,0h0c.1,0,.3,0,.4-.2h0Z"/>
        <path class="st7" d="M112.8,45.8v-.5h0v.4h0Z"/>
        <path class="st7" d="M133.7,40.6s.1,0,.2-.2c0,0,.1,0,0,0,0,0-.1,0-.2.2h-.1.1Z"/>
        <path class="st7" d="M119,42.5c.2,0,.3,0,.4.2,0,0,.2-.2.3,0,0,0,0,0,.2.2,0,0-.2,0-.3.2,0,0-.2.2,0,.3v.3h-.5c-.2,0-.3-.2-.4-.3v-.4s0-.2.2-.2h0v-.2Z"/>
        <path class="st7" d="M113.8,52.5c0,0,0-.2.2-.4h0c0,.2,0,.3,0,.5-.2,0-.3,0-.4-.2h.1Z"/>
        <path class="st7" d="M122.8,42.7c0,0,.2-.2.2-.3,0,0,0,.2.2.3h0s-.2,0-.3,0h0Z"/>
        <path class="st7" d="M128.3,47.4c.1,0,.2.2.2.3h-.3c0,0,0-.2.1-.4h0Z"/>
        <path class="st7" d="M116.3,39.4v.3c0,0-.2,0-.3,0v-.2c0-.2.2-.2.4-.2h0Z"/>
        <path d="M130.5,151.3h0Z"/>
        <path d="M215.9,165.4c-5.9.3-11.7.3-17.6.2-4.3,0-11,.6-15.8.9h0c-.6,0-1.2-.1-1.7-.2-1.1-.1-2.1-.3-3.2-.4-1.4-.1-2.9-.3-4.4-.2-1.9.1-3.8.2-5.8,0-1-.1-2,.1-3,.1h-4c-.4,0-.6-.2-1-.3-.9-.3-1.9-.5-2.9-.6-.6,0-.7-.3-.3-.7s.7-.8,1.4-.6c.5.2,1.1,0,1.6,0,1.1-.3,2.3-.6,3.5-.7,1.1,0,1.8-.7,2.2-1.7,0-.1,0-.3.2-.4.8-.8,1.6-1.6,2.8-1.9.3,0,.5,0,.5.3.1.9.4,1,1.2.7,1-.3,1.4-.9,1.2-2v-.6c.8.5,1.6.9,2.6,1.1,1.3,0,2.5-.5,3.4-1.4,1-.9,1.9-1.4,3.1-1.7.7-.2.9-.6,1.3-1.2.1-.2.2-.3.3-.5-1.2-.2-2.4-.6-3.6-.9-1.3-.4-2.5-1-3.5-1.9-2.4-2.2,2.3-2.6,3.3-5,1.9-1.9-.7-2.4-.6-2.6,0,0-1.2-.8-1.1-.8,1.5.5,2.8-.5,3.5-.9,1.1-1.7-4.2-3.1-2.8-4.7.5-.6,1.6-1,2-1.7.3-.6.2-2.3-.1-2.9-.2-.5-.2-1.1.2-1.5v-.3c0-.7.5-1.4.6-2.1,0-.6-.4-.7-.7-1.2-.3-.4-.5-.9-.6-1.4,0-.4,0-1.1-.3-1.3-.4-.5-1.4,0-1.9,0-1.4.3-2.8-.6-4,.2v.4h-1.1c-.9,0-1.7.2-2.3.5v-.3c0-.6-.3-1.2-.9-1.6,1.3-.7,2.1-1.8,2.1-3s-.1-.8-.3-1.2c.5,0,1,0,1.5,0,.2,0,.5,0,.7,0,.2-.2.3-.5.6-.6,0,0-.2-.2-.1-.3.3-.4.2-.9.2-1.4,0-.9,0-1.7-.5-2.5-.3-.4-.2-.7.2-1.1s.9-.7,1.5-.7.6,0,.6-.5v-1.5c0-.4-.3-.6-.6-.5-.1,0-.2,0-.4,0,.2-.3.3-.6.4-.9.8,0,1.3-1.2,1.3-2.6s0-.8-.1-1.2c0-.2,0-.3.1-.4.6-1,.6-2.2.9-3.2.1-.3.1-.6-.1-.8-.5-.5-.5-1,0-1.6.1-.2.4-.3.2-.6-.2-.4-.2-.7,0-1.1v-.5c-.4-.5-.8-.9-1.2-1.4-.1,0-.3-.2-.4-.2-.6,0-1.2.2-1.7.6-.6-.5-1.5-.9-2.5-1.1-.3-.6-.4-1.3-.7-1.9-.2-.4,0-1-.2-1.5,0,0,0-.2.1-.3.4-.3.5-.6.5-1.1s.2-.3.3-.4c.2-.2.4-.2.6-.3.3-.2.4-.4.1-.7-.2-.2-.3-.4-.4-.6-.2-.7-.8-1-1.4-1.3-.4-.2-.9,0-1.2.3s-.4.4-.5.6c-.3.5-.9.7-.9,1.3s-.3.8-.8,1-.9.4-.9,1,0,.4-.3.4-.3,0-.4-.2c-.3-.4-.6-.7-1-.9-.9-.5-1.8-.8-2.8-.4-.6.2-.8.5-.7,1.1,0,.3.1.7.2,1,.1.3,0,.6-.2.9-.5.7-1,1.4-1.2,2.3-.1.5-.2,1-.3,1.6h-1.2c-1.6,0-2.9.4-3.9,1h-.2c0-.4.1-.8.6-1,.2,0,.4-.2.6-.4.4-.4.9-.7,1-1.3,0-.4.1-.7.5-.8.4-.2.4-.7.5-1.1.1-.3-.1-.5-.3-.7-.3-.3-.3-1.5,0-1.7.7-.6.7-1.2.4-1.9-.1-.3-.1-.5.1-.8.6-.6.8-1.5,1-2.3.1-.5.3-.9.6-1.3.7-1,.4-2.1-.7-2.6-.2,0-.4,0-.3-.4,0-.2.3-.4.5-.3.4.2.9.2,1.4.2s.4,0,.3.3c-.2.4.1.6.4.9.4.4,1,.7,1.5,1,.4.3.9,0,.9-.4s.2-1,.3-1.4q.2-.6-.4-1.1c-.3-.2-.3-.4,0-.6.2,0,.5-.3.7-.5.9-.9,1.2-2.8.2-4.1-.1,0-.2-.3-.3-.4-.1-.2-.2-.4,0-.6.3-.3.2-.5,0-.8s-.4-.6-.7-.8c-.3-.3-.7-.7-.5-1.2,0-.2,0-.3-.1-.5-.3-.6-.1-1.1.5-1.6-.2-.2-.2-.3-.1-.6-.6,0-.8-.2-.8-.7s0-.5.2-.8c.4-.8.3-1-.4-1.5-.2,0-.4-.2-.7-.2-.6,0-1.1-.3-1.5-.8s-1-.7-1.4-1.1c-.2-.2-.4,0-.6,0-.3,0-.5,0-.8.2-.8.3-.3-1.5-1.3-1.6-.3,0-1.3,1.4-1.5,1.5-.9.4-1.9.6-2.6,1.2-.2.2-3-1.1-2.9,1.4,0,.7,1.1.8.3,1.3-.9.5-1.6,1.3-1.9,2.2-.1.4-.5.8-.9,1.1-.8.4-.5,1.7-1.4,2.1-.4.2-.2,1.2-.1,4,0,.4-.4.6-.8.5-.4,0-.6,0-.9.2-.4.2-.8.3-1.2.4-.8,0-1.5.4-2.1.8-1,.7-2,1.8-1.5,3.2v.6c0,.4,0,.9.3,1.2q.5.5.1,1c-.2.3-.3.6-.4.9,0,.3-.2.3-.5.2h-.4c-.4,0-.6-.2-.6-.7v-1.2c0-.2,0-.5-.3-.6-.7-.3-1.1-.8-1.9-.9-.4,0-.5-.3-.4-.7.2-.5,0-1,.2-1.5s0-1.1-.4-1.4c-.3-.2-.4-.5-.6-.8-.4-.7-1.4-1.3-2.1-1-.6.2-1,0-1.3-.4-.5-.6-1.1-.9-1.9-.8-1.8.3-3.5.9-4.6,2.4-.2.3-.5.6-.9.7-1.5.4-2.7,1.4-3.5,2.8-.3.6-.2,1.2.4,1.5s1.2.6,1.7.9c0,0,.2,0,.3.2,0,.4-.3,1.4-.7,1.5-.8.3-1.7.6-2.4,1.2-.7.5-1.2,1.1-1.6,1.8-.4.8-.3,1.7.3,2.1.4.3.9.6,1.3.8q.6.3.5.9c-.2,1,0,1.6,1,2,.5.2.7.5.7,1s.3,1.1.9,1.3c.6.2,1.1.6,1.8.6s.4.2.5.4c.2.4.5.4.9.4.8,0,1.7,0,2.5.4.4,0,.8.3,1.2.4.9.2,1.3,1.5.8,2.3-.3.5-.7.9-1.2,1.2-.5-1.1-2.3-2-4.3-2s-1.1,0-1.6.2c0-.4,0-.8-.3-1.2-.8-.9-1.7-1.6-2.9-1.8-.7,0-.8-.2-.9-.9,0-.6-.3-.8-.8-.9h-.9c-.7.4-1.5.3-2.2.8-.2,0-.4,0-.6,0-.4-.2-.9-.2-1.3,0-1.6.3-3,.9-4.2,1.9-.2.2-.4.4-.7.3-.7-.3-1.5-.2-2.2-.2-1.3,0-2.6.4-3.8,1-.8.5-1.1.9-.8,1.9q.2.6-.4.9c-.5.3-1.1.6-1.5,1-.7.7-.8.9-.3,1.8,0,.3.2.4,0,.7,0,0-.2.3-.3.4-.5.5-.9,1-.9,1.8s0,.2-.2.4c-.5.7-.7,1.5-.7,2.3s0,.6-.4.8c-.3.2-.6.4-.9.6-.4.2-.7.5-1,.9-.5.6-.3,1.3.5,1.5.2,0,.5,0,.7,0,.4,0,.4.2.2.6-.3.6-.6,1.1-.8,1.7-.3,1,0,1.5,1.1,1.6h.3c-.3.6-.5,1.2-.5,2,0,1.8,1.1,3.3,2.4,3.4-.5,1.7-.3,3.9.9,5.8.8,1.4,2,2.5,3.2,3.2-.2.4-.3.8-.3,1.2,0,1.4.9,2.6,2.3,3.2,0,0-.2.1-.3.2-.2.1-.4.2-.5.4,0,.4-.3.6-.5.8-.6.8-.8,1.8-.4,2.7.3.8.3.9-.5,1.3-.6.3-1.2.7-1.8,1.1-.9.6-1.3,1.3-1.4,2.3,0,.6,0,.8.6.9.8.2,1.7.3,2.6.3s.6.1.7.5c0,.1,0,.3,0,.4.2.6.4.7,1.1.6.9,0,1.7-.2,2.1-1.2,0-.3.2-.5.4-.5,0,.8.9,1.4,1.8,1.5-.2.4-.2.8-.2,1.2,0,1.4.9,2.6,2.2,3.1v.6c0,.5,0,.9.3,1.3h0c.3.7.7,1.6.9,1.7.3,0,.3.4.3.7s-.2.9-.2,1.3c0,.7.2,1,.9,1s.8.1,1.2.1c.8,0,1.6,0,2-.8s.7-.7,1.3-.7h.4v.3c0,2.8,2.5,5.2,5.7,5.6-.9.2-1.9.4-2.9.5h-1.8c-2.7-.4-5.3-.6-7.9,0-2.1.4-4.1.8-6.2,1.2-1.9.4-3.8.6-5.8.5-1.8-.1-3.7.2-5.5.7-2.3.6-4.7,1.1-7.1.9h-10.8l-45.8,1.5c11.4,40.1,67.1,67.8,110.8,67.8s101-31.2,111.1-73.2c-7.8-.4-32.8-.8-33-.8h0v.8ZM158.2,125.4h-.1c0,0,.1,0,.1,0ZM136,188.8c-.2.4-.6.5-1.1.4-.2,0-.4-.2-.6-.2-.4-.1-.4-.4-.4-.7s.3-.9,0-1.2c-.5-.6-.8-1.4-1.7-1.8-1.1-.5-2.3-.8-3.5-.8s-1.3-.4-1.9-.4-.9,0-1.3-.1c-.4,0-.6.2-.5.6v.6c.3.9.3,1.9.6,2.8s.2,1.2.2,1.8,0,1.2,0,1.8c0,.8.4,1.5.8,2.2.3.6.2,1.2-.2,1.7,0,.2-.2.4-.4.6-.3.4-.3.9,0,1.3h0c0,.2.3.4,0,.6-.3.2-.9,0-1-.3,0-.3,0-.6-.3-.8s0-.5,0-.8c.2-.2.3-.4.4-.6.3-.4.4-.8.2-1.2,0-.3-.2-.6,0-1,0-.2.2-.4,0-.5-.6-.5-.4-1.2-.8-1.8s0-.5,0-.8c.3-.5.3-1,0-1.6-.4-.4-.5-1.1-.7-1.6s-.2-1.1-.5-1.6c0,0,0-.1,0-.2-.2-.6-.5-1.2-1-1.6-.7-.6-.9-1.6-.6-2.4.3-.8.7-1.6,1-2.4.2-.5,0-1-.3-1.4,0-.2-.3-.1-.5,0-.8.4-1.7.8-2.3,1.5-.2.3-.3.6-.5.8-.5.6-.9,1.2-1.5,1.8s-1,1.3-1.6,1.9c-.2.2-.2.4-.3.7,0,.4-.3.7-.6,1.1-.2-.5-.6-.7-1.1-.6,0-.4.2-.7.5-.9.5-.3.9-.8,1.2-1.3.2-.4.5-.7.8-1,1-1.1,1.9-2.4,2.9-3.6,0-.1.2-.3.4-.4,1.6-.9,3.2-1.9,5.1-2.2,1.1-.2,2.2-.8,2.6-2.1,0-.2.3-.5.4-.7.3-.6.6-1.1.7-1.8.1-.9.4-1.7,1-2.3s.4-.4.8-.4.6,0,.8.3c.2.4.2.8,0,1.1-1,1.1-1.5,2.5-2.3,3.7-.2.4-.4.8-.3,1.2,0,.8-.4,1.1-1,1.4-.4.2-.8.3-1.2.3-.7,0-.7.2-.4.8,0,.2.2.3.2.5,0,.7.2.8.9.8h2c1.2,0,2.4.1,3.5.2h1.1c.6-.1,1,.2,1.3.7.2.4,0,.7-.3.7h-.7c-.8-.4-1.6-.5-2.4-.3h-.8c-.7-.2-1.4,0-2,.1-1.1.2-2.1.3-3.2.3s-.9.1-1.2.6c-.2.5-.5.9-.4,1.5,0,.4.3.7.7.6.6-.2,1,0,1.6.2.8.4,1.7.7,2.6.6.9,0,1.7,0,2.6.4.7.3,1.4.5,2.2.8,1.2.5,1.8,1.4,1.9,2.6,0,.4,0,.6.4.9.5.3.5.8.3,1.2h0l-.3-.3ZM178.8,181.6c-.9-.6-2.1-.7-3-1.4-.8-.6-1.1-1.5-1.6-2.3-.6-.9-1.2-1.7-1.4-2.7s-.1-2-.1-3.1c-1.2-.7-2.7-.8-4-1.3-1.1-.4-2.3-.3-3.5-.4-1.9-.2-3.8-.5-5.7-.6-.7,0-1.3-.4-1.8-.3h-.7c-.3,0-.5.1-.5.4s.1.4.4.5c.6.2,1.2.4,1.8.5.3,0,.6,0,.8.2.7.3,1.4.5,2.1.6.6,0,1.1.3,1.5.6.6.4,1.4.5,2.1.8.3.1.5.3.8.5h0c.9.2,2,.4,2.9.8.8.3,1.2,1.1,1.9,1.4.5.2,0,.9-.4.7-.7-.3-1.1-1.1-1.8-1.4-.4-.2-.9-.3-1.4-.5-.1,0-.3,0-.4-.1q0,0,0,0c.1,1.9,1.8,2.8,3.6,3.3.5.1.3.9-.2.8-1.1-.3-2.1-.7-2.9-1.4-.6-.5-1-1.2-1.1-2-.3,0-.6,0-.8-.2-.7-.6-1.5-.9-2.3-1.2-.6-.2-1.3-.7-2.1-.6-.2,0-.4,0-.5-.1-.4-.3-.9-.4-1.4-.2-.2,0-.3.2,0,.4,0,0,.2.1.3.2.8.3,1.5.8,2.1,1.3.9.6,1.5,1.5,1.9,2.5h0c.8.3,1.6.4,2.4.6,1.3.3,2.4,1.2,3.4,1.9.4.3,0,1-.4.7-1.1-.8-2.1-1.6-3.5-1.9-.8-.2-1.6-.3-2.3-.6h-.4c-.4-.1-.7-.3-1-.6-.8-1.2-2-1.9-3.3-2.5-1.5-.7-2.9-1.6-4.2-2.8-.4-.4-.9-.8-1.3-1.4-.2-.3-.3-.5-.4-.8-.6-.4-1.1-.7-1.6-1.1,0,.1-.2.2-.3.2-1.6,0-3.1.3-4.6.5-.4,0-.8.1-1.2.2.4.2.8.5,1.1.8.9.8,2,1.2,3.2,1.3.7,0,1.6.2,2,.7.8.8,1.7,1.5,2.5,2.3s1.9,2.1,2.9,3,1.8,2.1,2.6,3.2c.5.7.7,1.4.7,2.2v.4c.1,1.6,1.6,2.8,3.2,2.4.2,0,.4-.1.6,0,.3,0,.5.2.5.5s-.2.4-.4.5c-.5.3-1.1.2-1.6.2-1,0-1.7-.7-2.5-1.1-.2-.1-.4-.4-.4-.7,0-.8-.3-1.6-.6-2.4-.1-.2-.2-.5-.2-.7.1-.6-.2-1-.6-1.3-.5-.4-.8-.9-1.2-1.3l-.5-.5c-.7-.7-1.5-1.1-2.2-1.7-1.1-.9-2.3-1.6-3.5-2.3-.6-.4-1.2-.6-1.9-.7-.1,0-.3,0-.4-.1-.6-.3-1.3-.4-1.9-.8-.7-.5-1.4.2-2.2,0h0c-.5,0-.6,0-.4.5.2.6.2,1.1-.4,1.6-.4.4-.3.8.2,1,.7.2,1.4.4,2.1.4s1.8,0,2.6.3c.8.2,1,.6.6,1.3-.2.3-.1.5,0,.7.1.1.3.2.5.3.9.7,1.3,1.7,1.2,2.8v.8c.1.4,0,.7,0,1.1-.1,1.1-.2,2.1.3,3.1,0,.1.2.3,0,.4-.3,0-.5-.3-.7-.5-.3-.4-.8-.8-.5-1.4.4-.8,0-1.7,0-2.5s-.7-1.3-1.1-2c-.2-.5-.6-.9-1.2-1-.9-.2-1.7-.7-2.4-1.2-.4-.3-.8-.4-1.3-.3-.3,0-.6.1-.9.2-1.6.3-3-.7-3.4-2.2,0-.3-.2-.4-.4-.2-.5.7-1.3.8-1.8,1.4-.2.2-.4.1-.6,0-.2-.1-.2-.3-.2-.5,0-.4.1-.8.4-1.2.5-.6.6-1.5,1.3-1.9.2-.9.9-1.4,1.4-2.1.3-.4.6-1,.5-1.6-.2-1.1-.7-2.1-1.9-2.6-.8-.3-1.5-.7-2.3-1-1.1-.4-2.1-.7-3.3-.5-.7,0-1.4.3-2.2,0h-.4c-.4.2-.7.2-1.1.3-.4.1-.7,0-1-.2-.4-.4-.8-.3-1,.3s-.7,1.1-1,1.7c-.4.7-.9.9-1.7.8-.6,0-1.2-.1-1.7,0-.6.2-1.3.3-1.9.4-.7.1-1.3.4-2.1.5h-2.1c-.4,0-.8.2-.9.6,0,.3-.3.5-.4.7-.5.8-1.3,1.3-1.9,1.9-.9.8-1.8,1.6-2.6,2.5-.8.9-1,1.9-.9,3.1,0,.5.2,1,.4,1.5.3.9.3,1.8,0,2.6-.4,1.2-1,2.3-1.8,3.2-1.1,1.4-2.2,2.8-2.9,4.5,0,.1-.2.2-.2.3-.6,1-1.3,2.1-.7,3.4,0,.3,0,.6-.3.7-.3.1-.6.2-.8,0-.3-.3-.4-.7-.6-1s-.2-.6,0-.9c.4-.9.8-1.8,1.4-2.6.3-.4.5-.7.5-1.2s.3-1.1.7-1.5c0-.1.2-.2.3-.4.6-.9,1.2-1.8,1.8-2.7.9-1.4.8-2.8,0-4.2-.3-.6-.6-1.1-.7-1.7-.2-.9-.3-.9-1.2-.9h-.6c-1,0-1.9.4-2.7,1-.7.5-1.3,1.2-2,1.5-.8.4-1.6.9-2.1,1.6,0,0-.2.1-.3.2-.4.3-.6.7-.5,1.1,0,.4,0,.8,0,1.1-.4.8-.6,1.6-.9,2.4-.2.4-.4.9-.7,1.3-.8,1.2-1.5,2.5-1.5,4s-.4,1.9-1.1,2.7c-.2.2-.5.5-.6.8-.7,1.2-1.9,2.1-2.9,3s-2,1.8-3.2,2.6c-.7.4-.8,1.1-.8,1.8h-1.2c.2-.8.5-1.6,1.1-2.2,1.1-1.2,2.6-2.1,3.8-3.3.4-.4.8-.8,1.2-1.4.4-.7.8-1.4,1.4-1.9.5-.5.6-1.2.8-1.9,0-.2,0-.5,0-.7-.2-.2-.2-.5,0-.7.2-.7.4-1.4.8-2,.8-1.1,1.4-2.3,1.6-3.6,0-.5.2-1.1,0-1.5-.5-.5-.3-.9,0-1.3.3-.4.5-.9.9-1.3.2-.2.3-.4.4-.7.2-.4,0-.6-.4-.5-.7.1-1.3.4-1.8.9-.6.5-1.2,1-1.7,1.6,0,.2-.3.3-.5.3-.6,0-1.1.2-1.6.2s-.8.1-1.1.4c-.7.5-1.3,1.1-2,1.6-.5.4-1,.8-1.4,1.3-.5.7-1.3,1.3-1.7,2.1-.3.5-.7,1-.8,1.6,0,.3-.2.6-.4.8h-.2s0-.1,0-.2c.4-.6.4-1.3.3-2v-.3c.2-.4.4-.8.5-1.2.2-.4.4-.8.8-1.1s.8-.6,1.1-1.1c.7-1.1,2-1.7,2.8-2.8,0,0,.2,0,.2-.1.7-.5,1.5-.8,2-1.6h0c1-.3,1.4-1.2,2-1.8.3-.3.2-.5,0-.7s-.5-.3-.8-.2-.6,0-.9,0c-.8-.1-1.5.2-2.1.7-.6.4-1,1-1.6,1.5-.8.6-1.5,1.2-2.4,1.5-.4.1-.9.2-1.4.2-1.4.2-2.8.4-3.9,1.2-1.1.7-2.3,1-3.3,1.8-.2.2-.5.2-.6-.2,0-.3-.2-.6-.6-.8.7-.2,1.3-.3,1.9-.5.7-.2,1.5-.4,2-1,.8-.9,2-1.2,3.1-1.6.7-.2,1.4-.4,2.1-.5,1-.2,1.6-.8,2.2-1.6.4-.6.9-1.1,1.4-1.5.7-.6,1.5-1.1,2.4-1.1,1.7,0,3.4-.3,5.1-.1.6,0,1.3.2,1.8.6.5.4.9.3,1.4,0,1.3-.8,2.6-1.4,4.1-1.5h.4c.9,0,1.8-.4,2.8,0,.3.1.5,0,.8-.2s.3-.4,0-.6c0,0-.2-.1-.4-.2-1.1-.5-2.2-.4-3.2,0-1.3.4-2.6.6-4,.3h-1c-.3,0-.7.1-.8.5,0,.3-.3.3-.5,0-.2-.2-.4-.3-.7-.2-.5.1-1.1,0-1.6.2-.4.2-.8.3-1.2.1-.2,0-.4,0-.5.2s-.2.2-.3.2c-.9,0-1.7.2-2.6-.3-.6-.4-1.3-.6-2-.6-1.2,0-2.4-.2-3.6-.6-.5-.2-1-.2-1.5,0-.2,0-.4,0-.6.1-.2,0-.3.1-.4,0v-.6c0-.2.3-.1.4-.1h.9c1.1,0,2.1,0,3.2.4.2,0,.5.1.7,0,.6-.2,1.1,0,1.7.2,1.2.5,2.5.3,3.7.4,1.1,0,2.2-.5,3.3-.7,1.8-.3,3.5-.8,5.4-.8s.8-.1,1.2-.3c2.3-.8,4.5-1,6.8.2.6.3.7.2,1.1-.3.7-.9,1.4-1.7,2.2-2.6.9-.9,1.5-2.1,2.9-2.4.4,0,.7-.2,1.1,0,.6.3,1.2.3,1.7.3.8,0,1.5,0,2.3-.2.7-.2,1.5,0,2.1-.7.6-.6,1.3-1,1.9-1.6,2-.4,3.6-1.6,4.4-3.1.5-.3,1.1-.6,1.4-1.2.3-.5.6-.9,1.1-1.2.4-.3.5-.7.4-1.1-.2-.4-.2-.7-.3-1.1h0c-1.8-1.7-3.4-2.9-5.8-3.1-2.4-.2-4-.4-6.3-1.1-2.4-.7-4-.8-6-2.4-2-1.6-5.4-3.9-6.5-6.2-.7-1.4,1.4-.1,2.1,1.2,1.1,2.3,2.3,1.9,4.4,3.4,0,0,0-.2-.2-.3v-.2c.2-.5,0-.8-.3-1.1h0c.2-.7,0-1.4,0-2,.2-.9.6-1.8,1-2.7.4-.8.6-.8.4-1.6,0-.6-.6-1.8-.9-2.2-.2-.3-.4-.6-.7-.8,0,0,0,0-.2-.1,0-.1-.2-.2-.3-.2-.6-.4-1-1-1-1.8v-.4c-.9-.1-1.8-.3-2.7-.2-1.5,0-4.4-1.3-2.9-1.3s1.4,0,2.2.2c-.9-1.1-1.9-3.2-2.6-3.1-.7,0-1.1-.3-1.4-.9-.2-.4-.2-.8-.3-1.2-.2-.7,0-1.4-.4-2.1v-.6c0-.7,0-1.4,0-2.1,0-.2-.2-.4,0-.6,0-.8-.4-1.2-.9-1.7s-1.1-.6-1.5-1.2c-1.2-.2-1.3-1.4-2-2.1s0-.7,0-1.1h.2c.6,1.5,1.9,2.2,3.2,2.9,0-1.9,2.2-3.2,2-5.1-.2-2.2,0-2.4-.2-4.6,0-1.5.6-4,.7-2.5,0,1.2,0,2.4,0,3.6,0,1,.3,2,.4,3,.2,2-1.2,3.5-1.2,5.5s.4,1.3,0,1.4c0,.2,0,.3,0,.5,0,.9.3,1.8.3,2.8s.3,1.8.5,2.6c0,.3.2.6.3,1,.2.7,2.7,4.1,4.3,5.8h0c2.5.5,5.4,1.1,7.3,1.1s2.8.1,5.1.6c-.2-.2-.5-.5-.8-.6-.2-.1-.3-.3-.4-.5-.2-.6-.5-1-1-1.4-.7-.5-.9-1.3-1-2.1-.2-1-4-.7-4.4-1.6,0-.1-1.8.3-2.9.6,0,.1-1-.4-1.8-.8,0-.3,0-.5.2-.5s2.2.5,2.2.5c1.8-.4,3.3-1.4,4.9-.8,1.6.6,3,2.1,3.5,3.6.2.7.6,1.4,1.4,1.7.3.1.5.3.7.5.6.9,1.5,1.4,2.2,2.1.7.6,1.1,1.5,2,1.8,0,0,0,.2.2.3,0,.2,0,.4.2.5h0s0,.3.2.2c0,0,0,.1.2.1s.2.3.4.3.3.3.4.4c0,0,.2.1.2.3h0c.2.2.2.1.2.3s.2,0,.2,0h0c0,.1,0,.2.2.3.7.6,1.3,1.2,1.8,2,.2.4.7.7,1.1,1,.7.5.9,1.2,1.1,1.9.1.5.3.9.5,1.3.5-.6,1-1.2,1.5-1.9.7-1.1,1.8-1.9,2.4-3.1.5-1.1.7-2.1.6-3.2-.1-1.2-.7-2.4-.7-3.6s0-.3-.1-.4c-.4-.4-.6-1-.8-1.5-.2-.4-.3-.8-.6-1.2-.1-.1-.2-.3-.1-.5,0-.5-.2-.9-.5-1.4-.2-.3-.3-.6-.3-1,0-.6,0-1.2-.3-1.7-.4-1,0-1.8.1-2.7,0-.2.1-.3.3-.4.5-.2.4-.5.3-.9-.1-.4-.2-.9,0-1.3.4-.7.4-1.6.8-2.3.3-.5.3-1.1-.1-1.6-.2-.3-.3-.6-.3-.9,0-1.3-.2-2.6,0-3.9.1-.6,0-1.1-.2-1.6-.5-.9-.4-1.9,0-2.8.6-1.2.7-2.5,1.2-3.6.2-.5.3-1,.4-1.5-.3-.7-.6-1.7-1.1-3-.2-.7-.7-4.3-.7-5s-.5-.6-.4-1.3c0-.9-.6-1.4-1.3-1.9-.5-.4-1.2-.5-1.8-.8-1.2-.5-1.8-1.6-1.6-2.8.2-1.2.3-2.4.5-3.7s0-1.2-.2-1.8v-.3c0-.7-.2-1.3-.7-1.8-.1,0-.2-.3-.2-.4,0-.4-.1-.6-.4-.7-.2,0-.3-.3-.1-.5s.3-.4.2-.7c0,0,0-.2.1-.3h.3c.1,0,.3.3.3.5.2.6.6,1.1.6,1.8s.1.4.3.5c.4.4.6.9.7,1.5,0,.6.4,1.2.4,1.8-.1.7-.2,1.4-.3,2.1-.1.6-.1,1.2,0,1.8.1,1.2.9,1.8,1.9,1.9,1.2.2,2,.9,2.8,1.7.4.4.6.9.6,1.5s.1,1,.2,1.5c.2,1,.5,2.5.8,4,.1,0,.2-.2.4-.2h.5c.4-.6,1.2-1.4,2-2.3-.4-1.2-.7-5.4-.8-5.9,0-.8.4-1.5.7-2.1.1-.2.2-.4.3-.6.4-1.7.7-2.1,1.9-3.2.2,0,.1-.5.8-1.1.1,0,.4-1,.5-1.2.2-.9.3-1.6.5-2,.2-.5,1-2.7,1.6-2.8.3,0-1.6,5.3-1.4,5.3.3,0,1.2-.6,1.4-.6.3,0,.6-1.2.7-1.5.5-1.3,1.2-2.6,1.6-4,0-.3.3-.6.5-.9.3-.6.4-1.2.5-1.8,0-.2.1-.5.3-.7s.8-1.2,1-1.1c.2,0,1.1-1.1,1.1-.8s-1.3,2.6-1.3,2.7c-.6,1.6-1.3,3.2-1.9,4.8-.2.6-.4,1.2-.4,1.8,0,.9-.5,1.6-1.1,2.2-1.1,1-2.3,2-3.4,3.2-.6.7-.9,1.4-1.1,2.3,0,.5-.3,1-.6,1.5-.1.3-.1.5-.1.8.3,2,.4,3.4.3,4.3.2-.2.4-.4.4-.5.6-1.1,1.3-2.1,2.1-3.1.3-.5.8-.8,1.1-1.2,1-.9,2-1.8,3.3-2.2.4,0,.8-.3,1-.7.2-.2.4-.4.7-.5.5-.2.8-.6.7-1.2-.2-1.5.3-2.8.9-4.2.5-1.2,1.2-2.2,1.8-3.3.3-.4.2-1.1.6-1.3.6-.3,1.1-4.3,2.1-4.6-.2.3-.5,1.1-.4,1.6v.7c-.1.6,0,1.7-.2,1.8.1.4-.1.3-.3.6-.8,1.8-2.1,3.3-2.8,5.1-.3.7-.4,1.4-.6,2.1,0,.5.1.9.2,1.3.2.8.1,1.5-.6,2-1,.8-2,1.5-3.1,2-.6.3-1.1.7-1.6,1.1-.6.6-1.2,1.2-1.8,1.8-.8,1-1.4,2.1-1.7,3.3v.3c0,.3,0,.5-.2.8-.2.2-3.2,2.9-4.6,4v.9c-.2,1.2-.6,2.4-1.2,3.5-.3.6-.3,1.3-.6,2v.7c.2.6.3,1.1.6,1.6h0s.1,0,.2,0c.6-.3,1.2-.7,1.6-1.3.4-.7.9-1.3,1.3-2.1.2-.4.4-.8.6-1.2.2-.3.3-.6.4-1,0-.5.3-1,.6-1.5.4-.5.7-1.1,1.3-1.5,0,0,.1,0,.2-.2.1-.2.2-.3.4-.3.4.4,3.3-2,3.3-2,0,0,.4-.2.5-.4.1-.3.3-.5.5-.7s.4-.4.4-.6c.1-.4.4-.6.6-.8.4-.3.6-.8,1.2-.7h0c0-.2.2-.2.3,0s.1.2,0,.4c-.2.2-.4.6-.8.6s-.6.3-.6.6c-.4,1.1-1.1,1.7-1.9,2.4-.1,0-.3.2-.4.3-.1,0-.2,0-.3.2-.4.5-.9.8-1.4,1-.4.2-.6.4-.7.8,0,0-.1.3-.3.2-.1,0-.1-.2-.2-.3-.1-.3-.2-.3-.4,0-.8.7-1.4,1.6-1.7,2.6,0,0,0,.3-.1.4-.2.5-.5,1-.5,1.6s-.1.6-.3.8c-.5.9-.9,1.8-1.6,2.6-.3.3-.6.7-1,1-.3.3-.6.6-1,.8,0,.2-.2.4-.3.7-.5.6-.7,1.3-.5,2.2v.6c0,.4,0,.7.1,1.1.2.6.2,1.2.3,1.8,0,.3,0,.6.2.9.1.6.5,1.3.1,1.9-.3.6-.5,1.2-.7,1.8-.5,1.2-.8,2.4-.9,3.7,0,.8,0,1.6.2,2.3h0c0,1.4.6,2.5,1.2,2.9.1.2.2.4.3.6.2.5.4.9.7,1.3.3.4.6.9.7,1.4.2.9.4,1.9.6,2.8.2.9.2,1.8.2,2.7s0,1.5-.1,2.2c.4-.1.7-.2,1.1-.3.5-.1.9-.2,1.4-.4.6-.2,1.3-.4,2.1-.4s.9-.1,1.3-.3c1.7-.6,3.6-.7,5.6-.4,1.5.2,3,0,4.4,0s1.1-.2,1.5-.5c.5-.4,1.1-.8,1.2-1.3.3-.8,1.2-1.2,1.8-1.9.5-.5,1-1.1,1.8-1.5,1.1-.6,2.2-1.3,3.4-1.9.1.1.3.3.5.4-.9.6-1.8,1-2.6,1.6-1.2.9-2.6,1.7-3.3,2.8-.2.3-.3.6.1.9s0,.7-.3.8c-.6.2-1.1.5-1.5.9-.4.3-.9.3-1.5.3-2.6,0-5,.2-7.5.2s-3.1.3-4.4.9c-.9.4-2,.7-3,1-.5.2-1,.4-1.3.7s-.8.8-1.4,1c-.5.2-.4.5-.5.8-.1.5-.5.8-1.1.9-.2.6-.4,1.2-.4,1.9,0,1.3-.4,2.5-.9,3.7-.2.4-.4.8-.6,1.1-.2.5-.2,1,0,1.4s.5.5.9.6c.9.1,1.3.7,1.4,1.6,0,.4.1.8,0,1.2-.2,1.2-.5,2.4-.6,3.6q0,.6.4.9c.2.1.6.4.7.6.4.5,1,.7,1.5,1.1.2.1.3.3.5.5.4.4.7,1,1,1.5.2.4.3.6.5.6,0-.4,0-.8.3-1.2.1-.2.2-.3.3-.5.4-.8.9-1.3,1.5-1.9.8-.7,1.7-1.3,2.5-1.9.5-.4,1.1-.5,1.7-.8.4-.2.9-.3,1.4-.4.2,0,.4-.2.6-.4.3-.6.7-.7,1.2-.3.3.2.6.2.9.1h.4c1.2.2,1.8-.7,2.5-1.5.7-.9,1.1-1.9,1.8-2.8.1-.2.1-.4.2-.6,0-.2-.2-.5,0-.6.5-.2.8-.6,1.2-.9.2-.1.4,0,.5.2s.1.5-.1.7c-.4.2-.6.6-.9,1-.3.5-.5,1.1-.9,1.6-.6.7-.9,1.5-1.3,2.3-.2.4-.5.6-.9.9-.6.4-1.1.5-1.8.4-.9-.2-1.4.6-2,1.1-.2.3-.4.6-.8.7-.2-1.1-.4-1.2-1.4-.7-1.1.7-2.2,1.5-3.2,2.4-.4.4-.7.8-1,1.1-.5.5-.6,1.1-.5,1.7v.3c.2,0,.4,0,.5-.1h.3c1-.2,2-.5,3-.7.8-.1,1.5-.1,2.2,0,0,0,.1-.2.2-.2.7-.1,1.4,0,2.1,0h.1c.5-.1,1-.3,1.6-.1,1,.3,2,.7,3.2.4.7-.2,1.4.2,2.2.2s1.9.1,2.9.3c2.2.4,4.4.4,6.6,1,1.6.4,3.1.8,4.6,1.4.6.2.9.8,1.5.9.6.1,1.2.2,1.6.7.2.2.5.3.7.4.3.1.4.4.4.7s-.3.5-.6.5c-.8,0-1.6-.1-2.3-.7-.3-.3-.7-.4-1.1-.6v2.4c.2,1,.9,1.7,1.4,2.5.4.7.8,1.7,1.6,2.2.9.6,2,.6,2.8,1.2.4.3,0,1-.4.7h0l-.2.2Z"/>
        <path d="M130.2,155.2c.3-.3.5-.6.2-.5.3-.8,0-.5.1-1.2v-2.3h0c0-.2.2-.5.3-.7,0,0,0-.1.1-.2v-.4c-.5-1.9-1.3-3.7-2.9-5.1-.6-.5-1.1-1-1.4-1.8,0-.3-.3-.5-.6-.7-.5-.2-.9-.6-1-1.1,0-.1,0-.3-.2-.3-.7-.1-.8-.7-1-1.2-.2-.4-.4-.7-.8-.8h-.2c-.2.4-1.1-.6-1.6-.7-2.8-.4-2.9-.9-5.8-.9s-2.2-.2-3.3-.4c.4.9,1.1,1.4,1.7,2.1.5.6.7,1.4.8,2.1,0,1.1.2,2.3-.8,3.1-.3.9-1,1.7-1.2,2.6,0,.1-.2.3,0,.4.4.6.2,1.3.6,1.9.3.5.4,1,.5,1.5,1.8,1.1,3.8,1.8,5.9,2.2,3.7.7,7.6.4,10.8,2.2h0l-.2.2Z"/>
        <path class="st7" d="M-15.8,244.7c4.8.4,9.5-.9,14.1-2.1,4.6-1.3,9.1-2.9,13.6-4.6,15.4-5.9,37.3-16.2,52.6-23.1,4.4-2,8.8-3.9,13.2-5.7,4.5-1.7,9.1-3.8,14-3.6,31-.9,71.8-1.2,92.2-28.3,2.9-3.8,5.2-8,7.4-12.3-3.8,8.8-9.1,17.2-16.7,23.2-23.5,18-54.7,18.3-82.9,18.8-2.4,0-4.6.3-6.9,1-6.8,2.2-13.4,5.1-19.9,7.9-15.4,6.8-37.2,16.8-52.9,22.5-4.5,1.6-9,3.2-13.7,4.4-4.6,1.2-9.4,2.4-14.2,1.9h.1Z"/>
        <path class="st7" d="M195,164.9c-3.9,9.3-8.9,18.6-17.4,24.4-4.6,3.2-9.6,6-14.8,8.1-18.7,7.9-39.4,9.2-59.5,9.7-1.7,0-3.2,0-4.8.5-6.9,2.1-13.4,5.4-19.9,8.4-16.1,7.7-32.1,15.9-48.8,22.5-4.2,1.6-8.4,3.1-12.7,4.4-4.3,1.2-8.8,2.3-13.2,1.8,4.5.3,8.9-.9,13.1-2.2,4.2-1.4,8.4-3,12.5-4.7,14.2-5.9,34.3-16.3,48.4-23.1,6.6-3.1,13.2-6.5,20.2-8.7,1.6-.5,3.6-.6,5.2-.6,26.3-.5,54.8-2.5,76.5-18.8,7.1-5.6,11.5-13.6,15.2-21.6h0Z"/>
        <path class="st7" d="M198.7,164.9c-3.1,7.7-6.3,15.8-12.7,21.4-19.9,16.1-46.3,20.1-71.1,20.7-4.2-.2-7.8,1.7-11.6,3.3-18.8,9-36.7,19.8-55.8,28.1-7.6,3-15.7,6.9-24,6.3,4.2.3,8.2-1,12.2-2.3,23.5-8.8,44.4-22.8,67-33.6,3.8-1.7,8-3.8,12.2-3.6,16.5-.3,33.3-2.1,48.9-7.9,6.8-2.5,13.4-5.9,19.3-9.9,7.9-5.3,11.9-14.2,15.7-22.6h-.1Z"/>
        <path class="st7" d="M202.4,164.8c-2.8,7.2-4.9,15-10.7,20.5-11.9,10-26.9,16.2-42.1,19.2-7.6,1.5-15.4,2.2-23.2,2.5-1.5,0-2.7,0-4.1.5-5.9,2-11.2,5.3-16.6,8.4-14.1,7.7-48.1,30.5-62.6,28.9,14,.9,47.9-22.7,61.8-30.3,5.5-3.1,10.9-6.5,16.9-8.6,1.4-.5,3.1-.5,4.5-.6,7.7-.2,15.4-.9,22.9-2.3,15-2.9,29.8-8.7,41.8-18.2,5.9-5.2,8.2-12.9,11.3-19.9h0Z"/>
        <path class="st7" d="M206.1,164.8c-1.3,3.3-2,6.9-3.3,10.2-1.8,5.1-5,9.9-9.6,12.8-13.1,9.4-28.3,16.3-44.4,18.2-4.2.6-8.5.9-12.8.9-2.7.4-5.2,1.8-7.6,3.1-3.1,1.7-6.1,3.6-9.1,5.5-12.6,7.7-43,30.6-56.6,29.1,14.2,1,50-28.2,64.9-36.1,2.6-1.4,5.3-3.1,8.4-3.4,4.2-.1,8.4-.3,12.6-.9,15.9-1.9,30.9-8.5,44.1-17.4,4.6-2.8,7.7-7.2,9.7-12.1,1.4-3.3,2.2-6.8,3.7-10h0Z"/>
        <path class="st7" d="M209.8,164.7c-1.2,3.1-1.5,6.4-2.5,9.5-1.3,4.8-3.8,9.5-8,12.4-12,8.7-25,16.9-39.8,19.2-3.9.6-7.8,1-11.8,1.1-2.4.3-4.7,1.8-6.8,3-13.6,8.1-44.2,36.2-58.6,34.8,12,.8,38.6-23,49.6-30.6,2.6-1.9,5.3-3.9,8.1-5.7,2.4-1.4,4.8-3.1,7.7-3.4,3.9-.1,7.7-.4,11.5-1,14.6-2.2,27.5-10.2,39.5-18.3,4.1-2.7,6.6-7.1,8.1-11.7,1.1-3.1,1.6-6.4,2.9-9.4h.1Z"/>
        <path class="st7" d="M213.5,164.7c-1.1,2.8-1.1,5.9-1.7,8.8-.7,4.1-2.2,8.3-5.4,11.2-2.8,2.2-8.9,6.5-11.8,8.8-4.9,3.6-9.9,6.9-15.6,9.4-6,2.6-12.5,3.9-18.9,4-.8,0-1.3,0-1.9.3-4.4,1.9-8,5.2-11.7,8.2-4.6,3.8-9.1,7.8-13.7,11.7-7.3,5.8-21.3,18.6-30.8,17.7,12.5.8,38.7-28.5,50.5-36.4,1.7-1.2,3.6-2.5,5.7-3.1,1-.2,2.1-.2,3-.3,12.2-.2,22.9-5.7,32.6-12.6,2.5-1.7,8.7-6,11.1-7.7,3.7-2.6,5.4-6.9,6.4-11.2.7-2.9,1-6,2.2-8.7h0Z"/>
        <path class="st7" d="M217.3,164.6c-.8,2.2-.8,5.8-1,8.1-.4,4.1-1.3,8.6-4.6,11.5-3.3,2.6-6.5,4.9-9.6,7.7-9.5,8.4-17.3,14.8-30.7,14.9h-.5c-.4,0-.8.2-1.2.4-3.6,1.9-6.6,5.1-9.6,7.9-3.9,3.8-7.7,7.8-11.6,11.7-6.1,5.8-18.2,18.7-26.9,17.9,13.1.5,35-32.6,47.3-39.2.4-.1.8-.3,1.1-.4.4,0,.9-.2,1.2-.2,13.1-.1,20.3-6.3,29.8-14.1,3.3-2.9,7.4-5.3,10.6-8.1,2.6-2.7,3.5-6.4,4.1-10.1.4-2.3.5-5.9,1.5-8.1h.1Z"/>
        <path class="st7" d="M221,164.6c-.7,2-.4,5.3-.4,7.4.2,11.8-4.2,11.1-11.3,18.3-3.6,3.5-6.6,7.5-10.5,10.8-4.4,3.9-10.4,5.6-16.1,5.7-1.5.3-2.9,1.6-4.1,2.7-1.7,1.7-3.4,3.6-4.9,5.5-6.6,7.4-22.2,30.9-32.4,29.8,1.3,0,2.5-.2,3.6-.7,3.4-1.6,6.1-4.2,8.6-6.9,3.4-3.6,6.5-7.5,9.5-11.5,3-3.9,6-7.9,9.2-11.8,2.5-2.9,4.8-6,8.1-8.1,1-.7,2.8-.8,4-.9,2.4-.1,4.8-.6,7-1.4,7.1-2.6,11.3-9.1,16.8-14.1,1.9-1.7,3.8-3.4,5.8-4.8,1-.7,2-1.3,2.8-2.2,2.5-2.7,2.9-6.6,3.2-10.2.2-2.5,0-5.1.9-7.4h0l.2-.2Z"/>
        <path class="st7" d="M224.7,164.6c-.7,2.2,0,4.5,0,6.8.6,4.5.6,10.1-3.7,12.9-1.7,1.3-3.4,2.9-4.8,4.6-7,8.4-8.5,17.8-21.8,18-.4,0-.7.2-1.1.4-8.2,6.3-21.1,38.9-32.4,37.6,7.1.3,14.2-13.8,17.7-19.2,2.3-3.9,4.6-7.9,7-11.8,1.2-1.9,2.5-3.9,4-5.7,1.2-1.3,2.8-3.2,4.8-3.2s1.9-.1,2.4-.2c9.9-1,12.2-10.5,18.2-16.9,1.9-2.1,4.3-3.9,6.5-5.6,2.9-2.7,2.8-7.1,2.7-10.8,0-2.2-.5-4.6.4-6.8h.1Z"/>
        <path class="st7" d="M228.4,164.5c-.4,1-.2,2.1,0,3.1.5,3.1,1.4,6.1,1.4,9.4s-.7,4.6-2.6,6c-3.4,2.4-5.6,5.8-7.2,9.6-1.7,3.9-2.4,8.4-5.8,11.4-2.3,2.1-5.4,2.7-8.4,2.8-.9.4-1.6,1.3-2.2,2.3-1.1,1.7-2,3.5-2.9,5.4-3.5,6.6-11.6,31.5-20.2,30.3,6.5.2,11.3-14.4,13.6-19.5,1.6-3.9,3.1-7.8,4.8-11.6,1.4-2.7,3.6-8.9,7.3-8.9s4.9-.6,6.6-2.2c1.4-1.2,2.3-3,3.1-4.9,1.6-3.7,2.8-8,5.6-11.4,1.3-1.7,3-3.2,4.8-4.4,3.3-2.5,2.4-7.5,2-11.2-.2-2-.8-4.3,0-6.2h0Z"/>
        <path class="st7" d="M232.1,164.4c-.5,1.9.5,3.8,1,5.6,1,3.7,3,8.4.1,11.7-.3.3-.8.7-1.2,1-2.6,2-4,5.1-4.6,8.3-1.1,4.7,0,10.9-4.5,14.2-1.6,1.1-3.5,1.3-5.3,1.4-.7.2-1.1,1.2-1.6,2-.8,1.7-1.3,3.5-1.9,5.4-2.2,6-6.2,31.7-14,30.6,5.9.2,8.2-15.2,9.5-19.8.8-3.8,1.7-7.6,2.7-11.4.8-2.5,1.9-8.3,5.1-8.9,1.5,0,3.2-.2,4.4-1.1,2.3-1.5,2.5-4.4,2.9-7.1.5-3.9.9-8.1,3.2-11.5,1.1-1.7,2.7-3,4.3-4.2,2.5-2.7.9-7.3.3-10.7-.3-1.9-1.1-3.9-.5-5.8h0v.3Z"/>
        <path class="st7" d="M235.8,164.4c-.3.9.1,1.8.4,2.7.9,2.6,2.2,5.1,3,7.8.6,2.1,1,4.8-.8,6.5-.5.4-1.1.9-1.5,1.4-1.8,1.9-2.2,4.6-2.2,7.2,0,3.8,1.1,7.3.9,11.2,0,1-.3,2.1-.9,3.1-1.1,1.8-3.3,2.4-5.3,2.4,0,0-.3.2-.5.6-.8,2-1,4.2-1.3,6.5-1,5.3-.7,32-7.8,31,5.3.3,4.8-16.1,5.2-20.1.1-3.7.3-7.4.6-11.1.2-2.4.4-4.9,1.4-7.1.2-.5.5-1.1,1.3-1.5.5-.3,1.2-.3,1.8-.3,1.1-.1,2.3-.5,2.8-1.4,1.2-2.2.5-5,.3-7.5-.4-3.8-1-7.8.8-11.4.6-1.4,1.7-2.6,2.9-3.4.2-.1.7-.5.9-.8,1-1.3.7-3.3.4-4.9-.4-1.8-.9-3.5-1.5-5.3-.4-1.7-1.4-3.6-.9-5.4h0v-.2Z"/>
        <path class="st7" d="M239.6,164.4c-.2.9.3,1.8.6,2.6,1.2,2.5,2.6,4.8,3.7,7.4.8,2,1.7,4.6,0,6.5-.3.2-.7.6-1,.9-1.9,2.1-1.6,5-.9,7.6.9,3.5,2.4,6.8,3.3,10.4.4,1.7.8,4-.5,5.5-.8,1.1-2.7,1.4-3.6,1.4q.1,0,0,0c-.7,2.1-.3,4.5-.2,6.8.6,7.2,1.6,14.5,1.8,21.8-.1,2.4.3,9.9-3.2,9.6,3.4,0,2.3-7.3,2.2-9.5-.7-9.1-3-18-2.9-27.3.1-1.3.3-3.2,2.1-3.4.6,0,1.4-.1,1.9-.4,1.9-1.6-.6-6.9-1.2-9.1-1.1-3.6-2.5-7.2-1.7-11.1.4-1.7,1.5-3.2,3-4.2,2-2.2-1.1-7.7-2-10.2-.6-1.7-1.8-3.4-1.3-5.2h-.1Z"/>
        <path class="st7" d="M243.3,164.3c-.1.4,0,.9.2,1.3.6,1.2,1.4,2.4,2.1,3.6,10.6,15.6-2.4,6.9,3.7,19.8,1.6,3.3,3.6,6.4,5.2,9.7,1.6,3.1,3,7.6-1.8,7.8.1,0,.3-.2.4-.2v.4c.5,5.8,2.8,11.4,4.2,17.1,1.6,6.2,3.8,12.5,3.6,19,0,.9-.6,2.1-1.7,1.9,1.1.1,1.4-1,1.4-1.9,0-2.7-.8-5.4-1.6-8-2.5-8.9-6.1-17.4-7.9-26.6-.2-1.4-.3-3.8,1.7-3.8s.5,0,.7-.1c1.9-.8-2.7-8-3.4-9.5-1.7-3.4-3.6-6.7-4.1-10.6-.2-1.8.4-3.9,2-5l.3-.3c.4-.4.3-1.3.1-2.1-.7-2.6-2.1-5-3.4-7.4-.7-1.5-2.1-3.4-1.9-5.1h.2Z"/>
        <path class="st7" d="M247,164.2c-.1.5.2.9.4,1.3.8,1.2,1.6,2.3,2.5,3.5,1.5,2.2,7.4,8.2,4.4,10.7-1.2.9-.7,2.8,0,4.4,1.6,3.3,3.9,6.4,6.2,9.4,1.6,2.5,10.5,12.2,3.9,13h-.2c.2,0,.3,0,.5-.1.1-.1.2-.2.3-.4h0c1.6,6.2,5,11.8,7.4,17.6,2.7,6.1,5.8,12.2,7.3,18.8.1.8.4,2.5-.9,2.3,1.2,0,.7-1.5.6-2.3-.8-2.8-2.1-5.3-3.3-7.9-3.4-6.9-7-13.6-10.3-20.6-1-2.2-2.1-4.4-2.8-6.8-.1-.5-.2-.9-.1-1.5,0-.6.6-1.3,1.3-1.3h.6c-.1-1.7-1.6-3.4-2.5-4.9-3.2-4.8-7.1-9.2-9.4-14.6-.8-1.9-1.4-4.8.6-6.2.2-.2.2-.1.3-.2v-.4c0-1.3-.8-2.5-1.4-3.7-1.6-2.9-3.7-5.6-5.2-8.6s-.4-.9-.3-1.4h0Z"/>
        <path class="st7" d="M250.7,164.2c.4,2.9,12.2,11.7,9.2,14.6-1.5,1.1.9,4.2,1.8,5.4,3.6,4.8,8.1,9.1,12,13.7,1.4,1.6,2.8,3.1,3.8,5.1.3.8.7,1.4.2,2.5-.4.6-1.1.9-1.7.9,0,0-.2,0,0,0,.4,0,.8-.4.7-.8,0,.2.3.8.5,1.1,2.3,4.4,7.8,12.5,10.4,16.8,4,6.5,8.6,12.9,11.2,20,.1.4.2,1.3-.5,1.2.7,0,.5-.8.3-1.1-3.3-6.9-8.3-12.8-12.5-19.1-2.3-3.3-4.6-6.7-6.9-10.1-1.6-2.7-3.7-5.3-4.7-8.4-.1-.5,0-1.1.5-1.4.2-.2.6-.3.9-.3s0,0-.1.2,0,.2,0,0-.1-.3-.2-.5c-4.4-6.8-10.8-12-15.3-18.8-1.2-2-3.8-5.4-1.3-7.4.2-.1,0-.6-.1-1-1.9-4.1-5.4-7.4-7.7-11.2-.2-.4-.6-.9-.5-1.4h0Z"/>
        <path class="st7" d="M254.4,164.1c.2,1,1.4,1.8,2,2.5l2.4,2.3c1.6,1.5,3.2,3,4.7,4.7.8.9,1.8,2,2.2,3.4v.8c-.1.4-.5.5-.5.6s0,.6.3,1c1,1.7,2.5,3.4,4,4.9,4.6,4.7,9.6,9,14.3,13.6,1.8,1.8,3.8,3.5,5.2,5.8.2.5.5.9.3,1.6-.3.8-.9,1-1.5,1h-.1.4c.5-.1.7-.8.6-1.1,0,.1.1.2.2.4,3.4,5,10.5,13.1,14.3,17.9,5.1,6.5,10.6,12.8,14.9,19.8.2.4.4.8.4,1.2v.2h-.2c1,0-1-2.3-1.2-2.6-8.7-10.8-19.4-21.7-28-32.6-.7-1.1-3.9-4.1-1.8-5.2h.5s-.4.1-.5.5,0,.3-.1,0c-2.2-3.2-6.6-7-9.5-9.8-3.2-3.1-6.4-6.1-9.3-9.4-1.4-1.7-6.1-6.3-3.7-8.3h0v-.3c-2-3.7-5.5-6.8-8.2-10.1-.6-.9-1.6-1.7-1.8-2.8h-.3Z"/>
        <path class="st7" d="M258.1,164.1c.5,1.1,1.7,1.7,2.5,2.5,2.7,2.3,5.6,4.6,8.2,7.1.8.9,3.1,2.7,1.9,3.9h0c1.6,2.7,4.3,4.6,6.6,6.8,7.3,6.3,15.1,11.9,22,18.6.5.5,1,1.1,1.2,1.9.2.8-.6,1.6-1.4,1.6h.4c.1,0,.4-.2.5-.5.2-.4.1-.6,0-.8,0-.2,0,0,.1.1,11.7,12.7,25.6,24.9,36.7,38.1.3.4.7.8.8,1.3,0,0,0,.2-.1.1,0,0,.1,0,.1-.1-.5-1-1.5-1.7-2.2-2.5-12-11.8-25.7-23.3-37.1-35.6-.3-.4-.7-1-.4-1.7.2-.4.7-.6,1-.6h-.1c-.4,0-.8.7-.6,1.1-2.8-3.4-7.9-7.2-11.3-10.2-3.6-3.1-7.3-6.2-10.9-9.5-1.4-1.5-8.6-7.3-6.3-9.1h-.1q0,.3,0,.2c-.1-.3-.4-.7-.6-1-2.6-3.1-5.9-6-8.8-8.9-.8-.9-1.9-1.6-2.3-2.8h.2Z"/>
        <path class="st7" d="M261.8,164.1c.2.5,1,.9,1.4,1.3l1.6,1.2c3.6,2.8,7.6,5.4,10.9,8.5.4.4,1.1,1.1.4,1.8h0s.1-.2.2-.3c2.4,2.6,6.1,5.2,9.1,7.6,7.5,5.6,18.1,13,25.2,18.9.5.5,1,.8,1.3,1.6.4.8-.2,1.7-1.1,1.7-.2.2,1.2-.4,1-.8.1-.7,0-.8-.1-.9h0l.6.6c.5.5,3.1,2.7,3.7,3.2,12.5,10.6,26.6,22.3,38.7,33.5l1.4,1.4.7.7.3.4s.1.1.1.2h0c0,.1,0,.2,0,.1.1,0,0-.1,0-.2s-.4-.4-.5-.5c-.4-.4-1.8-1.5-2.3-1.9-13.9-11.1-29.4-23-42.9-34.6-.5-.5-1-.9-1.6-1.5s-.2-.2-.2-.4c0,0-.2-.2,0-.8-.1-.4,1.2-1,1.1-.8-.6,0-1.1.7-1,1.2v.2c0,.2,0,0-.1,0-8-6.9-17.3-13.2-25.4-19.9-3.1-2.6-6.3-4.9-8.9-8-.3-.4-.6-1.1-.2-1.6h0c0-.1,0-.2,0,0v.5c-.1-.1-.3-.3-.4-.5-3.1-3.2-6.9-6.1-10.2-9.1l-1.5-1.3-.7-.7c-.2-.2-.5-.4-.6-.8h0Z"/>
        <path class="st7" d="M265.5,164c4.7,3.3,9.6,6.3,14.3,9.7.6.5,1.4.9,2,1.6.1.2.2.5-.1.8-.1.1.2-.1.1-.2v-.3h0c2.7,2.3,8.7,6.1,11.8,8.2,9.9,6.8,20.2,13.1,29.8,20.5v.2q.1,0,.3.4c.1-.1,0,1.1-.5,1.3-1.4.8.8-.4.4-1.5,0-.1-.2-.2-.2-.2l.3.2c1.1.9,4,3,5.2,3.8,13.8,10.1,28,20.4,41.5,30.9,2.2,1.8,4.6,3.5,6.7,5.4-17.3-12-36-24.5-53-37l-1.8-1.3c-.3-.2-.5-.3-.7-.7-.4-1.2,1.8-2.4.4-1.6-.5.2-.6,1.4-.5,1.3q.1.3.2.4c-.2-.2-.6-.5-.9-.7-11.6-8.4-23.7-16.3-35.1-24.9-1.6-1.3-3.4-2.4-4.8-4,0,0-.1-.1-.2-.4v-.3c0-.1.3-.4.2-.3-.3.3-.2.6-.1.7-4.8-4.2-10.3-7.7-15.1-11.9h-.2Z"/>
        <path class="st7" d="M269.3,164c43.1,25.5,85.9,52.6,127.4,80.8-43.1-25.5-85.9-52.6-127.4-80.8h0Z"/>
        <path d="M27.9,171.6c-.3-.2-.8-1.8-.3-3,.1-.3.8-.1,1.4-.4.2-.1.3-.3.3-.8.1-.7-.1-.9.1-1.1.3-.3.8,0,1.7-.3.7-.2.6-.4,1.3-.6.5-.1.6,0,1.2-.1,1.1-.2,1.3-.6,1.8-.5,0,0,.3,0,.9,1,.4.7.5,1,.9,1.1s.7-.1,1.1,0c.5.2.5.6.5.6,0,.3-.3.5,0,.6s2.1,3.3,1.7,1.2c0-.6.3-1.4.6-1.8.4-.5-.2-.7.3-1.1.3-.3.7-.2,1-.6.3-.3,0-.4.5-.9.2-.2.4-.5.9-.6.2,0,.4-.1.7-.1.5,0,.5.3,1,.3s.7,0,1.4-.1.7-.2,1.2-.3c.6-.1,1.7-.2,1.9,0s-.2.4,0,.5.6.1.9,0c.3-.1.2-.3.4-.4.4-.3,1.2-.3,1.8-.1.3,0,.3.1,1,.4.7.2.9.2,1,.2.2,0,0-.2.4-.3.3-.2,1-.2,1.3,0,0,0,.2.1.4.5.3.5.3.6.5.6.4.1,1.1,0,1.4-.2.7-.2.6-.4,1.2-.6,0,0,1.2-.4,1.9-.2q.2,0,.9.6c.6.5.7.5.9.6.7.1,1.6-.3,1.6-.3.6-.3.5-.5.9-.6.6-.1,1.5,0,1.8.4s-.3.8,0,.9h1.1s.5,0,1.3.1h0s.2-.8.9-.9h1.7c.4.1.3.4.7.5.4.1,1,.1,1.3,0,.5-.1.5-.3.8-.3s1,.2,1.2.5c.3.5-.5.9,0,1.2.2.1.9,4.1,1.8,1.1,0-.4-.6-1.4-.3-1.9.5-.8.8,0,1.1-.6.2-.5.2-1.4.5-1.5.3,0,.4.1,1.1.2h1.4s1.4.3,1.7.8c.3.4-.5.8,0,1.1.3.2,1,.3,1.5.3s.9-.3,1.2-.2c.2,0,.2.2.2.4,0,.4-.2.6,0,.7.2.2.9.2,1.4,0,.8-.3.7-1,.7-1.1,0-.4-.3-.8-.3-.8h0l.7-1h0s1.2-.3,2,0c.4.1.8.5.8.8h0c.2,0,.7-.3,1.5-.4.5-.1,1,0,1.2,0,.3,0,.6,0,.9.1.6.2.7.7.7.8.6-.4,1.2-.4,1.3-.4,1,0,1.9.7,2.1,1.3s0,.5.3.7c.4.2,1.2.1,1.7,0,.8-.3.9-.9.9-1,0-.6-.5-.9,0-1.2.3-.2.8,0,1.2-.3.5-.3,0-.8.3-1.1.4-.2,1.2-.1,1.7,0,.7.2.8.6,1.3.6s.3-.2.9-.3c.6-.2,1.4-.2,1.8,0,.3.1,0,.3.3.4.5.3,1.7.2,1.7.2h0c-.3-.1.8.2,1,.4s-.2.4,0,.5c.2.2,1.1,0,1.5.2.2,0,.2.2.2.4,0,.5-.3.8,0,.9,0,0,.2.1,1.4,0h0s0,.6.3.8,1-.1,1.4,0c0,0-.4-1.3-.6-.7-.5,1.8-81,9-89,4.1h-.4Z"/>
        <g class="st6">
          <g>
            <path class="st1" d="M-95.2,174.4H31.3"/>
            <path class="st2" d="M-95.2,173.4H32.7"/>
            <path class="st2" d="M118.6,172.4h35.2"/>
            <path class="st2" d="M40.6,172.5h3"/>
            <path class="st2" d="M-95.2,172.5H37"/>
            <path class="st2" d="M119.5,171.5h34.3"/>
            <path class="st2" d="M73.3,171.5h8.8"/>
            <path class="st2" d="M-95.2,171.5H46.4"/>
            <path class="st4" d="M119.5,170.5h34.3"/>
            <path class="st4" d="M69.7,170.6h22.2"/>
            <path class="st4" d="M55.7,170.6h5"/>
            <path class="st4" d="M-95.2,170.6H47.3"/>
            <path class="st4" d="M119.1,169.6h34.7"/>
            <path class="st4" d="M101.5,169.6h4.1"/>
            <path class="st4" d="M67.5,169.6h25.9"/>
            <path class="st4" d="M54.2,169.6h6.4"/>
            <path class="st4" d="M-95.2,169.6H47.9"/>
            <path class="st4" d="M114.3,168.7h39.6"/>
            <path class="st4" d="M-95.2,168.7H107.2"/>
            <path class="st3" d="M112.7,167.8c13.7-.1,27.4-.1,41.1,0"/>
            <path class="st3" d="M-95.2,167.8c67.9-.1,136-.1,203.9,0"/>
            <line class="st3" x1="-95.2" y1="166.8" x2="153.8" y2="166.8"/>
            <line class="st3" x1="-95.2" y1="165.9" x2="153.8" y2="165.9"/>
          </g>
        </g>
        <path d="M175.1,145.4h.1c0-.2.2-.4.2-.6s0-.1.1,0c.2.1.3.2.4.4,0,0,0,.1.1.1,0-.1.1-.3.2-.4,0,0-.1-.2-.1-.3,0,.2-.1.1-.2,0s-.1-.1-.1-.3v-.3c-.1-.2-.2-.4,0-.6.1-.3,0-.6,0-.9s-.1-.9-.2-1.3c0-.2,0-.4.2-.5.1-.1.3,0,.4,0,.3,0,.6,0,.7-.4.2-.3.3-.6.5-.9.1-.2.2-.4.5-.5h.1c.3-.3.5-.7.6-1,0-.1,0-.4.4-.3h0c.4,0,.7-.3.9-.7,0-.1.1-.2.3-.2s.3,0,.4-.2c.1-.2.1-.4.2-.6,0-.2,0-.4.1-.5h.1c0,.2.1.4.1.6,0,0,0,.2.1.1.1,0,.3,0,.3-.2s.1-.5,0-.7v-1.4h0q0-.1.1,0c0,.2.1.4.2.5,0,0,0,.1.1.1v-.8c0-.1.1-.3,0-.4,0-.2-.1-.4-.2-.7,0-.3-.2-.5-.4-.7-.2-.3-.5-.3-.6-.6-.2,0-.4-.1-.6-.1h-2.1c-.3,0-.6.1-.9.4-.1,0-.2.2-.3.3s-.3.2-.5.3c-.1,0-.2.1-.4.2-.4.2-.6.6-.9.9s-.4.3-.7.3h-.5c-.4.1-.9,0-1.3,0,0,0-.1,0-.1-.2s0-.2-.1-.4v-.3c0-.3,0-.6-.1-.8-.2-.5-.5-1.1-.9-1.5s-.5-.6-.8-.8c-.2-.1-.2-.3,0-.4.3-.2,0,0,0,0,0-.1.1-.2,0-.3,0-.1-.2,0-.2,0h-.2c0-.2,0-.3-.1-.3h-.1c.1-.1.2-.3.2-.5s0-.2-.2,0c-.2,0-.3,0-.3-.2v-.2h-.2s0,0-.1,0h0c0-.2,0-.3-.2-.3s-.1,0-.2.2l-.3.3h0v-.3s-.1,0-.2-.2q-.1,0-.1.2c0,.2-.1.4-.3.5v.2c0,.3,0,.5-.2.8-.2.2-.2.5-.1.7h0c-.1.1-.3.2-.4.2h-.2s0,.1-.1.1h-.1c.2.1.4.3.6.3s.2.2.3.2c0,0,0,.1-.1.2,0,.1-.1.2-.2.3v.9c0,.2.1.4.3.5.1,0,0,.1,0,.2,0,.4-.1.8-.2,1.2v1.2c-.2.3-.1.5-.1.8s.3.9.6,1.3c.3.3.5.7.8,1,.2.3.5.5.7.7s.6.6,1,.8c.1,0,.2,0,.4.1.3.2.6.4.9.5.2,0,.2.1.2.3,0,.4,0,.8.5,1,0,0,.2,0,.2.1,0,0,.1,0,.1.1,0,.2.1.4.1.6h0c-.1.1-.1.2-.1.3v1.2c0,.1-.2.2,0,.3h0c0,.2-.1.3-.2.4-.3.3-.5.6-1,.6h0c-.1,0-.2.1,0,.2v.2c-.1,0-.2.2-.3.3-.2.1-.2.3,0,.4h-.1s-.1,0,0,.1h.7c.1-.1.3-.2.5-.4,0-.1.2-.2.3-.3.1,0,.2-.1.3,0s0,.1,0,.2h0c0,.3.1.4.3.4s.3,0,.3-.2v-.4c0-.2.1-.3.2-.5h0c0,.2.2.3.4.4h.2v-.2c0-.1,0-.3-.1-.4,0-.2,0-.3.2-.3,0,0,.1,0,0,0v.5c0,.2.2.4.4.3h.1ZM174.7,143.6c-.2,0-.3,0-.4.2,0,0-.1.1-.2,0v-.2h0c0-.4,0-.8-.1-1.2v-.3c.1,0,0-.2,0-.3s.2-.3.3-.2.1.1.1.2c0,.2,0,.4.2.6.1.2.2.4.1.7v.4s0,.1-.1.1h0Z"/>
        <path class="st7" d="M124.6,136.3c-.4-.9.7-.8.8-1.3h-1.8c0,.5.9.6.6,1.3-.2,0-.4-.1-.5-.2,0,.1.2.3.2.4,0,0,0,0,.2.1.6,0,1.2,0,1.6-.4-.4,0-.8.1-1.1.2h0Z"/>
        <path class="st7" d="M130.4,129.9c1.8-.3,2.9-1.9,2.9-3.5-.6,0-1.6,0-2.2.3-.8.4-1.4,1.1-1.7,1.9h.2-.3c.1-.9.7-1.9,1.5-2.4.7-.5,1.7-.7,2.5-.5.1,0,.4,0,.5.3.3.5.1.7.1.9-.2,1.7-1.8,3.3-3.5,3h0Z"/>
        <path class="st7" d="M120.2,127c-.8-1.6,1.4-1.7,2.4-1.1,1,.7,1.4,2,1.2,3.1-.4-1-.8-2-1.6-2.5-.4-.3-1.4-.6-1.8-.2,0,.2,0,.5-.2.7h0Z"/>
        <path class="st7" d="M127.2,132.8c0-.5.2-1.1.8-1.4.2-.1.6-.1.9,0,.1,0,.3.4.2.5-.1.2-.4.5-.6.6-.4.2-.8.2-1.2.3h0Z"/>
        <path class="st7" d="M106.7,113.2c-.4-.3-.6,0-1,0-3.2,1.6-4.7-2.7-.9-2.7s.2,0,.4-.3c.5-.3,1.1-.2,1.5,0s.9.2,1.1.6c-.4-.2-.7,0-1.2,0s-.7,0-.8.3c0,0-.4.4-.5.5-.6.3-1,0-1.4.5,0,0,0,0,0,0v.2c.4.5,1.1.5,1.7.4.4,0,1.1,0,1.2.4h0Z"/>
        <path class="st7" d="M114.8,111.6c.9.6,1.9.3,2.6-.5.3-.5,1.3-.8,1.4-1.3,0,0,0,.3.2.3h-.2c-.4,0-.6.3-1,.4-.5.2-1.3,0-1.8-.3h-.3c-.6,0-1.3.4-1.9.3-1.1-.2-2.2-.8-3.3-.9-.7,0-1.4-.2-2.1-.2,1.3-.5,2.9-.4,4.3-.2.7,0,1,.4,1.8,0,.7-.2,1.7-.5,2.4,0,.5.2,1.2-.2,1.7-.3,1.9-.4,1.5,1.6.2,2.1-.7.3-1.1.9-1.9,1-.7.2-1.6,0-2-.7h0v.3Z"/>
        <path class="st7" d="M114.1,114.9c-.2,0-.4.2-1,.2s-.7,0-.8,0c0,0,0,.3.2.5.3.4.4.6.7.7h1.2v.3s.2-1.5-.2-1.8h0Z"/>
        <path class="st7" d="M116.4,122.7s-.3,0-.4,0c0,0,0,.3-.2.5,0,.3,0,.5.3.9,0,.2.2.3.2.3,0,0,.2,0,.3,0,0,0,.4-.3.4-.5l-.3-.2c0,0-.3-.2-.4-.4,0-.2.2-.3,0-.5h0Z"/>
        <path class="st7" d="M113.5,122.1c.7.6,1.5,1.2,1.2,2.1h0c0-.3,0,0,0,0s.4.2.5.3c.2.3.6.2,1.2,0-.3.8-1.2,1.2-1.9.8-.3,0-.6,0-.8-.5-.2-.2,0-.8,0-.9h0c-.2-.5-.3-1-.2-1.6h0v-.2Z"/>
        <path class="st7" d="M105.8,119.9c.6,0,.9-.2,1.2-.5h.2c.4.2,0,.7.4.7.9,0,1.8.4,2.5.7.5.2,1.4.7,1.7,1.2.3.4,1.1.7,1.2,1.3,0,.3,0,.4,0,.6,1.1.6,1,2,1.5,2.9.4.8,1.1,1.1,1.6,1.9.5.9,0,1.6.8,2.4.6.6,1.1,1.4,1.3,2.2-.6-1.3-2.1-1.7-2.5-3,0-.5,0-.8-.3-1-.4-.5-1.3-1-1.8-1.8-.7-1.2-.5-2.1-1.4-2.6-.4-.4-.4-.8-.4-1.2-.4-.3-.9-.8-1.2-1.3-.4-.4-1.5-.9-2-1.2-.4-.3-1.1-.2-1.5-.6s-.2-.6,0-.8c0,0,0,0,.2,0-.4.3-1,.4-1.4.2h0Z"/>
        <path class="st7" d="M116,112.5c1.6,2.4,2.9,5.4,2,8.3v.8c0,.3,0,.7-.3.8,0,0-.2.3-.3.6v-.7c.2-.3,0-.3,0-.4-.2-.2-.5-.8-.4-1.2,0-1.3,0-2.8-.3-4.2-.4-1.3-.6-2.7-.8-4h.1Z"/>
        <path class="st7" d="M112.8,105.3c2.1,1.5,4.3,2.7,6.8,3.1,2.6.6,5.1,1.5,7.2,3.4,2.5,2.5,2.8,5.8,4.7,8.3.4.5.9.7,1.5,1,.6.4,1,1,1.2,1.7s.2,1.3.2,1.9c-.2-1.2-.7-2.6-1.7-3-1.3-.3-2.5-1.3-3.1-2.6-1.2-2.2-2.1-4.6-3.8-6.4-1.7-1.6-4.2-2.6-6.4-3.3-2.6-.7-4.9-2.2-6.5-4.2h0Z"/>
        <path class="st7" d="M153.6,102.2c.4,0,.5-.5.8-.5s.3.2.8.7c.1,0,.2.2.2.3l-.7.2h0s-.3.2-.6.2c0,0-.1,0-.6-.2s-.6-.2-.6-.3,0-.3.1-.4c.2,0,.3,0,.6,0h0Z"/>
        <path class="st7" d="M160.4,102.8h.8c.3,0,.3-.3.6-.4.1,0,.4,0,.6,0,.2,0,.3.4.2.6,0,.2-.3.2-.5.3-.5,0-.9,0-1.1,0-.3,0-.7-.3-.6-.4h0Z"/>
        <path class="st7" d="M151.5,103c-1.2,0-2.4,0-3.5-.5-1.6-1.3,0-2.5,1.4-2.8.3,0,.6-.2.9,0q.3.2.6.4c.8.6,1.6,0,2.2-.6-.3.6-.9,1.3-1.7,1.3s-.9-.3-1.3-.5c-.5,0-1.2.4-1.6.6-.4.3-.5.4-.4.7.7,1.1,2.3,1,3.4,1.4h0Z"/>
        <path class="st7" d="M163.1,100.7c.9-.2,2-.6,2.8,0l1.1.8c.3.3.6.3.9.7.3.5.1,1.1-.4,1.4-.7.2-1.4,0-1.9.4-.2,0-.3.4-.6.4-.6.2-1.6-.6-1.6.4-.3-.9,1.1-.7,1.5-.8h.1c.2-.4.6-.7,1-.7s1-.2,1.2-.3c0,0,.1,0,.1-.2s0,0-.1-.2c-.6-.4-1.1-.8-1.6-1.3-.6-.6-1.6-.3-2.4-.5h-.1Z"/>
        <path class="st7" d="M160.6,101c-.2.7-.2,1.3,0,1.9.6,2.1-.5,4.2-1.6,5.9.3-1.1.9-2.7,1-3.8.3-1.3-.5-2.8.6-3.9h0Z"/>
        <path class="st7" d="M156.9,108.3c.4,0,.6,0,1-.2.3,0,.9,0,1.1.2-.2.2,0,.2.4,0,.3.4.2.9-.4,1h-.8c-.6,0-1.4-.3-1.3-1h0Z"/>
        <path class="st7" d="M156.1,109.8c1.1-.2,1.8,0,3.1.2-.9.7-2.3.7-3.1-.2h0Z"/>
        <path class="st7" d="M158,110.6c-.6-.6-.4-1.4.2-1.9.4.7.2,1.3-.2,1.9h0Z"/>
        <path class="st7" d="M147.7,121.6c-.9-.3-1.1.4-1.7.7l-.4.3v-.2h.2c.3,0,.6.2,1,.2-.4.3-1.3.6-1.7,0-.2-.4.3-.7.5-.9.6-.4,1.6-1.2,2.1-.2h0Z"/>
        <path class="st7" d="M143.3,119.1c-.9,0-1.2.3-1.8.5,0,0,.1,0,0-.3,0-.2-.2-.3-.2-.3,0,0,.2,0,.3.2.4.3.6.8.4,1.2-.5-.4-.7-.3-1.2-.4,0,0-.3-.2-.4-.5,0-.4.1-.5.3-.7.7-.6,2-.5,2.5.4h0Z"/>
        <path class="st7" d="M143.4,123.7c.8-.2,1.6.2,2.4.3.7,0,1.1,0,1.8-.5s1.6-.8,2.3-1.2c.3-.2.5-.3.5-.7,0,0,0,0,0,0h-.1c-.2,0-.3,0,0-.2.1,0,.3,0,.4.2.2.3,0,.9-.3,1.2-.7.7-1.3,1-2.2,1.6-.7.4-1.9.8-2.7.3-.8-.4-1.2-.9-2-1.2h0v.2Z"/>
        <path class="st7" d="M150.7,121.5c.3-.8-.7-1.1-1.2-1.4l-1-.5c-.7-.2-1-1-1.6-.9-1,.2-2,.7-3,1.1-.6.2-.5.4-.8,1-.2.5-.8.8-1.1,1.2-.1.3,0,.5-.1.9-.1.5-.6.9-1,1.1-1,.5-1.6,1.1-2,2.1-.4.9-1.1,1.7-.8,2.6.1.5.5,1.5.6,2.1.5,1.7-.4,3.7,0,5.5.3,1.2.6,3.1.8,4.3,0,.7,0,1.5-.1,2.2,0-.7,0-1.4-.2-2.2-.5-2.1-1.5-4.2-1.4-6.5,0-1.1.4-2.1,0-3-.2-.6-.6-1.4-.7-2.1-.5-1.2.4-2.5.9-3.5.4-.7.8-1.4,1.5-1.9.9-.7,1.6-.6,1.5-1.4,0-.8.6-1.2,1.1-1.6.4-.3.5-1,1-1.3.9-.5,1.8-.6,2.8-.9.7-.2,1.8-.5,2.3.3.4.5,1.2.9,1.7,1.3.6.4,1.5.9,1.1,1.7h0l-.3-.2Z"/>
        <path class="st7" d="M149.2,124.8c.8.2,1.6.4,2.3.7,1.4.9,1.1,2.8,1.5,4.2,1.4,2.8,1.6,6.1,2.5,9,.3,1.1-.4,2.1-.9,3,0-.1,0,0,0,.1-.2.5-.9.6-1.4.8-.2,0-.5.1-.5.4.5-.8,1.8-.8,1.7-1.8.3-.8.7-1.7.4-2.3-1.2-2.4-1.4-5.2-2.3-7.7-.4-.8-.7-1.9-.6-2.8,0-.8,0-1.9-.7-2.5-.6-.4-1.4-.7-2-1.1h0Z"/>
        <path class="st7" d="M152.2,129.6c.6,1,1.7,1.8,1.8,3,0,.7-1,.8-1.4.7-1.7-.2-2.7-1.9-3.2-3.4-.2-.5-.2-.9-.6-1.2-.4-.4-.5-1-.3-1.5,0,1,.8,1.1,1.2,1.7.7,1.4,1.4,3.1,3,3.5h.4c0-1-.8-1.9-1-2.9h.1Z"/>
        <path class="st7" d="M142.6,128.8c0,2.8,1.9,4.6,3.7,6.5,1.6,1.8,2.8,3.4,1.4,5.7-.3.6-.6,1.2-1.1,1.7.4-1.1.9-2.5.8-3.7-.4-1.6-2.3-3.1-3.3-4.4-1.4-1.5-2.2-3.8-1.5-5.8h0Z"/>
        <path class="st7" d="M165.4,120.8c-.1,2.5-.7,5.4-2.8,7.2-.6.5-1,1-1.2,1.8-.3,2.5.5,5,.2,7.6-.1.5-.6.9-1,1-.4.2-.9.2-1,.6,0-.2.1-.4.3-.6.5-.3,1.2-.6,1.2-1.2,0-2.6-.9-4.9-.6-7.6.1-.9.8-1.8,1.6-2.3,1.9-1.6,2.6-4.1,3.3-6.5h0Z"/>
        <path class="st7" d="M137.6,132.2c.1-1.9,1-3.9,2.7-5.1,1.7-1,3.6-1.2,5.4-1.9,1.1-.5,2.3-1,3.4-1.5-.9.9-2,1.6-3.1,2.2-1.6,1-3.6,1.2-5.2,2-1.6.9-2.5,2.6-3.1,4.3h0Z"/>
        <path class="st7" d="M145.7,120.1c0,1.4-.6,2.6-1.3,3.8-.2-1.4.4-2.8,1.3-3.8h0Z"/>
        <path class="st7" d="M152.6,130.5c.2-2.4.4-4.7,1.1-7,.3-.8.6-1.6,1.2-2.2.6-.5,1.1-1,1.6-1.6,1.4-1.9,3.3-3.3,5.1-4.9,3.5-3.3,4.8-7.8,5.9-12.3.6-1.5,1.4-2.9,2.5-4-.9,1.3-1.6,2.7-2,4.2s-.5,3.1-.9,4.6c-1,3.8-3.4,7.4-6.7,9.7-1.9,1.4-3.1,3.4-5,4.9-2,2.2-2.1,5.8-2.8,8.6h0Z"/>
        <path class="st7" d="M151.6,104.1c.4,1.5.8,2.8,2,3.8.8.8,2.3,1.4,3,2.5.5.8,1.4,1.4,1.7,2.3.4,1.2.3,2.3.2,3.5,0,.4,0,.7-.2,1.2-.1.4-.4.6-.6,1-.2.3-.2.7-.4,1v-1.2c0-.4.4-.8.4-1,0-1.3.2-2.9-.2-4.2-.2-.7-1.2-1.3-1.6-2.1-.8-1.1-2-1.3-2.9-2.5-1.1-1.2-1.4-2.7-1.3-4.3h0Z"/>
        <path class="st7" d="M144.1,118.9c.6,0,1.6-.2,2.1-.6.3-.5,1-1.1.9-1.8-.2-1.7-.2-3.3-1.1-4.6-1.2-2.8.6-6,2.1-8.3-.6,2.6-2,5.2-1.1,7.7.6.8.8,1.9.8,2.9s.2,2.6-.6,3.5c-.2.3-.5.4-.6.7-.6.6-1.7.4-2.5.4h0Z"/>
        <path class="st7" d="M168.9,139.9c0-.1.3-.3.6-.4h.4c.3,0,.5.3.4.5,0,0-.1.1-.3.1h-.6q-.4,0-.4-.1h0Z"/>
        <path class="st7" d="M171.9,138.9s0,.4.2.6c.1.2.2.3.2.3.1,0,.3-.1.3-.3s0-.2-.1-.2c0-.1-.1,0-.4-.2h-.2v-.2Z"/>
        <path class="st7" d="M172.3,141.5c-.3.2-.4.6-.3,1,0,.2.2.2.3.6v.2c0,.4-.6.8-1.2.9-.7.1-1.2-.2-1.3,0,0,.1,0,.3.1.5.1.1.3.2.9,0,.4,0,.8-.1,1.3-.3.2,0,.5-.2,1-.5.5-.2.5-.3.6-.4.1-.3-.1-.5,0-1,0-.3.1-.3,0-.5,0-.3-.3-.5-.5-.6-.3-.1-.5,0-.7,0s-.2,0-.2.1h0Z"/>
        <path class="st7" d="M166.2,139.4c.2,1.1-.2,2.1-.5,3.1-.1.3-.1.6-.2,1-.3-.3-.5-.6-.6-1.1,0-1.2.4-2.2,1.2-3h.1Z"/>
        <path class="st7" d="M173,139.4c0,.3,0,.5.2.7.2.4.8.7.9,1.2v.8c-.2-.5-.4-.9-.8-1.2-.4-.4-.6-1.1-.2-1.6h0Z"/>
        <path class="st7" d="M133.1,160c1.9-.8,3-2.2,4.5-3.5,1.7-1.1,3.9-.3,5.8-.7,1.8-.4,3.9-.6,5.8-.5,3.8-.2,7.6-.6,11.5-1.2.9-.1,2.1-.2,3,.1,2.7.9,5.6,1.2,8.5,1.1,1.9,0,3.9,0,5.8.1-1.9.1-3.9.2-5.8.4-1.9.1-3.9.1-5.8-.2-1.9-.2-3.6-1.1-5.6-.7-3.8.7-7.7,1-11.6,1.2-2,0-3.7.1-5.7.4-1.8.3-3.9-.6-5.6.4-1.5,1.1-2.9,2.6-4.8,3.1h0Z"/>
        <path class="st7" d="M159.9,138.2c2-2.2,4.8-3.7,7.9-3.7,3.1-.2,6.2,2.5,6.1,5.6-1.9-6.5-9.6-5.3-13.9-1.9h-.1Z"/>
        <path class="st7" d="M150.6,145.6c-1,2.1-1.6,4.2-2.3,6.4-1.3,3-4.8,4.6-7.9,4-.7,0-1.5,0-2.2.2.7-.4,1.4-.6,2.2-.6,2.9.2,5.8-1.2,7.1-3.9.8-2.1,1.6-4.3,3.1-6.1h0Z"/>
        <path class="st7" d="M160.8,155.1c1.3-4.3,4.4-3.9,8.1-3.8,1.3,0,2.3,0,3-1.2.4-.4.8-1.2,1.3-1.4-.4.4-.6,1.1-.9,1.6-.8,2.1-3.6,1.8-5.4,1.8s-2.6-.1-3.5.4c-1,.5-1.9,1.4-2.7,2.5h0Z"/>
        <path class="st7" d="M123.8,128c.2.3,0,.8,0,1.2,0,.7-.4,1.8-.3,2.5.7,1.3.2,3,.7,4.4,0,.2.3.4.6.6.2.1.4.1.7,0,1.1-.6,2.2.3,2.6,1.2.6,1.1.4,2.6.3,3.8,0,.8-.2,1.6-.3,2.4-.3-1.5-.3-3.2-.6-4.7,0-.6-.6-1.4-1-1.6-.3-.1-.2,0-.6,0-1,.4-2.3-.2-2.7-1.3-.5-1.8.3-3.3,0-4.9,0-.7.4-1.6.6-2.4,0-.4.3-.8.2-1.2h-.2Z"/>
        <path class="st7" d="M116.8,142.8c2,.7,3.6,1,5.5.5,1.6,0,1.8,2.1,2.1,3.2.3,1.5.7,2.9,1,4.4s.9,2.9,1.3,4.4c-.9-1.3-1.7-2.6-2.2-4.1-.9-2-1.2-4.5-1.8-6.4-.2-.4-.4-.4-.9-.3-1.9.3-3.7-.6-5-1.6h0Z"/>
        <path class="st7" d="M128.2,151.2c.9,1.3,1.4,2.6,1.4,4.2-1.2-1.1-1.7-2.6-1.4-4.2h0Z"/>
        <path d="M167.6,98.6c.3.2.3.3,0,.6,0,0-.1.2-.2.3-.2,0-.3,0-.3-.2v-.5c0-.2.1-.2.2-.2s.1,0,0-.2c-.2-.3-.3-.6-.3-.9v-.3c-.1-.3-.2-.7-.3-1,0,0,0-.2-.2,0-.3,0-.6.2-.9,0-.1,0-.2,0-.2,0v.4c0,.3.1.5.1.8v.8h1.2c.1,0,.2.2.1.3v.3s0,.2-.1.2-.1,0-.1.2v.2c0,.2-.1.3-.3.2-.3-.2-.6-.4-.9-.6h0c.1-.3-.1-.3-.2-.3s-.2,0-.1.2c0,.2-.2.4-.4.4h-.4c-.1,0-.2,0-.1,0,0-.3.2-.5.5-.5s.2,0,.2-.2v-.4c0-.4-.2-.8-.4-1.1,0-.3-.1-.6-.3-.8,0,0-.1-.2-.3-.3-.3,0-.6-.2-.9-.2s-.7-.2-1-.5h-.1c-.2-.2-.4-.3-.4-.6s0-.3-.2-.4v-.2c0-.5-.2-.9-.2-1.4s-.1-.2-.2-.3c-.4-.2-.6-.4-1-.6s-.3-.3-.4-.5c-.2-.4-.4-.8-.5-1.2v-.3c0-.2-.1-.4-.4-.4s-.4,0-.4-.4-.1-.2-.2-.3c0,0-.2,0-.2-.3s.1-.2.3-.2h.3c-.1,0-.2,0-.3-.3,0,0-.1,0-.2,0s-.2,0-.3,0c-.1,0-.2-.2-.2-.3s.1,0,.2-.2c.2,0,.4-.2.6-.2.3,0,.5,0,.8,0h1.3c.2,0,.5.2.7.3.3,0,.6.3.9.6.2.2.4.3.6.5.4.3.8.4,1.2.4s1,0,1.5-.2c.3,0,.6-.2.9-.3.2,0,.2-.3.3-.4.4-.3.6-.9.7-1.4,0-.2,0-.3.2-.4,0,0,.2-.2.1-.3h0c.2-.3.5-.5.7-.7.2,0,.3-.3.5-.4.1,0,.3,0,.4,0,.1,0,.2,0,.3-.2.2-.3.4-.4.7,0,.1,0,.2.2.4,0,.2,0,.4,0,.4.3s.2.5.3.7c.2.2.2.4,0,.6v.3c.1,0,.3.3.4.4,0,0,.1.2,0,.3-.1,0-.2.2-.4.2h-.2c-.1,0-.2,0-.1.2,0,.3,0,.6-.4.7-.1,0-.1,0,0,.2,0,0,.1.3.2.4.2.6.5,1.2.6,1.8,0,.7,0,1.3-.4,1.9,0,0-.1.2-.2.2-.1.2-.2.4-.3.6-.2.4-.4.8-.8,1-.2,0-.4.3-.5.5-.6.4-.8,1.1-1,1.7v1.6c0,.2.1.3.4.2.4,0,.8-.2,1.3-.2h.3v.4c-.1.2-.2.4-.5.4s0,0-.1,0h.1c.3,0,.4.3.3.5,0,0-.1.2-.2.2-.4,0-.7,0-1.1-.2h-.1c-.1-.2-.3-.3-.6-.2h0l-.2-.6Z"/>
        <path d="M122.3,94.1h0c0-.2.2-.4.2-.6s0,0,0,0c.2,0,.3.2.4.4h0s0-.2.2-.3c0,0,0-.2,0-.3,0,.2,0,0-.2,0,0,0,0-.2,0-.3v-.3c0-.2-.2-.4,0-.7,0-.3,0-.6,0-.9s0-.9-.2-1.3c0-.2,0-.3.2-.5s.3,0,.4,0c.3,0,.6,0,.7-.4.2-.3.3-.6.5-.9,0-.2.2-.4.5-.5h0c.3-.3.5-.7.6-1,0-.2,0-.4.4-.3h0c.4,0,.7-.3.9-.7,0,0,0-.2.3-.2s.3,0,.4-.2c0-.2.2-.4.2-.7s0-.4.1-.5h.1c0,.2.1.4.1.6,0,0,0,.2.1,0,.1,0,.3,0,.3-.2s.1-.5,0-.7v-1.4h0q0,0,.1,0c0,.2.1.4.2.5,0,0,0,.2.1,0v-.9c0-.2.1-.3,0-.4,0-.2-.1-.4-.2-.7,0-.3-.2-.5-.4-.7-.2-.3-.5-.3-.6-.6-.2,0-.4,0-.6,0h-2.1c-.3,0-.7,0-.9.3,0,0-.2.2-.3.3s-.3.2-.5.3c0,0-.2,0-.4.2-.3.2-.6.6-.9.8-.2.2-.4.3-.7.3h-1.8s0,0-.2-.2c0,0,0-.2,0-.4v-.3c0-.3,0-.6,0-.8-.2-.5-.5-1.1-.9-1.5s-.5-.6-.8-.8c-.2,0-.2-.3,0-.4.3-.2,0,0,0,0,0,0,0-.2,0-.3,0,0-.2,0-.2,0h-.2c0-.2,0-.3,0-.3h-.2c.2,0,.2-.3.2-.5s0-.2-.2,0c-.2,0-.3,0-.3-.2v-.2h-.2s0,0,0,0h0c0-.2,0-.3-.2-.3s-.2,0-.2.2l-.3.3h0v-.3s0,0-.2-.2q0,0,0,.2c0,.2,0,.4-.3.5v.2c0,.3,0,.5-.2.8-.2.2-.2.5,0,.7h0c0,0-.3.3-.4.2h-.2s0,0,0,0,0,0,0,0h0c.2,0,.3.3.6.3s.2.2.3.2c0,0,0,0,0,.2,0,0-.2.2-.2.3v.9c0,.2,0,.4.3.5v.2c0,.4-.2.8-.2,1.2v1.2c-.2.3-.2.5,0,.8,0,.4.3.9.6,1.3.3.3.5.7.8,1,.2.3.5.5.7.7s.6.6,1,.8c0,0,.2,0,.4.2.3.2.6.4.9.5.2,0,.2,0,.2.3,0,.4,0,.8.5,1,0,0,.2,0,.2,0h0c0,.2,0,.4,0,.6h0q0,0,0,.2v1.2c0,0-.2.2,0,.3h0c0,.2,0,.3-.2.4-.3.3-.5.6-1,.6h0c0,0-.2.2,0,.2v.2l-.3.3c-.2.2-.2.3,0,.4h0,.7c0,0,.3-.2.5-.4l.3-.3h.3v.2h0c0,.3,0,.4.3.4s.3,0,.3-.2v-.4c0-.2,0-.3.2-.5h0c0,.2.2.3.3.4h.2v-.6c0-.2,0-.3.2-.3,0,0,0,0,0,0v.5c0,.2.2.3.4.3h0v.9ZM121.9,92.3c-.2,0-.3,0-.4.2,0,0,0,0-.2,0v-.2h0c0-.4,0-.8,0-1.2v-.6c0,0,.2-.3.3-.2l.2.2c0,.2,0,.4.2.6s.2.4,0,.7v.4s0,0,0,0h0Z"/>
      </g>
    </g>
  </g>
</svg>