<svg xmlns="http://www.w3.org/2000/svg" width="220" height="41" viewBox="0 0 220 41">
<path d="M64.8 41a20.5 20.5 0 100-41 20.5 20.5 0 000 41zm-44.3 0a20.5 20.5 0 100-41 20.5 20.5 0 000 41zm96-8.5h5.3V18.8a8 8 0 00-2.3-6 7.5 7.5 0 00-5.3-2c-2.6 0-4.6.9-6.4 2.8a6.6 6.6 0 00-5.6-2.7c-2 0-4 .7-5.4 2.2v-2h-5.2v21.4H97v-13c0-2.9 1.8-3.8 3.5-3.8s3.6 1 3.6 3.9v12.9h5.3v-13c0-2.9 2-3.8 3.6-3.8s3.5 1 3.5 3.9zm34 0h5.4V18.8a8 8 0 00-2.4-6 7.4 7.4 0 00-5.2-2c-2.7 0-4.6.9-6.4 2.8a6.6 6.6 0 00-5.7-2.7c-2 0-3.9.7-5.3 2.2v-2h-5.2v21.4h5.3v-13c0-2.9 2-3.8 3.6-3.8 1.7 0 3.5 1 3.5 3.9v12.9h5.4v-13c0-2.9 1.9-3.8 3.5-3.8 1.7 0 3.6 1 3.6 3.9zm25.5-2.7l-3.6-3.6c-1.1 1.2-2 1.7-3.5 1.7-1.2 0-2.2-.4-3-1.4-.8-1-1.2-2.5-1.2-4.7 0-2.3.4-3.7 1.2-4.7.8-1 1.8-1.4 3-1.4 1.4 0 2.4.4 3.5 1.6l3.6-3.6a9.1 9.1 0 00-7-2.8c-4.3 0-9.6 2.2-9.6 10.9 0 8.6 5.3 11 9.5 11 3 0 5.2-1 7-3zm3 2.7h5.4V11H179zm6-26.7a3.3 3.3 0 00-3.3-3.3 3.3 3.3 0 00-3.3 3.3 3.4 3.4 0 003.3 3.4c1.9 0 3.3-1.5 3.3-3.4zm11.1 26.7h3V28h-2c-1.3 0-1.9-.7-1.9-2V15.8h3.8v-4h-3.8V5.3H190v6.3h-2.2v4h2.2v10.7c0 3 1.9 6 6.2 6zm10.6-9c0 2.7 1.7 4.7 4.7 4.7a6 6 0 004.8-2l3.3 3.2a10.2 10.2 0 01-8.1 3.3c-5 0-10-2.3-10-11 0-6.9 3.8-10.8 9.4-10.8 6 0 9.3 4.3 9.3 10.2v2.3zm8.1-3.7c0-1-.1-1.5-.5-2.3-.5-1.3-1.7-2.2-3.5-2.2s-3 1-3.6 2.2c-.3.8-.4 1.4-.5 2.3zm-2-11l4.3-6h-6.4l-2.3 6z"></path>
</svg>