<?xml version="1.0" encoding="UTF-8"?>
<!-- Generator: Adobe Illustrator 26.3.1, SVG Export Plug-In . SVG Version: 6.00 Build 0)  -->
<svg version="1.1" id="Layer_1" xmlns="http://www.w3.org/2000/svg" xmlns:xlink="http://www.w3.org/1999/xlink" x="0px" y="0px" viewBox="0 0 848.4 848.4" style="enable-background:new 0 0 848.4 848.4;" xml:space="preserve">
<path d="M848.4,458.9c-58.4,38.7-114,84.5-198.5,84.5c-97.7,0-179.9-45.2-195.6-143.3c-11.5-71.5-12.9-261.4-12.9-325.9V0h1.4  c38.7,80.3,107.4,128,107.4,210.8c0,41-13.5,67.5-33.8,106.5c-10.6,20.4-26.4,46.4-26.4,70.4c0,14.1,6.6,27.7,30.9,27.7  c47.8,0,74.8-24.9,136.9-24.9c71,0,121.8,25.7,190.5,66.7V458.9z"/>
<path d="M0,457.2c68.8-41,119.5-66.7,190.5-66.7c62.2,0,89.1,24.9,136.9,24.9c24.4,0,30.9-13.6,30.9-27.7c0-24-15.8-50-26.4-70.4  c-20.3-39-33.8-65.6-33.8-106.6C298.2,128,367,80.3,405.6,0h1.4v73.7c0,65-1.4,254.9-12.9,326.4c-15.8,98.1-98,143.3-195.6,143.3  C114,543.4,58.4,497.6,0,458.9C0,458.9,0,457.2,0,457.2z"/>
<path d="M241.3,670.5c-8-13.5-27.5-24.6-60.4-24.6c-24.4,0-42.4,7.5-42.4,27.5c0,45.5,113.4,37,113.4,107.4c0,41-29.5,67.6-88,67.6  c-28.6,0-55-4.6-71-11.8c-1-8.5-1.5-17-1.4-25.5c0.1-8,0.5-16.1,1.4-24.1h1.7c16.9,22,44.7,29.5,72.2,29.5  c26.9,0,41.2-10.9,41.2-29.2c0-45.8-112.3-33.2-112.3-106.8c0-40.4,30.7-65.6,88.2-65.6c14.9,0,43.2,1.7,59,8.9  c0.9,3.7,1.1,13.5,1.1,20.9c0,10.3-0.6,19.8-1.1,25.8L241.3,670.5z"/>
<path d="M432.1,811.8c34.7,0,51-4,61.3-13.5h1.7c-1.2,11.7-7.5,38.7-10.9,47.3H320.4v-1.7c9.7-6,14.3-11.5,14.3-30.7V685.4  c0-43.8,0-54.7-13.2-64.7V619c6.3-0.6,18-1.2,32.4-1.2c16.6,0,31.2,0.6,38.7,1.4v1.7c-15.5,11.5-16,20.6-16,64.5v126.3H432.1z"/>
<path d="M547.9,685.2c0-43.5,0-52.7-15.8-64.2v-1.7c5.7-0.6,20.3-1.4,35.2-1.4c8.3,0,16,0,23.8,0.6c-0.3,8.3-1.4,22.1-1.4,66.8v76.2  c0,33.5,4.9,50.4,37.5,50.4c25.5,0,50.7-10,61.3-18.9c4.6-4,4.6-8.3,4.6-14V686c0-44.4,0-53.3-15.8-65v-1.7  c5.7-0.6,20.3-1.4,35.8-1.4c7.7,0,15.2,0,23.2,0.6c-0.3,8.3-1.4,22.1-1.4,67v105.4c0,19.2,2.3,43,18.6,53.6v1.1h-49  c-3.7-4-7.2-16-8.3-20.6c-23.2,15.5-47.3,23.5-78.8,23.5c-53.3,0-69.6-26.4-69.6-68.2V685.2L547.9,685.2z"/>
</svg>