<?xml version="1.0" encoding="UTF-8"?><svg id="Layer_2" xmlns="http://www.w3.org/2000/svg" viewBox="0 0 353.66 184.11"><defs><style>.cls-1,.cls-2{stroke-width:0px;}.cls-2{fill:#1d1d1b;}</style></defs><g id="Lager_1"><circle class="cls-1" cx="176.83" cy="9.87" r="9.87"/><path class="cls-1" d="m241.41,101.36c-18.55-6.54-36.71-20.25-64.58-20.25h0c-27.87,0-46.03,13.71-64.58,20.25h0v1.45h129.17v-1.45h0Z"/><path class="cls-1" d="m234.64,74.48c-20.82-2.42-28-19.07-56.26-21.25-1.02-.08-2.06-.08-3.08,0-28.26,2.18-35.44,18.83-56.26,21.25-.63.07-1.27.1-1.9.1h-4.88v1.45h129.17v-1.45h-4.88c-.63,0-1.27-.03-1.9-.1Z"/><path class="cls-1" d="m234.24,47.16c-2.68,0-5.35-.21-7.99-.67-2.67-.48-5.38-1.1-7.45-1.66-6.11-1.66-11.98-4.22-17.35-7.57-4.01-2.5-7.74-5.44-11.85-7.78-4.11-2.34-8-3.9-12.78-3.9s-8.68,1.56-12.78,3.9c-4.11,2.34-7.84,5.28-11.85,7.78-5.37,3.35-11.24,5.91-17.35,7.57-2.07.56-4.78,1.19-7.45,1.66-2.63.47-5.31.67-7.99.67h-7.17v1.45h14.7c1.13.01,2.19,0,2.87.02,15.56.24,31.12.32,46.69.25.11,0,.22,0,.33,0,.11,0,.22,0,.33,0,15.56.07,31.13-.01,46.69-.25.68-.01,1.74,0,2.87-.02h14.7v-1.45h-7.17Z"/><path class="cls-2" d="m9.7,167.43c-1.79-1.04-3.06-2.58-3.82-4.63s-1.13-4.7-1.13-7.97v-12.24c0-1.63-.22-2.84-.67-3.62-.45-.78-1.34-1.18-2.69-1.18H.43v-.96h4.32c1.18,0,2.07.15,2.66.46.59.3,1.02.86,1.27,1.66.25.8.38,2.02.38,3.65v13.68c0,3.55.66,6.24,1.97,8.06,1.31,1.82,3.49,2.74,6.53,2.74,2.43,0,4.36-.43,5.78-1.3,1.42-.86,2.44-2.18,3.05-3.94.61-1.76.91-4.1.91-7.01v-18h1.92v18c0,3.33-.35,6.01-1.06,8.04s-1.94,3.56-3.72,4.58-4.26,1.54-7.46,1.54-5.5-.52-7.3-1.56Z"/><path class="cls-2" d="m67.97,169.62c-1.28-.7-2.18-1.8-2.71-3.29-.53-1.49-.79-3.48-.79-5.98v-18.48l-12,26.64h-.96l-12.48-27.12v27.12h-1.92v-31.68h4.56l11.52,24.96,11.28-24.96h4.32v23.52c0,2.98.38,5.28,1.13,6.91s1.9,2.45,3.43,2.45v.96c-2.3,0-4.1-.35-5.38-1.06Z"/><path class="cls-2" d="m78.82,142.59c0-1.63-.22-2.84-.67-3.62-.45-.78-1.34-1.18-2.69-1.18h-.96v-.96h20.45c2.72,0,4.08,1.28,4.08,3.84v3.6h-.96c0-3.68-2-5.52-6-5.52h-8.93v12.48h12.96v1.92h-12.96v13.44h8.4c2.21,0,3.94-.4,5.18-1.2,1.25-.8,2.24-2.16,2.98-4.08l.96.24-1.68,4.56c-.58,1.6-1.78,2.4-3.6,2.4h-16.56v-25.92Z"/><path class="cls-2" d="m127.34,167.48c-1.5-.85-2.7-2.5-3.6-4.97l-1.2-3.12h-13.44l-3.84,9.12h-2.16l12.72-30c-.74-.32-1.36-.79-1.87-1.42-.51-.62-.77-1.43-.77-2.42,0-1.09.41-2.04,1.22-2.86s1.77-1.22,2.86-1.22,2.04.41,2.86,1.22c.82.82,1.22,1.77,1.22,2.86,0,.99-.26,1.8-.77,2.42-.51.62-1.14,1.1-1.87,1.42l9.84,24c.8,1.86,1.55,3.13,2.26,3.82.7.69,1.71,1.1,3.02,1.22v.96c-.58.16-1.22.24-1.92.24-1.54,0-3.06-.42-4.56-1.27Zm-17.52-10.01h11.76l-5.76-13.92-6,13.92Zm8.4-20.64c.8-.58,1.2-1.3,1.2-2.16,0-.74-.21-1.32-.62-1.75-.42-.43-.93-.65-1.54-.65s-1.12.22-1.54.65c-.42.43-.62,1.02-.62,1.75,0,.86.4,1.58,1.2,2.16h1.92Z"/><path class="cls-2" d="m169.68,167.77c-1.63-.82-3.5-2.33-5.62-4.54l-10.08-10.56v15.84h-4.32v-25.92c0-1.63-.22-2.84-.67-3.62-.45-.78-1.34-1.18-2.69-1.18h-.96v-.96h4.32c1.18,0,2.07.15,2.66.46.59.3,1.02.86,1.27,1.66.25.8.38,2.02.38,3.65v9.36l10.08-10.08.96-1.01c.9-.93,1.65-1.66,2.26-2.18.61-.53,1.33-.97,2.16-1.32.83-.35,1.76-.53,2.78-.53h2.4v1.2c-1.34,0-2.51.23-3.5.7-.99.46-2.14,1.35-3.46,2.66l-9.36,9.36,11.04,11.52c1.41,1.44,2.83,2.65,4.27,3.62,1.44.98,2.74,1.54,3.89,1.7v.91c-.96.32-2,.48-3.12.48-1.5,0-3.07-.41-4.7-1.22Z"/><path class="cls-2" d="m202.37,167.48c-1.5-.85-2.7-2.5-3.6-4.97l-1.2-3.12h-13.44l-3.84,9.12h-2.16l13.44-31.68h1.44l10.56,25.68c.8,1.86,1.55,3.13,2.26,3.82.7.69,1.71,1.1,3.02,1.22v.96c-.58.16-1.22.24-1.92.24-1.54,0-3.06-.42-4.56-1.27Zm-17.52-10.01h11.76l-5.76-13.92-6,13.92Z"/><path class="cls-2" d="m212.64,142.59c0-1.63-.22-2.84-.67-3.62-.45-.78-1.34-1.18-2.69-1.18h-.96v-.96h4.32c1.18,0,2.07.15,2.66.46.59.3,1.02.86,1.27,1.66.25.8.38,2.02.38,3.65v24h17.04v1.92h-21.36v-25.92Z"/><path class="cls-2" d="m238.51,142.59c0-1.63-.22-2.84-.67-3.62-.45-.78-1.34-1.18-2.69-1.18h-.96v-.96h4.32c1.18,0,2.07.15,2.66.46.59.3,1.02.86,1.27,1.66.25.8.38,2.02.38,3.65v24h17.04v1.92h-21.36v-25.92Z"/><path class="cls-2" d="m264.38,142.59c0-1.63-.22-2.84-.67-3.62-.45-.78-1.34-1.18-2.69-1.18h-.96v-.96h12.48c3.49,0,6.52.58,9.1,1.73,2.58,1.15,3.86,3.38,3.86,6.67,0,1.5-.51,2.86-1.54,4.08-1.02,1.22-2.59,2.18-4.7,2.88,2.94.48,5,1.35,6.17,2.62,1.17,1.26,1.75,2.95,1.75,5.06,0,3.23-1.27,5.48-3.82,6.74-2.54,1.26-5.67,1.9-9.38,1.9h-9.6v-25.92Zm8.88,8.88c1.31,0,2.55-.25,3.72-.74,1.17-.5,2.12-1.23,2.86-2.21.74-.98,1.1-2.15,1.1-3.53s-.43-2.65-1.3-3.62c-.86-.98-1.96-1.7-3.29-2.16-1.33-.46-2.68-.7-4.06-.7-1.12,0-2.32.16-3.6.48v12.48h4.56Zm6.74,13.63c1.58-1.15,2.38-2.82,2.38-4.99s-.78-3.84-2.33-4.99c-1.55-1.15-3.82-1.73-6.79-1.73h-4.56v12.77c1.54.45,3.06.67,4.56.67,2.91,0,5.16-.58,6.74-1.73Z"/><path class="cls-2" d="m314.16,167.48c-1.5-.85-2.7-2.5-3.6-4.97l-1.2-3.12h-13.44l-3.84,9.12h-2.16l13.44-31.68h1.44l10.56,25.68c.8,1.86,1.55,3.13,2.26,3.82.7.69,1.71,1.1,3.02,1.22v.96c-.58.16-1.22.24-1.92.24-1.54,0-3.06-.42-4.56-1.27Zm-17.52-10.01h11.76l-5.76-13.92-6,13.92Z"/><path class="cls-2" d="m324.43,142.59c0-1.63-.22-2.84-.67-3.62-.45-.78-1.34-1.18-2.69-1.18h-.96v-.96h12.58c6.21,0,10.9,1.38,14.09,4.13s4.78,6.59,4.78,11.52c0,3.17-.67,5.96-2.02,8.38-1.34,2.42-3.34,4.3-5.98,5.64-2.64,1.34-5.85,2.02-9.62,2.02h-9.5v-25.92Zm15.77,22.49c1.9-1.17,3.4-2.82,4.49-4.94,1.09-2.13,1.63-4.62,1.63-7.46s-.54-5.25-1.61-7.39c-1.07-2.14-2.57-3.81-4.49-4.99s-4.1-1.78-6.53-1.78c-1.54,0-3.14.26-4.8.77v26.93c1.79.42,3.42.62,4.9.62,2.37,0,4.5-.58,6.41-1.75Z"/></g></svg>