<?xml version="1.0" encoding="UTF-8"?>
<!-- Generator: Adobe Illustrator 26.3.1, SVG Export Plug-In . SVG Version: 6.00 Build 0)  -->
<svg version="1.1" id="Layer_1" xmlns="http://www.w3.org/2000/svg" xmlns:xlink="http://www.w3.org/1999/xlink" x="0px" y="0px" viewBox="0 0 566.6 232.8" style="enable-background:new 0 0 566.6 232.8;" xml:space="preserve">
<g id="Layer_2_00000114034051527351665540000000391507959086213258_">
	<g id="Lager_1">
		<path d="M78.8,41.9H57.8v48.7c0,11.5-7.2,19-18.3,19s-18.3-7.4-18.3-19V41.9H0v48.8c0,21.4,17,37.6,39.4,37.6s39.4-16.2,39.4-37.6    V41.9z"/>
		<path d="M184.2,127V51.1c0.1-5.4-4.2-10-9.6-10.1c-0.1,0-0.1,0-0.2,0c-3.4-0.2-6.6,1.4-8.5,4.2l-27,40l-27-40    c-1.8-2.8-5-4.3-8.3-4.2c-5.5-0.1-10,4.4-10.1,9.9c0,0.2,0,0.3,0,0.5V127h20.2V82.2l16.9,25.1c1.8,2.8,4.9,4.6,8.2,4.7    c3.3,0,6.4-1.8,8.1-4.6l17.1-25.2V127H184.2z"/>
		<path d="M199.3,116.3c0,5.8,4.6,10.6,10.5,10.6c0,0,0,0,0,0h53v-17.8h-42.4V92.6h29.2c4.8,0.2,8.9-3.6,9.1-8.4c0-0.1,0-0.3,0-0.4    c0-4.9-4-8.8-8.9-8.8c-0.1,0-0.1,0-0.2,0h-29.2V59.7h42.5V41.9h-53.1c-5.8,0-10.5,4.8-10.5,10.6V116.3z"/>
		<path d="M126.6,145c-25.2,0-44.2,18.9-44.2,43.9c0,25.4,18.6,43.8,44.2,43.8c12.6,0,23.9-4.6,32-12.9c8-8.3,12.3-19.5,12.2-31    C170.8,163.9,151.8,145,126.6,145z M126.6,214.1c-14,0-23.1-9.9-23.1-25.2s9.1-25.3,23.1-25.3s23.1,9.9,23.1,25.3    S140.6,214.1,126.6,214.1z"/>
		<path d="M273.6,231.3v-75.9c0.1-5.4-4.2-10-9.6-10.1c-0.1,0-0.1,0-0.2,0c-3.8,0-6.6,1.4-8.5,4.2l-27,40l-27-40    c-1.8-2.7-5-4.3-8.2-4.2c-5.5-0.1-10,4.4-10.1,9.9c0,0.1,0,0.3,0,0.4v75.6h20.1v-44.8l16.9,25.1c1.8,2.8,4.9,4.6,8.2,4.7    c3.3,0,6.4-1.8,8.1-4.6l17.1-25.3v44.8L273.6,231.3z"/>
		<path d="M379.5,231.3v-75.9c0.1-5.4-4.2-10-9.6-10.1c-0.1,0-0.1,0-0.2,0c-3.4-0.2-6.6,1.4-8.5,4.2l-27,40l-27-40    c-1.8-2.7-5-4.3-8.2-4.2c-5.5,0-10,4.4-10.1,9.9c0,0.1,0,0.3,0,0.4v75.6H309v-44.8l16.9,25.1c1.8,2.8,4.9,4.6,8.2,4.7    c3.3,0,6.4-1.8,8.1-4.6l17.1-25.3v44.8L379.5,231.3z"/>
		<path d="M472.2,146.3h-21.1V195c0,11.5-7.2,19-18.3,19s-18.3-7.4-18.3-19v-48.7h-21.1v48.9c0,21.4,16.9,37.6,39.4,37.6    s39.4-16.2,39.4-37.6V146.3z"/>
		<path d="M557.5,231.7c5.2-0.8,9.1-5.2,9.1-10.5V146h-20.8v50l-0.9-1c-15.2-18-25.3-29.4-34.9-40.3l-5.1-5.8    c-1.9-2.5-4.9-3.8-8-3.7c-5.8,0.1-10.5,4.8-10.6,10.6V231H507v-48.5l40.8,45.8C550.2,231,553.9,232.3,557.5,231.7z"/>
		<rect y="146" width="21.1" height="85"/>
		<path d="M29.5,194.7L58.9,231h25.4l-35.9-43.8L83,146H57.6l-28.6,35.2l0,0l-0.1,0.1C26,185.3,26.2,190.9,29.5,194.7z"/>
		<path d="M318.4,47c-1.5-3.7-5.1-6.1-9.1-6c-0.4,0-0.8,0-1.2,0.1c0.9-3,2.1-5.9,3.7-8.6c9.1,5,15.8,0.9,19-5.3    c4.1-8.1,0-15.4,14.9-24.7c-31.4-9-52.6,8.3-41,24.4c9.2-13.6,18.9-15.6,18.9-15.6s0.6-0.2,0.9,0.2s-0.3,0.8-0.3,0.8    s-12.1,6.2-24,34.5c0,0.1,0,0.1-0.1,0.2l-33,79.9h20.5l5.9-15.9H325l6,15.9h20.5L318.4,47z M299.2,95.8l10.1-27.5l10.1,27.5H299.2    z"/>
		<path d="M319.4,11.6c0,0.3-0.3,0.6-0.6,0.6c-0.3,0-0.6-0.3-0.6-0.6c0-0.3,0.3-0.6,0.6-0.6l0,0C319.1,11,319.4,11.2,319.4,11.6    C319.4,11.6,319.4,11.6,319.4,11.6z"/>
		<path d="M557.5,231.7c5.2-0.8,9.1-5.2,9.1-10.5v-41.6c-12.9,9.1-23.6,21-31.1,34.9l12.3,13.9C550.3,231,553.9,232.3,557.5,231.7z"/>
		<path d="M126.6,232.8c12.6,0,23.9-4.6,32-12.9c8-8.3,12.4-19.5,12.2-31c0-5.8-1-11.5-3.1-16.9c-24.8-12.4-53.7-14.2-79.8-4.8    c-3.6,6.7-5.5,14.2-5.4,21.8C82.4,214.3,101,232.8,126.6,232.8z M126.6,163.6c14,0,23.1,9.9,23.1,25.3s-9.1,25.2-23.1,25.2    s-23.1-9.9-23.1-25.2S112.5,163.6,126.6,163.6L126.6,163.6z"/>
		<path d="M182.9,181.5v49.8h20.2v-29.7C197.3,194,190.5,187.2,182.9,181.5z"/>
		<path d="M84.3,231L51,190.3c-4.7,4.6-9,9.7-12.7,15.2L58.9,231H84.3z"/>
		<path d="M308.9,231.3v-44.8l16.9,25.1c1.8,2.8,4.9,4.6,8.2,4.7c3.3,0,6.4-1.8,8.1-4.6l17.1-25.3v44.8h20.2v-69.9    c-2-0.1-4-0.2-6-0.2c-7.3,0-14.7,0.8-21.8,2.4l-17.5,26l-10.4-15.3c-14.1,7.9-26.1,19.1-35,32.6v24.5L308.9,231.3z"/>
		<path d="M432.8,232.8c13.3,0,24.7-5.7,31.8-14.8c-3.7-7.4-8.2-14.4-13.5-20.7c-0.9,10.2-7.9,16.7-18.2,16.7    c-11.1,0-18.3-7.4-18.3-19v-25.1c-6.8-3-13.8-5.2-21.1-6.7v31.9C393.4,216.6,410.4,232.8,432.8,232.8z"/>
		<path d="M78.8,90.8V41.9H57.8v48.7c0,0.5,0,0.9,0,1.4c5.8,4.7,12.1,8.8,18.7,12.2C78.1,99.9,78.9,95.3,78.8,90.8z"/>
		<path d="M174.4,41c-3.4-0.2-6.6,1.4-8.5,4.2l-27,40l-27-40c-1.8-2.8-5-4.3-8.3-4.2c-5.5-0.1-10,4.4-10.1,9.9c0,0.2,0,0.3,0,0.5    v59.6c6.6,1.9,13.4,3.2,20.2,3.7V82.2l16.9,25.1c1.8,2.8,4.9,4.6,8.2,4.7c3.3,0,6.4-1.8,8.1-4.6l17.1-25.2v23.8    c7.2-3.3,14-7.4,20.2-12.2V51.1c0.1-5.4-4.2-10-9.6-10.1C174.5,41,174.5,41,174.4,41z"/>
		<path d="M199.3,52.5v26.8c9.3-10.9,16.2-23.7,20.2-37.4h-9.8C204,42,199.3,46.7,199.3,52.5z"/>
		<path d="M309.3,41c-0.4,0-0.8,0-1.2,0.1c0.9-3,2.1-5.9,3.7-8.6c9.1,5,15.8,0.9,19-5.3c4.1-8.1,0-15.4,14.9-24.7    c-31.4-9-52.6,8.3-41,24.4c9.2-13.6,18.9-15.6,18.9-15.6s0.6-0.2,0.9,0.2s-0.4,0.8-0.4,0.8s-12.1,6.2-24,34.5c0,0.1,0,0.1-0.1,0.2    L290,71.4c3.7,5.4,8,10.3,12.6,14.9l6.6-18l10.1,27.5H314c9.3,6.8,19.8,11.9,30.8,15.1L318.4,47C316.9,43.3,313.3,40.9,309.3,41z"/>
	</g>
</g>
</svg>