<svg xmlns="http://www.w3.org/2000/svg" viewBox="0 0 1619.45 365.33"><defs><style>.cls-1{fill:#fff;}</style></defs><g id="Layer_2" data-name="Layer 2"><g id="svg2"><g id="g10"><g id="g12"><path id="path44" d="M182.66,0C283.55,0,365.33,81.78,365.33,182.66A182.66,182.66,0,0,1,182.66,365.33C81.78,365.33,0,283.55,0,182.66A182.66,182.66,0,0,1,182.66,0"/><path id="path46" d="M179.41,200.34a1.42,1.42,0,1,1,1.3-1.72A1.54,1.54,0,0,1,179.41,200.34Zm-14.17-25.1c2.61.2,3,.86,3.31,1.58s.07,1.26-1.67,4.51c-.14.26.56.58.71.4,8.78-10.16,22.92-5.69,25.82-4.61,3.32,1.24,2.76,2.94,2.26,3.52-2,2.33-9.51,6.61-11.08,7.25s-2.08.54-3-.44-1.71-4-1.82-4.34,0-3.26,0-3.58-.77-.38-.86-.08-.67,2.55-.8,2.91a1,1,0,0,1-1,.61c-.38-.06-3.88-1.17-4.13-1.23s-.51.56-.32.72,3.75,2.42,4.48,2.88,1.26,1.75,1.52,3.27a1.23,1.23,0,0,1-1,1.45c-.89.19-4.6-.91-5.4-1.22s-1.58-2.32-1.7-2.67-.92-.23-.93.18a10.22,10.22,0,0,1-.15,2.46c-.32.72-1.65,1.27-3.78,1.54-.37,0-.31,1,.07,1,1.85,0,2.41.82,2.56,1.35s0,.67-1,3.11c-.2.47.68.74.86.54,2.75-3.17,5-3.89,8.73-3.75.8,0,1.16.11.81.57-1.14,1.57-4.23,5.31-11.91,12.57a1.65,1.65,0,0,0-.26,2.14l2.31,3.28a.57.57,0,0,0,.71.17,100.89,100.89,0,0,1,10.88-4c3.76,6.3,6.72,10.32,9.2,9.61s3.33-4.28,3.33-4.28a10.2,10.2,0,0,0,4.49,3.61c.26.09.37-.1.37-.3v-19h-7.65a1.06,1.06,0,0,1-.67-.2c-5.7-3.81-6.5-4.43-4.95-5.24l1.1-.49c9.48-4.33,14.86-8.41,14.86-11.31,0-3.12-3.3-8.61-6.69-11.18-.19-.15-.71.48-.58.64s2.33,3.19,1.73,4.19-4.39-.16-5.79-1-3-4.08-3.86-5.41a9.84,9.84,0,0,0-2.62-2.55c-.19-.1-.62.45-.43.64.83.82,2.93,4.3,2.1,5.84s-4.11,1.77-5.52.43-3.14-6-3.27-6.29-.86,0-.83.16c.09.48.64,3.45-.73,4.35s-4.12-.28-5.6-1.07c-.31-.16-.81.39-.6.56S170,172,170,172.59s-1.7,1.07-4.83,1.87c-.3.06-.21.76,0,.78"/><path id="path48" d="M140.57,200.34a1.42,1.42,0,1,1,1.3-1.72,1.54,1.54,0,0,1-1.3,1.72Zm-14.17-25.1c2.61.2,3,.86,3.31,1.58s.08,1.26-1.67,4.51c-.14.26.55.58.71.4,8.78-10.16,22.92-5.69,25.82-4.61,3.32,1.24,2.76,2.94,2.25,3.52-2,2.33-9.5,6.61-11.06,7.25s-2.09.54-3-.44-1.7-4-1.82-4.34,0-3.26,0-3.58-.78-.38-.87-.08-.66,2.55-.8,2.91a1,1,0,0,1-.95.61c-.38-.06-3.89-1.17-4.13-1.23s-.5.56-.32.72,3.75,2.42,4.48,2.88,1.25,1.75,1.52,3.27a1.23,1.23,0,0,1-1,1.45c-.89.19-4.59-.91-5.4-1.22s-1.57-2.32-1.69-2.67-.91-.23-.93.18a10.22,10.22,0,0,1-.15,2.46c-.32.72-1.66,1.27-3.78,1.54-.37,0-.31,1,.07,1,1.85,0,2.4.82,2.56,1.35s0,.67-1,3.11c-.19.47.69.74.87.54,2.75-3.17,5-3.89,8.73-3.75.8,0,1.16.11.82.57-1.15,1.57-4.24,5.31-11.92,12.57a1.65,1.65,0,0,0-.26,2.14l2.3,3.28a.58.58,0,0,0,.72.17,100,100,0,0,1,10.88-4c3.76,6.3,6.72,10.32,9.2,9.61s3.33-4.28,3.33-4.28a10.13,10.13,0,0,0,4.49,3.61c.25.09.37-.1.37-.3v-19h-7.65a1.06,1.06,0,0,1-.67-.2c-5.71-3.81-6.5-4.43-4.95-5.24l1.1-.49c9.48-4.33,14.86-8.41,14.86-11.31,0-3.12-3.31-8.61-6.69-11.18-.19-.15-.71.48-.58.64s2.33,3.19,1.73,4.19-4.4-.16-5.79-1-3-4.08-3.86-5.41a9.84,9.84,0,0,0-2.62-2.55c-.19-.1-.62.45-.43.64.82.82,2.93,4.3,2.1,5.84s-4.12,1.77-5.53.43-3.13-6-3.26-6.29-.87,0-.83.16c.09.48.64,3.45-.73,4.35s-4.12-.28-5.6-1.07c-.31-.16-.81.39-.6.56s3.15,2.91,3.15,3.55-1.69,1.07-4.82,1.87c-.3.06-.21.76,0,.78"/><path id="path50" d="M218.25,200.34a1.42,1.42,0,1,1,1.3-1.72,1.53,1.53,0,0,1-1.3,1.72Zm-14.17-25.1c2.61.2,3,.86,3.32,1.58s.07,1.26-1.68,4.51c-.14.26.56.58.71.4,8.78-10.16,22.93-5.69,25.82-4.61,3.33,1.24,2.76,2.94,2.25,3.52-2,2.33-9.5,6.61-11.06,7.25s-2.09.54-3.05-.44-1.7-4-1.81-4.34,0-3.26,0-3.58-.77-.38-.86-.08-.67,2.55-.81,2.91a1,1,0,0,1-1,.61c-.38-.06-3.88-1.17-4.12-1.23s-.51.56-.33.72,3.75,2.42,4.49,2.88,1.25,1.75,1.51,3.27a1.22,1.22,0,0,1-1,1.45c-.88.19-4.59-.91-5.39-1.22s-1.58-2.32-1.7-2.67-.91-.23-.93.18a10.22,10.22,0,0,1-.15,2.46c-.32.72-1.65,1.27-3.78,1.54-.37,0-.32,1,.07,1,1.85,0,2.41.82,2.56,1.35s0,.67-1,3.11c-.18.47.69.74.87.54,2.75-3.17,5-3.89,8.73-3.75.81,0,1.16.11.81.57-1.14,1.57-4.23,5.31-11.91,12.57a1.66,1.66,0,0,0-.26,2.14l2.31,3.28a.57.57,0,0,0,.71.17,100.89,100.89,0,0,1,10.88-4c3.77,6.3,6.73,10.32,9.2,9.61s3.33-4.28,3.33-4.28a10.2,10.2,0,0,0,4.49,3.61c.26.09.37-.1.37-.3v-19h-7.64a1.07,1.07,0,0,1-.68-.2c-5.7-3.81-6.5-4.43-4.94-5.24l1.09-.49c9.49-4.33,14.87-8.41,14.87-11.31,0-3.12-3.31-8.61-6.69-11.18-.2-.15-.72.48-.58.64s2.32,3.19,1.72,4.19-4.4-.16-5.78-1-3-4.08-3.87-5.41a9.69,9.69,0,0,0-2.62-2.55c-.18-.1-.62.45-.43.64.83.82,2.94,4.3,2.1,5.84s-4.11,1.77-5.52.43-3.14-6-3.27-6.29-.86,0-.83.16c.09.48.64,3.45-.73,4.35s-4.12-.28-5.6-1.07c-.3-.16-.8.39-.6.56s3.16,2.91,3.16,3.55-1.69,1.07-4.83,1.87c-.3.06-.21.76,0,.78"/><path id="path52" class="cls-1" d="M126.37,174.46c3.13-.8,4.82-1.23,4.82-1.87s-2.95-3.38-3.15-3.55.29-.72.6-.56c1.48.79,4.23,2,5.6,1.07s.82-3.87.73-4.35c0-.2.69-.48.83-.16s1.86,5,3.26,6.29,4.7,1.11,5.53-.43-1.28-5-2.1-5.84c-.19-.19.24-.74.43-.64a9.84,9.84,0,0,1,2.62,2.55c.86,1.33,2.47,4.63,3.86,5.41s5.19,1.94,5.79,1-1.6-4.05-1.73-4.19.39-.79.58-.64c3.38,2.57,6.69,8.06,6.69,11.18,0,2.9-5.38,7-14.86,11.31l-1.1.49c-1.55.81-.76,1.43,4.95,5.24a1.06,1.06,0,0,0,.67.2H158v19c0,.2-.12.39-.37.3a10.13,10.13,0,0,1-4.49-3.61s-.86,3.58-3.33,4.28-5.44-3.31-9.2-9.61a100,100,0,0,0-10.88,4,.58.58,0,0,1-.72-.17l-2.3-3.28a1.65,1.65,0,0,1,.26-2.14c7.68-7.26,10.77-11,11.92-12.57.34-.46,0-.55-.82-.57-3.76-.14-6,.58-8.73,3.75-.18.2-1.06-.07-.87-.53,1-2.45,1.13-2.59,1-3.12s-.71-1.33-2.56-1.35c-.38,0-.44-1-.07-1,2.12-.27,3.46-.82,3.78-1.54a10.22,10.22,0,0,0,.15-2.46c0-.41.8-.53.93-.18s.89,2.36,1.69,2.67,4.51,1.41,5.4,1.22a1.23,1.23,0,0,0,1-1.45c-.27-1.52-.78-2.8-1.52-3.27s-4.29-2.71-4.48-2.88.08-.76.32-.72,3.75,1.17,4.13,1.23a1,1,0,0,0,.95-.61c.14-.36.71-2.61.8-2.91s.83-.25.87.08-.1,3.22,0,3.58.87,3.37,1.82,4.34,1.49,1.07,3,.44,9-4.92,11.06-7.25c.51-.58,1.07-2.28-2.25-3.52-2.9-1.08-17-5.55-25.82,4.61-.16.18-.85-.14-.71-.4,1.75-3.25,1.93-3.79,1.67-4.51s-.7-1.38-3.31-1.58c-.24,0-.33-.72,0-.78Zm38.84,0c3.13-.8,4.83-1.23,4.83-1.87s-2.95-3.38-3.16-3.55.29-.72.6-.56c1.48.79,4.23,2,5.6,1.07s.82-3.87.73-4.35c0-.2.7-.48.83-.16s1.86,5,3.27,6.29,4.69,1.11,5.52-.43-1.27-5-2.1-5.84c-.19-.19.24-.74.43-.64a9.84,9.84,0,0,1,2.62,2.55c.87,1.33,2.47,4.63,3.86,5.41s5.19,1.94,5.79,1-1.6-4.05-1.73-4.19.39-.79.58-.64c3.39,2.57,6.69,8.06,6.69,11.18,0,2.9-5.38,7-14.86,11.31l-1.1.49c-1.55.81-.75,1.43,4.95,5.24a1.06,1.06,0,0,0,.67.2h7.65v19c0,.2-.11.39-.37.3a10.2,10.2,0,0,1-4.49-3.61s-.85,3.58-3.33,4.28-5.44-3.31-9.2-9.61a100.89,100.89,0,0,0-10.88,4,.57.57,0,0,1-.71-.17l-2.31-3.28a1.65,1.65,0,0,1,.26-2.14c7.68-7.26,10.77-11,11.91-12.57.35-.46,0-.55-.81-.57-3.76-.14-6,.58-8.73,3.75-.18.2-1.06-.07-.86-.53,1-2.45,1.13-2.59,1-3.12s-.71-1.33-2.56-1.35c-.38,0-.44-1-.07-1,2.13-.27,3.46-.82,3.78-1.54a10.22,10.22,0,0,0,.15-2.46c0-.41.8-.53.93-.18s.89,2.36,1.7,2.67,4.51,1.41,5.4,1.22a1.23,1.23,0,0,0,1-1.45c-.26-1.52-.78-2.8-1.52-3.27s-4.29-2.71-4.48-2.88.08-.76.32-.72,3.75,1.17,4.13,1.23a1,1,0,0,0,1-.61c.13-.36.7-2.61.8-2.91s.82-.25.86.08-.1,3.22,0,3.58.86,3.37,1.82,4.34,1.48,1.07,3,.44,9-4.92,11.08-7.25c.5-.58,1.06-2.28-2.26-3.52-2.9-1.08-17-5.55-25.82,4.61-.15.18-.85-.14-.71-.4,1.74-3.25,1.94-3.79,1.67-4.51s-.7-1.38-3.31-1.58c-.24,0-.33-.72,0-.78Zm38.84,0c3.14-.8,4.83-1.23,4.83-1.87s-3-3.38-3.16-3.55.3-.72.6-.56c1.48.79,4.23,2,5.6,1.07s.82-3.87.73-4.35c0-.2.7-.48.83-.16s1.86,5,3.27,6.29,4.7,1.11,5.52-.43-1.27-5-2.1-5.84c-.19-.19.25-.74.43-.64a9.69,9.69,0,0,1,2.62,2.55c.87,1.33,2.47,4.63,3.87,5.41s5.18,1.94,5.78,1-1.6-4.05-1.72-4.19.38-.79.58-.64c3.38,2.57,6.69,8.06,6.69,11.18,0,2.9-5.38,7-14.87,11.31l-1.09.49c-1.56.81-.76,1.43,4.94,5.24a1.07,1.07,0,0,0,.68.2h7.64v19c0,.2-.11.39-.37.3a10.2,10.2,0,0,1-4.49-3.61s-.85,3.58-3.33,4.28-5.43-3.31-9.2-9.61a100.89,100.89,0,0,0-10.88,4,.57.57,0,0,1-.71-.17l-2.31-3.28a1.66,1.66,0,0,1,.26-2.14c7.68-7.26,10.77-11,11.91-12.57.35-.46,0-.55-.81-.57-3.76-.14-6,.58-8.73,3.75-.18.2-1.05-.07-.87-.53,1-2.45,1.14-2.59,1-3.12s-.71-1.33-2.56-1.35c-.39,0-.44-1-.07-1,2.13-.27,3.46-.82,3.78-1.54a10.22,10.22,0,0,0,.15-2.46c0-.41.81-.53.93-.18s.89,2.36,1.7,2.67,4.51,1.41,5.39,1.22a1.22,1.22,0,0,0,1-1.45c-.26-1.52-.78-2.8-1.51-3.27s-4.3-2.71-4.49-2.88.08-.76.33-.72,3.74,1.17,4.12,1.23a1,1,0,0,0,1-.61c.14-.36.71-2.61.81-2.91s.83-.25.86.08-.11,3.22,0,3.58.86,3.37,1.81,4.34,1.49,1.07,3.05.44,9-4.92,11.06-7.25c.51-.58,1.08-2.28-2.25-3.52-2.89-1.08-17-5.55-25.82,4.61-.15.18-.85-.14-.71-.4,1.75-3.25,1.94-3.79,1.68-4.51s-.71-1.38-3.32-1.58c-.24,0-.33-.72,0-.78Zm-88.92,69.77H248.19V142.49H115.13V244.23"/><path id="path54" d="M140,197.61a1.42,1.42,0,1,0,1.9,1,1.53,1.53,0,0,0-1.9-1"/><path id="path56" d="M178.81,197.61a1.42,1.42,0,1,0,1.9,1,1.53,1.53,0,0,0-1.9-1"/><path id="path58" d="M217.65,197.61a1.42,1.42,0,1,0,1.9,1,1.54,1.54,0,0,0-1.9-1"/><path id="path60" class="cls-1" d="M248.19,131.42l-66.45-29-66.61,29.14v5H248.19v-5.12"/><path id="path62" class="cls-1" d="M292.68,117.24a6.58,6.58,0,1,0-6.57-6.58,6.59,6.59,0,0,0,6.57,6.58"/><path id="path64" class="cls-1" d="M71.34,117.21a6.58,6.58,0,1,0-6.58-6.57,6.58,6.58,0,0,0,6.58,6.57"/><path id="path66" class="cls-1" d="M49.51,175.12,56,176.24c2.73.47,8.41,1.45,9.85,2.4a2.57,2.57,0,0,1,.54,1.93c0,.06,0,.06,0,1.4v.15l0,.13c.1.26.26.47,1.41.95l.29.12,1.2-.55.11-.28a58,58,0,0,0,.51-5.86l.81-6.1,0-.11c0-.24-.13-.47-1-1.1l-.23-.16-1.49.15-.19.28c-.08.11-.18.26-.45,1.72-.24,1.23-.62,1.69-.8,1.75-.49.19-2.49.46-10.44-.92l-6-1c-8.68-1.51-12.52-5.5-11.41-11.86.5-2.93,1.64-5,3.47-6.28,2.44-1.71,6.15-2.11,11.34-1.21l11.36,2c5.37.93,5.36,1,5,3.28l-.21,1.44,0,.15a1.45,1.45,0,0,0,1.27,1,1.78,1.78,0,0,0,1.64-.52l.09-.16c0-.09.07-.16,1.39-6.73l1.67-6.67,0-.15a1.56,1.56,0,0,0-1.21-1.23,1.59,1.59,0,0,0-1.6.33l-.11.15a11.71,11.71,0,0,0-.51,1.52c-.67,2.15-.74,2.37-6.41,1.39l-12.42-2.14c-6.52-1.14-10.81-.47-13.88,2.15-2.49,2.06-4.15,5.39-4.92,9.89-.74,4.28.13,8.67,2.28,11.44,2.37,3.14,6.46,5.17,12.51,6.22"/><path id="path68" class="cls-1" d="M74.4,228.81a6.47,6.47,0,0,1,1.45,2.09l.44.86.16.1a1.81,1.81,0,0,0,1.78.17,1.59,1.59,0,0,0,1-1.09l0-.12v-.12c0-.12,0-.22-2-5.5l-1.92-6.06-.11-.21a1.59,1.59,0,0,0-1.57-.64,1.78,1.78,0,0,0-1.39,1l0,.21a4.39,4.39,0,0,0,.2,1.24c.45,2.11.31,2.57.28,2.64s-1.49,1.35-9.82,3.59l-11.08,3-.22.06c1-1.5,2.81-4.28,6.09-9.4h0c.15-.24,4.27-6.5,4.27-6.5l.64-1c1.69-2.52,6.16-9.22,8.19-10.64l.28-.22,0-.33a8.9,8.9,0,0,0-.6-2.72l-1.11-5.82-.12-.29a1.52,1.52,0,0,0-1.4-.66,2,2,0,0,0-1.53.86l-.09.21a3.89,3.89,0,0,0,0,1.27,4.87,4.87,0,0,1-.4,2.89c-.74,1.06-1.48,1.35-3,1.75l-15,4-.87.24c-2.52.68-7.77,2.1-9.38,1.93-.08,0-.46-.29-.79-1.36l-.45-1.34-.13-.22c-.16-.21-.38-.37-1.48-.43l-.28,0-1.19,1,0,.32c0,.14,0,.24,1.28,5.59l1.11,6,.09.23c.11.2.29.4,1.21.66l.27.09,1.18-.61.32-.28.08-.32a15.65,15.65,0,0,0-.14-1.93,6.19,6.19,0,0,1,0-1.34,1.44,1.44,0,0,1,.19-.72h0c1.07-.94,6.62-2.65,10.09-3.58l11.24-3,1.32-.33c-1.51,2.2-4.24,6.21-4.24,6.21L46.72,225.84c-4.27,6.4-5.39,7.92-6,8.6l-.21.25.05.33a1.86,1.86,0,0,0,1.65,1.79h.16l.14-.06c.54-.2,2.39-.79,8.81-2.51l13.16-3.53c2.21-.6,8-2.17,9.88-1.91"/><path id="path70" class="cls-1" d="M91.38,254.71a1.55,1.55,0,0,0,1.68-.25,1.78,1.78,0,0,0,.76-1.49l0-.2c0-.1-.07-.17-4-5.57l-3.66-5.64-.21-.21a1.66,1.66,0,0,0-1.8.06,1.57,1.57,0,0,0-.87,1.33l0,.19a10.47,10.47,0,0,0,.76,1.43c1.12,2,1.19,2.09-3.51,5.31L64.85,260.4c-4.59,3.15-4.65,3.08-6.21,1.31l-1-1.18-.22-.06a1.8,1.8,0,0,0-1.77.48,1.58,1.58,0,0,0-.54,1.33l0,.17c0,.11.07.18,4,5.68l3.6,5.54.22.22a1.4,1.4,0,0,0,.79.23,2,2,0,0,0,1-.3,1.56,1.56,0,0,0,.87-1.33l0-.19a8.89,8.89,0,0,0-.7-1.42c-1.09-2.09-1.13-2.17,3.46-5.31l15.68-10.74c4.7-3.22,4.79-3.12,6.22-1.36l.85,1.05.25.19"/><path id="path72" class="cls-1" d="M129,285.75a1.91,1.91,0,0,0,1.54-1.08h0a1.51,1.51,0,0,0,.08-1.38l-.12-.18c-.08-.09-.15-.16-4.49-2.89L121.46,277l-.17,0a1.74,1.74,0,0,0-1.63.64,1.9,1.9,0,0,0-.46,1.06,2.12,2.12,0,0,0,0,.44l.09.21a5,5,0,0,0,.92.89,6.4,6.4,0,0,1,1,1l-1.2,1L99.24,294.11,103.69,277c.93-3.44,1.79-6,2.19-7.06a9.53,9.53,0,0,1,1.37.78l.84.53h.18a1.65,1.65,0,0,0,1.52-.76,1.83,1.83,0,0,0,.24-1.6l-.1-.17c-.07-.1-.12-.17-5.24-4.27l-4.3-3.85-.18,0a1.66,1.66,0,0,0-1.64.48,1.79,1.79,0,0,0-.47,1.55l.06.19a4.84,4.84,0,0,0,.85,1c1.23,1.31,1.32,2.27.48,5.4L92.91,293.6a52.27,52.27,0,0,1-2.28,7l-.07.16v.17c0,.16,0,.43.79,1.29l.22.25,1.09.35.32-.21c2.68-1.83,8.65-5.37,12.9-7.77l6.26-3.49c5.45-3,10-5.33,12.51-6.44a2.57,2.57,0,0,1,2.55-.06l1.56.9H129"/><path id="path74" class="cls-1" d="M162.87,293.68c-.53,0-3.83-1.06-6.49-1.88l-.16-.05-9.63-3h0l-6.11-2.06h-.16a1.68,1.68,0,0,0-1.36,1.16,1.66,1.66,0,0,0,.14,1.59l.13.13a7.63,7.63,0,0,0,1,.5c2.16.95,2.24,1,.61,6.25l-5.68,18.36c-1.64,5.28-1.87,5.23-4,4.76l-2-.42-.2.09a1.79,1.79,0,0,0-1.11,1.47,1.56,1.56,0,0,0,.4,1.39l.16.11c.08.05.15.09,7.19,2.1l18.6,5.94.32-.3a37.53,37.53,0,0,0,4.87-6.66l.1-.17v-.2a1.74,1.74,0,0,0-.82-1.48,1.82,1.82,0,0,0-1.54-.24l-.17,0-.13.13c-2.21,2.28-4,3.46-4.72,3.61-1.16.19-2.76-.11-6.33-1.22-4.62-1.44-5.05-2.24-5.25-2.61-.4-.82,0-2.55.73-4.91l2.23-7.19a4.15,4.15,0,0,1,.15-.46c.2,0,.52.14.79.22l3,.92A18.13,18.13,0,0,1,151,311c.48.29.62.68.55,1.57l-.17,2.28.05.15a1.84,1.84,0,0,0,1.41,1.13,1.59,1.59,0,0,0,1.46-.33l.12-.13a11.16,11.16,0,0,0,.65-2.21l.79-3,1.86-5.26,0-.18a1.58,1.58,0,0,0-1-1.25,1.88,1.88,0,0,0-1.71,0l-.14.12a17.74,17.74,0,0,0-1.23,2.18c-.49.91-.68.91-1,.92a19.18,19.18,0,0,1-4.15-1l-2.95-.92a7.53,7.53,0,0,1-.77-.26c0-.13.09-.33.15-.52l3.16-10.2c.13-.42.27-.88.38-1.12.19,0,.49.13.61.17l3.67,1.13a26.72,26.72,0,0,1,4.65,1.75c1.9,1.16,1.9,2.58,1.92,4.94v.31l0,.25a1.62,1.62,0,0,0,1.21,1,1.85,1.85,0,0,0,1.58-.26l.16-.17a3.16,3.16,0,0,0,.32-1.05,46.27,46.27,0,0,0,1.15-6.57l0-.84-.85-.05"/><path id="path76" class="cls-1" d="M198,310.1a8.27,8.27,0,0,1-4.79,1.68c-1.68.16-2.49.13-2.89.2,0-.31-.08-.73-.11-1L189,298.52a2.84,2.84,0,0,0-.08-.57,9.78,9.78,0,0,1,2.46-.31c5.83-.26,8.11,3.09,8.34,6.37.2,2.86-.34,4.8-1.71,6.09Zm18.52,16.1-.11,0h-.11a5.74,5.74,0,0,1-3.44-.87c-4-2.55-7.43-6.61-12.23-12.52,0,0,0,0,0-.07,1.58-.91,6.26-4.14,5.67-10.14a8.82,8.82,0,0,0-5.72-7.77c-2.51-1.06-5.37-.92-8.48-.75l-.88.05c-4.87.25-8.61.58-11.79,1l-.23.07a1.52,1.52,0,0,0-.83,1.39,1.84,1.84,0,0,0,.76,1.6l.16.08a13.07,13.07,0,0,0,2,.2c1.32.09,1.55.11,2.05,5.34l1.84,19.24c.52,5.29.52,5.29-1.75,5.7l-1.56.27-.17.18a1.84,1.84,0,0,0-.42,1.79,1.59,1.59,0,0,0,.86,1.1l.18,0h.09c.23,0,1.22-.07,6.75-.49l6.32-.17.31-.08a1.54,1.54,0,0,0,.83-1.37,1.81,1.81,0,0,0-.62-1.58l-.19-.1a6,6,0,0,0-1.42-.18c-2.4-.21-2.44-.21-3-5.74l-.66-6.69a1.49,1.49,0,0,0,0-.21c.3-.06.89-.12,1.56-.19,1.82-.17,2.54.22,3.29,1.05l6.31,7.32c4.5,4.93,7.4,6.24,12.53,5.58l2.54-.62.14-.14a1.39,1.39,0,0,0,.42-1.44,1.3,1.3,0,0,0-.93-.91"/><path id="path78" class="cls-1" d="M239.76,287.37Zm-.23,9.33-5-.16c-3.25-.16-5.42-1.14-6.46-2.93a5.79,5.79,0,0,1-.81-2.65c-.05-1.73,1-3.21,3-4.39,3.74-2.17,6.23-.49,8.18,1.43l.22.15a1.57,1.57,0,0,0,1.53-.17,2,2,0,0,0,.91-1.41l0-.21-.11-.18a23.45,23.45,0,0,0-4.35-5.53l-.18-.15-.23,0c-.15,0-.39,0-2.18.65a18.79,18.79,0,0,0-4.89,2,12.94,12.94,0,0,0-6,6.66,9.33,9.33,0,0,0,.83,8c2.44,4.2,7,5.31,10.36,5.5l6,.32c4.34.21,5.77,2.07,6.78,3.8a5.13,5.13,0,0,1,.6,3.88,6,6,0,0,1-3,3.5c-3.52,2.05-7.15,1.33-10.81-2.13l-.16-.12a1.46,1.46,0,0,0-1.43,0,2,2,0,0,0-1,1.44l0,.25.13.21c1.33,2.17,4,5.34,5.34,6.18l.17.1h.38a17.23,17.23,0,0,0,8.59-2.57c3.38-2,5.6-4.61,6.41-7.67a9.68,9.68,0,0,0,.32-2.76,10.71,10.71,0,0,0-1.51-5.1c-2.25-3.86-6.07-5.82-11.7-6"/><path id="path80" class="cls-1" d="M285.18,287.41l-.17,0a9.54,9.54,0,0,0-1.34.89c-2,1.38-2,1.41-5.72-2.72l-12.7-14.13c-3.81-4.24-3.72-4.34-2.17-6l1-1.1.05-.16a1.58,1.58,0,0,0-.48-1.64,1.76,1.76,0,0,0-1.59-.54l-.15.06c-.11.06-.17.09-5,4.68l-5.1,4.37-.18.24a1.65,1.65,0,0,0,.3,1.78,1.53,1.53,0,0,0,1.44.68l.17-.05a7.18,7.18,0,0,0,1.32-.94c1.81-1.37,1.92-1.45,5.73,2.78l12.71,14.13c3.72,4.14,3.66,4.21,2.1,6l-1,1.17,0,.22a1.81,1.81,0,0,0,.72,1.7,1.71,1.71,0,0,0,1.06.41,1.54,1.54,0,0,0,.3,0l.18-.07c.11-.06.17-.1,5.12-4.77l0,0c.52-.39,1.74-1.44,5-4.25l.19-.25a1.65,1.65,0,0,0-.3-1.76,1.6,1.6,0,0,0-1.44-.7"/><path id="path82" class="cls-1" d="M314.21,249.94a1.61,1.61,0,0,0-1.58-.22l-.18.13a13.71,13.71,0,0,0-1.15,1.57c-1.34,1.86-1.4,1.93-6.16-.8l-20.62-11.8-.75-.44c.08-.17.21-.38.29-.53l1.88-3.29c1.35-2.35,2.63-3.8,3.8-4.32.24-.1,1.26-.09,3.31.78l.17.07h.19a1.79,1.79,0,0,0,1.45-1.14,1.59,1.59,0,0,0-.08-1.56l-.11-.17-.18-.08a33.05,33.05,0,0,1-6.47-4.62l-.17-.17-.24,0a1.76,1.76,0,0,0-1.79,1.49l0,.25.12.21c.61,1.11.64,1.17-.74,3.57l-10.74,18.77c-1.42,2.49-1.86,2.94-2.57,2.69l-.19-.06-.19,0a2,2,0,0,0-1.36,1.85l0,.3.22.2a68.18,68.18,0,0,1,5.88,5.76l.16.19.24.05a1.81,1.81,0,0,0,1.75-.56,1.76,1.76,0,0,0,.5-1.43l-.09-.27-.1-.15a9.18,9.18,0,0,1-1.83-3.59c-.36-1.55,1.3-4.45,2-5.68l1.46-2.55c.08-.14.22-.39.33-.56.19.09.46.25.67.37L302,256c4.8,2.75,4.7,3,3.77,5l-.82,1.75-.07.3a1.66,1.66,0,0,0,1,1.52,2,2,0,0,0,.88.23,1.33,1.33,0,0,0,.74-.21l.13-.12c.08-.09.13-.14,3.72-6.73l-.07,0c.46-.61,1.38-2.14,3.66-5.92l.1-.29a1.67,1.67,0,0,0-.84-1.57"/><path id="path84" class="cls-1" d="M331.9,195.36a37.42,37.42,0,0,0-7.15-4.11l-.18-.08-.2,0a1.78,1.78,0,0,0-1.39,1,1.87,1.87,0,0,0-.05,1.55l.07.16.14.11c2.5,1.95,3.87,3.57,4.11,4.3.31,1.11.18,2.74-.52,6.42-.92,4.76-1.67,5.27-2,5.5-.77.49-2.54.28-5-.18l-7.28-1.4-.58-.21c0-.22.09-.52.13-.72l.59-3a18,18,0,0,1,1-3.76c.23-.51.6-.68,1.49-.71l2.14-.08.29-.07a1.83,1.83,0,0,0,1-1.52,1.63,1.63,0,0,0-.49-1.43l-.17-.11a11.63,11.63,0,0,0-2.23-.39l-3.08-.46-5.42-1.26-.18,0a1.58,1.58,0,0,0-1.14,1.17,1.88,1.88,0,0,0,.25,1.69l.13.12a17.43,17.43,0,0,0,2.31,1c.95.39,1,.57,1,.86a19.31,19.31,0,0,1-.53,4.22l-.58,3c-.06.31-.12.62-.18.81l-.53-.1-10.48-2a11.54,11.54,0,0,1-1.16-.25c0-.15.06-.41.1-.63l.73-3.77a25.16,25.16,0,0,1,1.22-4.81c.93-2,2.34-2.17,4.66-2.45l.33,0,.25-.07a1.6,1.6,0,0,0,.89-1.3,1.91,1.91,0,0,0-.43-1.56l-.2-.13a3.07,3.07,0,0,0-1.1-.2,44.88,44.88,0,0,0-6.63-.43l-.84.14,0,.85c0,.53-.62,3.93-1.15,6.67l-1.93,10-1.38,6.3,0,.15a1.67,1.67,0,0,0,1.31,1.23,1.56,1.56,0,0,0,1.56-.32l.1-.12a4.89,4.89,0,0,0,.4-1.07c.71-2.24.73-2.33,6.15-1.29L319,216.27c5.42,1,5.4,1.28,5.17,3.5l-.2,2,.11.2a1.8,1.8,0,0,0,1.59.93h.06a1.57,1.57,0,0,0,1.27-.55l.09-.17c0-.1.07-.16,1.3-7.38l3.84-19.15-.33-.28"/><path id="path86" class="cls-1" d="M295.33,156c-.05-.15-.1-.38-.15-.6h0c-.05-.26-.22-1-.8-3.72s-.6-4.58-.07-5.72c.11-.24.87-.87,3-1.54l.18-.05.13-.14a1.74,1.74,0,0,0,.35-1.79,1.63,1.63,0,0,0-1.08-1.15l-.2-.05-.19.05a33.11,33.11,0,0,1-7.93.7l-.24,0-.2.13a1.35,1.35,0,0,0-.61.9,2,2,0,0,0,.26,1.42l.13.19.22.09c1.17.43,1.27.47,1.86,3.19l4.58,21.18c.6,2.8.58,3.42-.1,3.68l-.19.08-.12.16a2,2,0,0,0,.22,2.3l.21.2h.29a67.58,67.58,0,0,1,8.24.54l.24,0,.22-.12a1.86,1.86,0,0,0,.37-3l-.13-.12-.34-.08a9.65,9.65,0,0,1-3.72-1.52c-1.17-.86-1.86-3.46-2.33-5.62l-.63-2.88c0-.16-.09-.43-.12-.63l.72-.15,23.39-4.46c5.43-1,5.49-.8,6.1,1.34l.52,1.86.13.26a1.65,1.65,0,0,0,1.74.54,1.61,1.61,0,0,0,1.24-1l0-.17c0-.12,0-.19-1.55-7.5l-1.15-6.89-.11-.29A1.68,1.68,0,0,0,326,145a1.56,1.56,0,0,0-1.33.87l-.05.16a11.43,11.43,0,0,0,.13,2c.2,2.27.21,2.36-5.19,3.39l-23.4,4.45c-.33.06-.67.13-.86.15"/><path id="path88" class="cls-1" d="M84,75.48l.18,0a7.22,7.22,0,0,0,1.36-.86c1.92-1.3,1.92-1.3,4.93,2.9L98,87.64c3.91,5.34,7.45,7.84,11.48,8.08q.42,0,.84,0c2.9,0,5.94-1.16,9.46-3.63s5.84-5.72,6.36-9.2c.63-3.89-.73-8.25-4.16-13.34l-3.36-5c-2.32-3.46-4.76-7.58-5-9,0-.19.26-.83,1.18-1.49l1-.75.2-.21c.14-.24.22-.53-.18-1.67l-.1-.28-1.22-.6-.28.08c-.12,0-.21.07-4.95,3.12v0c-.49.25-1.73,1-5.22,2.93l-.18.15c-.17.18-.3.41-.22,1.39l0,.28,1.15,1.08.32,0c.13,0,.29,0,1.61-.68s1.92-.51,2-.44c1.29.68,4.22,5.09,5.8,7.47l4,6c2.22,3.3,3.42,6.24,3.56,8.72.18,3-1.13,5.4-4,7.4-5.65,4-10.38,2.47-15.82-5l-6.85-9.29-.2-.27c-3-4.21-3-4.21-1.43-5.74l.92-.89.17-.25a1.82,1.82,0,0,0-1.85-2.33l-.19.07c-.1.05-.17.09-5.14,4.33l-5.16,4-.2.24a1.75,1.75,0,0,0,.21,1.82,1.53,1.53,0,0,0,1.32.74"/><path id="path90" class="cls-1" d="M184.94,70.34l.15-.09a1.51,1.51,0,0,0,.77-1.32,2,2,0,0,0-.68-1.6l-.2-.11a8.27,8.27,0,0,0-2.06-.13c-1.62,0-1.78-.52-2.34-3l-4.71-23.31c-.62-3.45-.46-3.76,2.09-4.25l1.29-.22.16-.13a1.6,1.6,0,0,0,.5-1.51,2,2,0,0,0-.84-1.4l-.23-.08a41,41,0,0,0-4.94.47L169,33.8l.08,1c0,.21,0,.42,0,.64,0,2.24-.93,5.39-2.31,9.84,0,.16-3.52,11.81-3.52,11.81S162,61,161.3,63.22c-.59-.87-1.54-2.21-3.11-4.33l-8.75-12.46c-1.06-1.43-3.87-5.21-4-7.49l-.09-1.12-5.28,1.43-4.26.84-.27.11a1.71,1.71,0,0,0-.74,1.45,1.82,1.82,0,0,0,.62,1.44l.26.13a3.59,3.59,0,0,0,1.24,0h0c2.67-.19,2.88-.13,3.28,2.75,0,0,0,0,1.4,11.76l.95,10.82.13,1.65c.26,3.31-.2,3.48-1.94,4.15h0l-1.14.45-.26.18a1.64,1.64,0,0,0-.4,1.52,1.87,1.87,0,0,0,.92,1.28l.26.07h0a55.45,55.45,0,0,0,5.65-1.54L151.66,75l.23-.1a1.57,1.57,0,0,0,.7-1.5,1.76,1.76,0,0,0-.87-1.46l-.23-.07a10.39,10.39,0,0,0-2.4.34c-.55.1-.9.1-1.06,0-.51-.35-.86-2.44-1-3.42L145.41,57l-.79-7,2.64,4,0,0c.39.64,1.74,2.6,6.43,9.4l.92,1.32A96.29,96.29,0,0,1,160.07,73l.1.14a1.57,1.57,0,0,0,1.4.48,1.53,1.53,0,0,0,1.19-.83l.05-.16c.51-2.44,1.94-7.51,3.64-12.91l4.35-14,3.41,18.55a24,24,0,0,1,.32,2.42c0,.68,0,.89-1.41,1.14l-1.5.27-.25.1c-.22.13-.43.33-.61,1.39l0,.28.85,1.31.29.06c.15,0,.23.05,6.66-.58l6.43-.29"/><path id="path92" class="cls-1" d="M227.28,70.57l.09-.18,0-.2a1.71,1.71,0,0,0-.91-1.43,1.79,1.79,0,0,0-1.55-.16l-.16.07-.12.13c-2.09,2.39-3.8,3.66-4.53,3.85-1.15.25-2.76,0-6.38-.89-4.69-1.19-5.16-2-5.38-2.33-.44-.8-.13-2.55.47-4.94l1.81-7.19.24-.56c.23,0,.53.11.72.16l3,.76a18.16,18.16,0,0,1,3.71,1.18c.48.26.64.65.62,1.53h0c0,.23,0,.76,0,2.14v.15l.06.15a1.82,1.82,0,0,0,1.46,1.06,1.66,1.66,0,0,0,1.44-.39l.14-.2a12.25,12.25,0,0,0,.5-2.19l.64-3,1.58-5.35,0-.17a1.6,1.6,0,0,0-1.11-1.22,1.88,1.88,0,0,0-1.7.16l-.13.12a19.66,19.66,0,0,0-1.11,2.25c-.44.93-.62.94-.92,1a16.61,16.61,0,0,1-4.18-.77l-3-.76c-.3-.08-.61-.15-.79-.22,0-.14.08-.34.12-.53l2.63-10.39c.11-.43.22-.86.31-1.1l.62.14,3.72,1a25.1,25.1,0,0,1,4.74,1.49c1.95,1.05,2,2.46,2.17,4.82l0,.33.05.22a1.66,1.66,0,0,0,1.27,1,1.91,1.91,0,0,0,1.55-.34l.16-.2a3.64,3.64,0,0,0,.26-1.08,43.61,43.61,0,0,0,.8-6.61L230,40.9h-.85c-.54,0-3.94-.86-6.67-1.55l-9.84-2.48-6.21-1.74-.16,0A1.68,1.68,0,0,0,205,36.38a1.59,1.59,0,0,0,.21,1.58l.15.13a6.33,6.33,0,0,0,1,.43c2.2.85,2.29.88.94,6.22l-4.71,18.64c-1.35,5.36-1.58,5.31-3.79,5l-2-.31-.2.09a1.83,1.83,0,0,0-1,1.54,1.55,1.55,0,0,0,.48,1.35l.13.09c.11.06.18.09,7.33,1.74L208.22,74l13.83,3.66.41.11.3-.31a37.27,37.27,0,0,0,4.52-6.9"/><path id="path94" class="cls-1" d="M251.49,75h0l9.12-6.42.94-.61-3.42,11.2c-.05.17-.09.3-.13.41l-.34-.23,0,.06c-.57-.49-2.06-1.54-6-4.28l-.18-.12Zm15.79-16.94h0a2.66,2.66,0,0,1,2.12-1.23,1.88,1.88,0,0,1,1.08.33c1,.71,1.09,2.11.23,3.33A2.86,2.86,0,0,1,269,61.73a1.93,1.93,0,0,1-1.45-.34,1.9,1.9,0,0,1-.78-1.24,2.78,2.78,0,0,1,.56-2.07ZM231.19,81.47a6.16,6.16,0,0,0,1.37.86l3.24,1.88,4.55,3,.25.11a1.68,1.68,0,0,0,1.68-.62,1.72,1.72,0,0,0,.33-1.66l-.09-.16a9.24,9.24,0,0,0-1.6-1.29,3.19,3.19,0,0,1-.48-.41,20.06,20.06,0,0,1,3.34-2.84l3.64-2.49c.55-.4.54-.4,1.31.14l7.19,5a3.3,3.3,0,0,1,.82.68,2.65,2.65,0,0,1-.11.52c0,.06,0,.06-1.76,6a16,16,0,0,1-.85,2.3,3.22,3.22,0,0,1-.85-.43l-1.45-.93-.17,0A1.58,1.58,0,0,0,250,92a1.78,1.78,0,0,0-.19,1.7l.1.16a9.23,9.23,0,0,0,1.12.88l3.91,3,5.11,4.3.22,0h.16a1.87,1.87,0,0,0,1.72-2.25l-.08-.18a10.43,10.43,0,0,0-1.18-1.24c-1.29-1.29-1.43-2-.08-6.42,0-.06,0-.06,6.46-21.9l1.44-4.88A5.76,5.76,0,0,0,274,62.78a6.07,6.07,0,0,0-9.92-7,5.77,5.77,0,0,0-.29,6.07l-2.43,1.69h0l-12.75,8.64-1.74,1.18h.11c-1.72,1.15-4.42,2.88-5.58,3.6l0,0-3.48,2.28a2.88,2.88,0,0,1-3.27.44l-1.73-.86h-.18a1.67,1.67,0,0,0-1.43.91,1.79,1.79,0,0,0-.19,1.53l.14.21"/></g></g><path d="M510.85,122c0-7.83-.25-22.36-2.42-26.21-.87-1.49-3.17-2.42-6.34-2.67l-3.16-.25a2.32,2.32,0,0,1,.24-3c4.79.24,9.51.37,14.41.37,5.34,0,8.76-.13,13.29-.37,1,.62.87,2.29.25,3l-3,.25c-3.17.25-5.59,1.36-6.34,3-1.8,4.16-1.8,18.69-1.8,25.77V136.2c0,11-1.74,22.61-8.88,30.24-5.46,6-14.78,9.26-24.16,9.26-8.75,0-17.45-1.62-23.66-7-6.71-5.59-9.87-14.78-9.87-29.87V109c0-13.17-.25-15.28-7.58-16l-3.17-.25c-.74-.5-.5-2.67.25-3.05,6.33.25,10.62.38,15.65.38s9.38-.13,15.53-.38c.74.38,1,2.55.25,3.05l-3.05.25c-7.33.62-7.57,2.79-7.57,16v27.32c0,20.37,6.33,33.79,25.65,33.79,18.32,0,25.27-14.41,25.27-33.66V122Z"/><path d="M583.58,139.93c2.92,6,5.71,11.73,8.69,17.32h.25c3.42-6,6.58-12.54,9.75-18.94l11.86-24.16c5.72-11.49,9.38-18.44,9.63-24.28,4.29.37,7,.37,9.5.37,3.17,0,7.33-.12,11.24-.37.75.49.75,2.67.13,3.17l-2.67.24c-8,.75-9,3.17-8.88,12,.24,13.41.37,36.83,1.36,55,.37,6.33.25,9.75,6.21,10.24l4,.38c.74.74.62,2.67-.25,3.16-5.15-.24-10.37-.37-14.9-.37s-10.13.13-15.28.37a2.37,2.37,0,0,1-.25-3.16l3.66-.38c6.21-.62,6.21-2.67,6.21-10.74l-.37-52.73h-.25c-.87,1.37-5.71,11.49-8.2,16.46l-11.24,22.11c-5.71,11.12-11.36,23-13.66,28.82a1.44,1.44,0,0,1-1.24.49,1.52,1.52,0,0,1-1.12-.49c-2.17-6.71-8.2-19.13-11.12-25.28l-11.36-24.41c-2.67-5.84-5.34-12.42-8.08-18.2h-.37c-.5,7.83-.87,15.16-1.24,22.49-.37,7.7-.87,18.94-.87,29.75,0,9.37.75,11.36,5.71,11.73l4.79.38c.87.74.74,2.79-.13,3.16-4.28-.24-9.25-.37-14-.37-4,0-8.58.13-12.92.37-.75-.62-1-2.54-.25-3.16l2.79-.38c5.34-.74,7.08-1.49,7.83-10.37.74-8.32,1.37-15.28,2.17-27.82.62-10.5,1.12-21.24,1.37-28.2.25-8-.75-9.87-8.45-10.87l-2-.24c-.62-.75-.49-2.68.5-3.17,3.79.25,6.83.37,10,.37,2.92,0,6.33,0,10.5-.37-.5,4.9,2.67,12.79,6.58,20.87Z"/><path d="M671.58,109.18c0-13.16-.25-15-7.7-16l-2-.25c-.74-.49-.5-2.79.25-3.16,5.46.24,9.75.37,14.9.37h23.79c8.08,0,15.53,0,17.08-.37.75,2.17,1.49,11.24,2,16.83-.5.74-2.55,1-3.17.24-1.92-6-3-10.37-9.62-12-2.67-.62-6.71-.75-12.3-.75h-9.13c-3.79,0-3.79.25-3.79,5v25.28c0,3.54.37,3.54,4.16,3.54h7.33c5.34,0,9.25-.25,10.75-.74s2.42-1.25,3-4.41l1-5.22c.62-.75,2.8-.75,3.29.12,0,3-.49,8-.49,12.8,0,4.53.49,9.38.49,12.17-.49.87-2.67.87-3.29.12l-1.12-4.9c-.49-2.3-1.36-4.16-3.91-4.78-1.8-.5-4.78-.63-9.75-.63h-7.33c-3.79,0-4.16.13-4.16,3.42v17.82c0,6.71.37,11,2.42,13.17,1.49,1.49,4.16,2.92,15.28,2.92,9.75,0,13.42-.5,16.21-1.92,2.3-1.25,5.71-5.72,9-12.3a2.35,2.35,0,0,1,3.16.87,105.52,105.52,0,0,1-5.71,17.57c-11.37-.24-22.61-.37-33.91-.37H677c-5.46,0-9.75.13-17.2.37-.74-.37-1-2.42-.25-3.16l4.16-.38c7.21-.62,7.83-2.54,7.83-15.83V109.18Z"/><path d="M786.42,144.4c-.87-2.8-1.37-3.17-5.22-3.17H762.13c-3.17,0-3.91.37-4.78,3l-4.41,13.29c-1.92,5.72-2.79,9.13-2.79,10.5s.62,2.3,3.66,2.55L758,171c.87.62.87,2.67-.25,3.17-3.29-.25-7.2-.25-13.16-.38-4.16,0-8.76.25-12.18.38-.74-.5-1-2.55-.24-3.17l4.16-.37c3-.25,5.83-1.62,7.57-6.21,2.3-5.84,5.84-14,11.12-28.2L767.91,102c1.74-4.53,2.54-7,2.17-9a14.08,14.08,0,0,0,6.59-4.79,1.88,1.88,0,0,1,1.92,1.12c1.62,5.59,3.66,11.37,5.59,17l17.33,50.86c3.66,10.87,5.34,12.79,10.74,13.42l3.42.37c.87.62.62,2.67,0,3.17-5.16-.25-9.63-.38-15.28-.38-6.09,0-10.87.25-14.53.38a2.15,2.15,0,0,1-.25-3.17l3.66-.37c2.67-.25,4.41-1,4.41-2.3a26.69,26.69,0,0,0-1.61-6.71Zm-25-11.31c-1,2.92-.87,3,2.67,3h15.52c3.67,0,3.92-.5,2.8-3.92l-6.83-20.62a80.51,80.51,0,0,0-2.92-7.94h-.25c-.37.62-1.61,3.66-3,7.45Zm24.28-58.94a10.76,10.76,0,1,1-10.74-10.24A10.53,10.53,0,0,1,785.67,74.15Zm-10.74,6.71c3.29,0,5.71-2.79,5.71-6.71s-2.42-6.58-5.71-6.58-5.72,2.8-5.72,6.58C769.21,78.13,771.76,80.86,774.93,80.86Z"/><path d="M885.1,175.7c-10.62,0-17.32-3.29-19.75-4.66-1.49-2.79-3.16-11.74-3.41-17.7.62-.87,2.54-1.12,3-.37,1.86,6.46,7.08,18.82,21.74,18.82,10.62,0,15.77-7,15.77-14.54,0-5.59-1.12-11.74-10.37-17.7l-12-7.82c-6.33-4.16-13.66-11.37-13.66-21.74,0-12,9.38-21.74,25.77-21.74A49.52,49.52,0,0,1,904,89.87a17.42,17.42,0,0,0,4.41.74,56,56,0,0,1,2.3,15.41c-.5.74-2.55,1.11-3.17.37-1.61-6.09-5-14.29-17.2-14.29-12.42,0-15,8.2-15,14,0,7.33,6.09,12.67,10.74,15.53L896.16,128c8,4.91,15.77,12.3,15.77,24.28C912,166.26,901.5,175.7,885.1,175.7Z"/><path d="M945.78,99c9.25-7.21,21-10.75,34.16-10.75a95.11,95.11,0,0,1,22.36,3,9.58,9.58,0,0,0,3.54.49c.12,2.92.74,10.87,1.8,18.57a2.7,2.7,0,0,1-3.42.25c-1.86-8.57-7.57-18.44-25.9-18.44-19.37,0-35.77,12.29-35.77,38.44,0,26.58,16.83,41.24,37.58,41.24,16.33,0,23.53-10.62,26.45-18.08.87-.62,2.8-.37,3.29.5-.87,6.59-4.16,14.91-6.08,17.33a25.41,25.41,0,0,0-4.41,1.24,74.87,74.87,0,0,1-20,2.92c-11.37,0-22.23-2.3-31.49-8.45-10.12-6.95-17.95-18.44-17.95-34.78C929.88,118.44,936.15,106.45,945.78,99Z"/><path d="M1050.86,132.85c-6.08,0-6.33.24-6.33,4v17.83c0,13.29.62,15,7.7,15.83l3.66.38c.75.49.5,2.79-.24,3.16-6.84-.24-11.12-.37-16.09-.37-5.46,0-9.75.25-14.66.37-.74-.37-1-2.42-.24-3.16l2.17-.38c7.08-1.24,7.33-2.54,7.33-15.83V109.18c0-13.29-.87-15.4-7.46-16l-3.29-.25c-.74-.49-.49-2.79.25-3.16,6.21.12,10.5.37,16,.37,4.91,0,9.26-.13,14.66-.37.75.37,1,2.67.25,3.16l-2.42.25c-7.33.75-7.58,2.67-7.58,16v14.54c0,3.91.25,4,6.33,4H1087c6.09,0,6.33-.12,6.33-4V109.18c0-13.29-.24-15.15-7.7-16l-2.42-.25c-.74-.49-.5-2.79.25-3.16,5.84.24,10.12.37,15.28.37,4.9,0,9.25-.13,14.9-.37.75.37,1,2.67.25,3.16l-2.67.25c-7.33.75-7.58,2.67-7.58,16v45.53c0,13.29.25,14.9,7.58,15.83l3,.38c.75.49.5,2.79-.24,3.16-6.09-.24-10.38-.37-15.28-.37-5.22,0-9.75.13-15.28.37-.75-.37-1-2.42-.25-3.16l2.42-.38c7.7-1.24,7.7-2.54,7.7-15.83V136.88c0-3.79-.24-4-6.33-4Z"/><path d="M1131.48,132.85c0-25.28,18.94-44.66,45-44.66,29.19,0,43.91,21.12,43.91,43.35,0,25.53-19.44,44.16-43.91,44.16C1148.43,175.7,1131.48,155.64,1131.48,132.85Zm76.26,2.67c0-20.87-9.25-43.35-33.41-43.35-13.17,0-30.24,9-30.24,36.64,0,18.69,9.13,43,34,43C1193.27,171.79,1207.74,160.42,1207.74,135.52Z"/><path d="M1237.68,132.85c0-25.28,18.94-44.66,45-44.66,29.19,0,43.91,21.12,43.91,43.35,0,25.53-19.44,44.16-43.91,44.16C1254.63,175.7,1237.68,155.64,1237.68,132.85Zm76.27,2.67c0-20.87-9.26-43.35-33.42-43.35-13.16,0-30.24,9-30.24,36.64,0,18.69,9.13,43,34,43C1299.54,171.79,1314,160.42,1314,135.52Z"/><path d="M1354.32,109.18c0-13.29-.25-15.28-8.2-16L1343,93c-.75-.49-.5-2.79.25-3.16,7.08.24,11.36.37,16.46.37,4.9,0,9.25-.13,15.52-.37.75.37,1,2.67.25,3.16l-3,.25c-7.45.62-7.7,2.67-7.7,16v44c0,7.95.37,11.24,2.67,13.66,1.36,1.37,3.79,2.92,13.78,2.92,10.75,0,13.42-.5,15.41-1.62,2.54-1.49,5.83-6.08,8.32-12.54.74-.62,3.17-.13,3.17.74,0,1.37-3.54,14.29-5.34,17.7-6.46-.24-18.45-.37-31.49-.37h-11.62c-5.34,0-9.37.13-16.45.37-.75-.37-1-2.42-.25-3.16l3.79-.38c7.32-.74,7.57-2.54,7.57-15.83V109.18Z"/><path d="M1456.91,132.85c0-25.28,18.95-44.66,45-44.66,29.19,0,43.91,21.12,43.91,43.35,0,25.53-19.44,44.16-43.91,44.16C1473.81,175.7,1456.91,155.64,1456.91,132.85Zm76.21,2.67c0-20.87-9.26-43.35-33.41-43.35-13.17,0-30.25,9-30.25,36.64,0,18.69,9.13,43,34,43C1518.71,171.79,1533.12,160.42,1533.12,135.52Z"/><path d="M1583.86,125.89c0,3.42.37,3.42,4.16,3.42h8.57c5.16,0,9.26-.25,10.75-.75s2.42-1.12,3.16-4.41l1.12-5c.62-.75,2.8-.75,3.29,0,0,3-.49,8.07-.49,12.79,0,4.54.49,9.38.49,12.3-.49.75-2.42.75-3.29,0l-1.24-4.91c-.62-2.29-1.62-4-4-4.78-1.8-.49-4.9-.62-9.75-.62H1588c-3.79,0-4.16.13-4.16,3.42v17.57c0,13.29.25,15.16,7.7,15.84l4.29.37c.74.5.49,2.8-.25,3.17-7.46-.25-11.74-.37-16.83-.37-5.59,0-9.88.12-15.84.37-.75-.37-1-2.42-.25-3.17l3.17-.37c7.33-.87,7.58-2.55,7.58-15.84V109.37c0-13.29-.25-15-7.58-16l-2-.25c-.75-.5-.5-2.8.25-3.17,5.34.25,9.62.37,14.65.37H1602c8.08,0,15.41,0,17.08-.37,0,5.84.13,11.86.38,16.71a2.33,2.33,0,0,1-3,.37c-1-5.71-2.54-10.37-8.88-12-2.79-.74-7-.74-12.3-.74h-7.7c-3.78,0-3.78.25-3.78,5v26.52Z"/><path d="M485.82,270.85c-.87-2.8-1.36-3.17-5.15-3.17H461.6c-3.17,0-3.91.37-4.78,3L452.41,284c-1.93,5.72-2.8,9.13-2.8,10.5s.63,2.3,3.67,2.54l4.16.38c.87.62.87,2.67-.25,3.16-3.29-.24-7.2-.24-13.17-.37-4.16,0-8.75.25-12.11.37-.74-.49-1-2.54-.24-3.16l4.16-.38c3-.24,5.83-1.61,7.57-6.21,2.3-5.83,5.84-14,11.12-28.19l12.92-34.16c1.74-4.54,2.54-7,2.17-9,3.05-.87,5.16-3.16,6.59-4.78a1.88,1.88,0,0,1,1.92,1.12c1.62,5.59,3.66,11.36,5.59,17L501,283.64c3.66,10.87,5.34,12.79,10.74,13.41l3.42.38c.87.62.62,2.67,0,3.16-5.16-.24-9.63-.37-15.28-.37-6.09,0-10.87.25-14.53.37a2.14,2.14,0,0,1-.25-3.16l3.66-.38c2.67-.24,4.41-1,4.41-2.29a26.69,26.69,0,0,0-1.61-6.71ZM460.73,259.6c-1,2.92-.87,3,2.67,3h15.53c3.66,0,3.91-.5,2.79-3.92l-6.83-20.61a75.12,75.12,0,0,0-2.92-8h-.18c-.38.62-1.62,3.66-3.05,7.45Z"/><path d="M535,235.82c0-12-.37-14.16-5.59-14.78l-4-.5c-.87-.62-.87-2.67.13-3.17,7.08-.62,15.83-1,28.19-1,7.83,0,15.28.62,21.12,3.79,6.09,3.16,10.5,8.88,10.5,17.7,0,12-9.51,18.57-15.84,21.11-.62.75,0,2,.62,3,10.12,16.33,16.83,26.45,25.4,33.66a15.54,15.54,0,0,0,8.76,3.54,1.09,1.09,0,0,1,.12,1.8,20.11,20.11,0,0,1-5.59.62c-10.74,0-17.2-3.17-26.21-16-3.29-4.66-8.44-13.42-12.42-19.13-1.92-2.79-3.91-4-9-4-5.72,0-6,.13-6,2.8v16c0,13.29.24,14.78,7.57,15.84l2.67.37c.75.62.5,2.79-.25,3.17-5.71-.25-10-.38-15-.38-5.34,0-9.87.13-15.83.38-.75-.38-1-2.3-.25-3.17l3.17-.37c7.33-.87,7.57-2.55,7.57-15.84V235.82Zm10.37,18.07c0,2.3,0,3.66.37,4.16s2.3.62,8.76.62c4.54,0,9.38-.49,13-3.29,3.42-2.67,6.34-7.08,6.34-15.71,0-10-6.21-19.44-20.25-19.44-7.82,0-8.2.5-8.2,4v29.62Z"/><path d="M627.55,225.45c9.25-7.21,21-10.75,34.16-10.75a95.55,95.55,0,0,1,22.35,3,9.46,9.46,0,0,0,3.54.5c.13,2.92.75,10.87,1.74,18.57a2.7,2.7,0,0,1-3.41.25c-1.93-8.57-7.58-18.45-25.9-18.45-19.38,0-35.77,12.3-35.77,38.45,0,26.58,16.83,41.24,37.57,41.24,16.33,0,23.54-10.62,26.4-18.08.87-.62,2.79-.37,3.29.5-.87,6.58-4.16,14.91-6.09,17.33a25.66,25.66,0,0,0-4.41,1.24,75.22,75.22,0,0,1-20,2.92c-11.36,0-22.23-2.3-31.48-8.45-10.13-6.95-17.95-18.44-17.95-34.78A42.36,42.36,0,0,1,627.55,225.45Z"/><path d="M732.69,259.36c-6.08,0-6.33.24-6.33,4v17.83c0,13.29.62,15,7.7,15.83l3.66.38c.75.49.5,2.79-.24,3.16-6.84-.24-11.12-.37-16.09-.37-5.46,0-9.75.25-14.66.37-.74-.37-1-2.42-.24-3.16l2.17-.38c7.08-1.24,7.33-2.54,7.33-15.83V235.69c0-13.29-.87-15.4-7.46-16l-3.29-.25c-.74-.49-.49-2.79.25-3.16,6.21.12,10.5.37,16,.37,4.91,0,9.26-.13,14.66-.37.75.37,1,2.67.25,3.16l-2.42.25c-7.33.75-7.58,2.67-7.58,16v14.54c0,3.91.25,4,6.33,4h36.15c6.09,0,6.33-.12,6.33-4V235.69c0-13.29-.24-15.15-7.7-16l-2.42-.25c-.74-.49-.5-2.79.25-3.16,5.84.24,10.12.37,15.28.37,4.9,0,9.25-.13,14.9-.37.75.37,1,2.67.25,3.16l-2.67.25c-7.33.75-7.58,2.67-7.58,16v45.53c0,13.29.25,14.9,7.58,15.83l3,.38c.75.49.5,2.79-.24,3.16-6.09-.24-10.38-.37-15.28-.37-5.22,0-9.75.13-15.28.37-.75-.37-1-2.42-.25-3.16l2.42-.38c7.7-1.24,7.7-2.54,7.7-15.83V263.39c0-3.79-.24-4-6.33-4Z"/><path d="M823.62,235.94c0-13.41-.25-15.53-7.7-16.21l-3.17-.25c-.75-.49-.5-2.79.25-3.16,6.33.24,10.62.37,16,.37,5,0,9.38-.13,15.65-.37.74.37,1,2.67.25,3.16l-3.17.25c-7.45.62-7.7,2.8-7.7,16.21v45c0,13.41.25,15.15,7.7,16.08l3.17.38c.74.49.49,2.79-.25,3.16-6.34-.24-10.62-.37-15.65-.37-5.34,0-9.63.13-16,.37-.75-.37-1-2.42-.25-3.16l3.17-.38c7.45-.87,7.7-2.67,7.7-16.08Z"/><path d="M902.43,281.22c0,13.29.25,15.15,7.58,15.83l4,.38c.75.49.5,2.79-.24,3.16-7.21-.24-11.49-.37-16.59-.37s-9.5.13-17.57.37c-.75-.37-1-2.54,0-3.16l4.53-.38c7.21-.62,7.83-2.54,7.83-15.83V224.7c0-3.91,0-4-3.79-4h-7c-5.46,0-12.42.25-15.52,3.17s-4.29,5.59-5.72,8.76a2.48,2.48,0,0,1-3.29-.87,129.06,129.06,0,0,0,4.78-18.82,3.26,3.26,0,0,1,2.42,0c.75,4,4.91,3.91,10.75,3.91h51.24c6.83,0,8-.25,9.87-3.54.62-.25,2.05-.12,2.3.38-1.37,5.15-2.3,15.4-1.93,19.19-.49,1-2.67,1-3.29.24-.37-3.16-1.24-7.82-3.17-9.25-2.91-2.17-7.7-3.17-14.65-3.17h-9c-3.79,0-3.66.13-3.66,4.29v56.27Z"/><path d="M961.24,235.69c0-13.16-.24-15-7.7-16l-2-.25c-.74-.49-.49-2.79.25-3.16,5.47.24,9.75.37,14.91.37h23.78c8.08,0,15.53,0,17.08-.37.75,2.17,1.49,11.24,2,16.83-.49.74-2.54,1-3.16.25-1.93-6-3-10.38-9.63-12-2.67-.62-6.71-.75-12.3-.75h-9.13c-3.79,0-3.79.25-3.79,5V251c0,3.54.38,3.54,4.17,3.54H983c5.35,0,9.26-.25,10.75-.74s2.42-1.25,3-4.41l1-5.22c.62-.75,2.79-.75,3.29.12,0,3.05-.5,8-.5,12.8,0,4.53.5,9.38.5,12.17-.5.87-2.67.87-3.29.12l-1.12-4.9c-.5-2.3-1.37-4.16-3.92-4.78-1.73-.5-4.78-.63-9.75-.63h-7.32c-3.79,0-4.17.13-4.17,3.42v17.83c0,6.7.38,11,2.43,13.16,1.49,1.49,4.16,2.92,15.27,2.92,9.76,0,13.42-.5,16.21-1.92,2.3-1.25,5.72-5.72,9-12.3a2.36,2.36,0,0,1,3.17.87,105.52,105.52,0,0,1-5.72,17.57c-11.36-.24-22.6-.37-33.91-.37H966.65c-5.47,0-9.75.13-17.21.37-.74-.37-1-2.42-.24-3.16l4.16-.38c7.2-.62,7.82-2.54,7.82-15.83V235.69Z"/><path d="M1046.08,225.45c9.26-7.21,21-10.75,34.16-10.75a95.64,95.64,0,0,1,22.36,3,9.41,9.41,0,0,0,3.54.5c.12,2.92.74,10.87,1.8,18.57a2.72,2.72,0,0,1-3.42.25c-1.86-8.57-7.57-18.45-25.89-18.45-19.38,0-35.78,12.3-35.78,38.45,0,26.58,16.83,41.24,37.58,41.24,16.33,0,23.53-10.62,26.45-18.08.87-.62,2.8-.37,3.3.5-.87,6.58-4.17,14.91-6.09,17.33a25.66,25.66,0,0,0-4.41,1.24,75.29,75.29,0,0,1-20,2.92c-11.36,0-22.23-2.3-31.49-8.45-10.12-6.95-18-18.44-18-34.78C1030.18,245,1036.46,232.9,1046.08,225.45Z"/><path d="M1164.83,281.22c0,13.29.25,15.15,7.58,15.83l4,.38c.75.49.5,2.79-.25,3.16-7.2-.24-11.49-.37-16.58-.37s-9.5.13-17.57.37c-.75-.37-1-2.54,0-3.16l4.53-.38c7.2-.62,7.83-2.54,7.83-15.83V224.7c0-3.91,0-4-3.79-4h-7c-5.46,0-12.42.25-15.53,3.17s-4.28,5.59-5.71,8.76a2.48,2.48,0,0,1-3.29-.87,129.06,129.06,0,0,0,4.78-18.82,3.26,3.26,0,0,1,2.42,0c.75,4,4.91,3.91,10.75,3.91h51.24c6.83,0,7.94-.25,9.87-3.54.62-.25,2-.12,2.3.38-1.37,5.15-2.3,15.4-1.93,19.19-.49,1-2.67,1-3.29.24-.37-3.16-1.24-7.82-3.17-9.25-2.92-2.17-7.7-3.17-14.65-3.17h-9c-3.79,0-3.66.13-3.66,4.29v56.27Z"/><path d="M1284,248.49c0-7.83-.25-22.36-2.42-26.21-.87-1.49-3.17-2.42-6.34-2.67l-3.16-.25a2.32,2.32,0,0,1,.24-3c4.79.24,9.51.37,14.41.37,5.34,0,8.7-.13,13.29-.37,1,.62.87,2.29.25,3l-3,.25c-3.17.25-5.59,1.36-6.34,3-1.73,4.16-1.73,18.69-1.73,25.77v14.29c0,11-1.81,22.61-8.89,30.24-5.46,6-14.78,9.26-24.15,9.26-8.7,0-17.46-1.62-23.67-7-6.7-5.59-9.87-14.78-9.87-29.87V235.51c0-13.17-.25-15.28-7.58-16l-3.17-.25c-.74-.5-.49-2.67.25-3.05,6.34.25,10.62.38,15.65.38,5.22,0,9.38-.13,15.53-.38.74.38,1,2.55.25,3.05l-3,.25c-7.32.62-7.57,2.79-7.57,16v27.32c0,20.37,6.33,33.79,25.65,33.79,18.32,0,25.27-14.41,25.27-33.66V248.49Z"/><path d="M1323.7,235.82c0-12-.38-14.16-5.59-14.78l-4-.5c-.87-.62-.87-2.67.12-3.17,7.08-.62,15.84-1,28.2-1,7.83,0,15.28.62,21.12,3.79,6.08,3.16,10.49,8.88,10.49,17.7,0,12-9.5,18.57-15.77,21.11-.62.75,0,2,.62,3,10.12,16.33,16.83,26.45,25.4,33.66a15.5,15.5,0,0,0,8.7,3.54,1.09,1.09,0,0,1,.12,1.8,20.16,20.16,0,0,1-5.59.62c-10.74,0-17.2-3.17-26.21-16-3.29-4.66-8.45-13.42-12.42-19.13-1.93-2.79-3.91-4-9-4-5.71,0-6,.13-6,2.8v16c0,13.29.25,14.78,7.58,15.84l2.67.37c.74.62.5,2.79-.25,3.17-5.71-.25-10-.38-15-.38-5.34,0-9.87.13-15.84.38-.74-.38-1-2.3-.24-3.17l3.16-.37c7.33-.87,7.58-2.55,7.58-15.84V235.82Zm10.37,18.07c0,2.3,0,3.66.37,4.16s2.3.62,8.7.62c4.53,0,9.37-.49,13-3.29,3.41-2.67,6.33-7.08,6.33-15.71,0-10-6.21-19.44-20.24-19.44-7.83,0-8.2.5-8.2,4Z"/><path d="M1411,235.69c0-13.16-.25-15-7.71-16l-2-.25c-.75-.49-.5-2.79.24-3.16,5.47.24,9.75.37,14.91.37h23.79c8.07,0,15.52,0,17.07-.37.75,2.17,1.5,11.24,2,16.83-.49.74-2.54,1-3.16.25-1.93-6-3-10.38-9.63-12-2.67-.62-6.71-.75-12.3-.75h-9.13c-3.78,0-3.78.25-3.78,5V251c0,3.54.37,3.54,4.16,3.54h7.33c5.34,0,9.25-.25,10.74-.74s2.42-1.25,3-4.41l1-5.22c.62-.75,2.79-.75,3.29.12,0,3.05-.5,8-.5,12.8,0,4.53.5,9.38.5,12.17-.5.87-2.67.87-3.29.12l-1.12-4.9c-.5-2.3-1.37-4.16-3.91-4.78-1.74-.5-4.79-.63-9.75-.63h-7.33c-3.79,0-4.16.13-4.16,3.42v17.83c0,6.7.37,11,2.42,13.16,1.49,1.49,4.16,2.92,15.28,2.92,9.75,0,13.41-.5,16.21-1.92,2.29-1.25,5.71-5.72,9-12.3a2.36,2.36,0,0,1,3.17.87,105.52,105.52,0,0,1-5.72,17.57c-11.36-.24-22.6-.37-33.91-.37h-11.36c-5.47,0-9.75.13-17.2.37-.75-.37-1-2.42-.25-3.16l4.16-.38c7.2-.62,7.82-2.54,7.82-15.83V235.69Z"/></g></g></svg>