<?xml version="1.0" encoding="UTF-8"?>
<svg id="Layer_2" xmlns="http://www.w3.org/2000/svg" version="1.1" viewBox="0 0 500 500">
  <!-- Generator: Adobe Illustrator 29.0.1, SVG Export Plug-In . SVG Version: 2.1.0 Build 192)  -->
  <defs>
    <style>
      .st0 {
        fill: #bbd644;
      }

      .st1, .st2 {
        fill: #231f20;
      }

      .st2 {
        fill-rule: evenodd;
      }

      .st3 {
        fill: #ccc2de;
      }

      .st4 {
        stroke-width: 8.2px;
      }

      .st4, .st5 {
        fill: none;
        stroke: #231f20;
        stroke-miterlimit: 10;
      }

      .st5 {
        stroke-width: 12.3px;
      }
    </style>
  </defs>
  <ellipse class="st0" cx="250.9" cy="330.2" rx="207.9" ry="81.1"/>
  <ellipse class="st3" cx="250.9" cy="178.6" rx="196.6" ry="73"/>
  <path class="st2" d="M169.4,367.8c1.3.4,2.3.9,3.1,1.4.4.3.7.5.9.8.3.3.5.6.7,1.1.5.8.8,1.9.9,2.5,0,.3,0,.5,0,.5,0,0,0,0,0,0,0,0,0,0,0,0,0,.2-.6.8-1.5,1.4-.9.6-2.1,1.3-3.5,1.9-2.7,1.2-5.9,2.2-9.1,3-6.5,1.6-13.2,2.6-19.6,3.4-1.6.2-3.2.4-4.7.5-.8,0-1.6.2-2.3.2-.8,0-1.5.1-2.2.2s-1.5.1-2.2.2c-.7,0-1.4,0-2.1.1s-1.4,0-2.1.1c-.7,0-1.4,0-2.1,0-2.7,0-5.3,0-7.7-.2-2.4-.2-4.6-.5-6.7-.9-2-.4-3.8-.9-5.4-1.6-1.6-.6-2.9-1.3-4.2-2.1-2.6-1.6-4.5-3.3-5.9-4.4-1.5-1.1-2.5-1.7-3.1-1.4-.6.3-.8,1.5-.4,3.5.5,2,1.6,4.8,4,7.9,1.2,1.5,2.9,3.3,4.9,4.7,2,1.5,4.3,2.7,6.8,3.8,2.5,1.1,5.2,1.9,8.1,2.6,2.9.7,5.9,1.2,9,1.5.8,0,1.6.2,2.4.2.8,0,1.6,0,2.4.2.8,0,1.6,0,2.5.1.8,0,1.7,0,2.5,0,.8,0,1.7,0,2.5,0,.8,0,1.7,0,2.5,0,1.7,0,3.4-.1,5.1-.2,7-.4,14.3-1.2,22-3,3.9-.9,7.8-2.1,12-3.9,2.1-1,4.2-2.1,6.4-3.7,2.1-1.6,4.4-3.7,6.1-7,.8-1.6,1.4-3.5,1.6-5.4.2-1.9,0-3.6-.2-5.2-.6-3.2-1.9-5.8-3.5-8.2-.8-1.2-1.8-2.4-3-3.4-.5-.6-1.2-1-1.8-1.5-.6-.4-1.3-.9-1.9-1.2-2.6-1.5-5.3-2.3-7.8-2.7-2.5-.4-4.9-.5-7.1-.5-1.1,0-2,0-2.9.1-.9,0-1.9.1-2.8.2-3.7.2-7.2.5-10.6.7-6.8.5-13.1,1.1-19,1.7-1.5.1-3,.3-4.4.4h-.5s-.3,0-.3,0h-.5c-.3.1-.6.2-1,.2-1.3.2-2.8.4-4.3.6s-3.3.3-5.2.4c-.9,0-1.9,0-2.9,0-1,0-2,0-3-.4-.2-.1-.4-.3-.5-.5,0-.2,0-.4,0-.6.1-.3.3-.6.5-.9.4-.6,1-1.1,1.5-1.6,1.2-1,2.6-2,4.2-2.9,1.6-.9,3.5-1.9,5.6-2.7,1.1-.4,2.2-.8,3.4-1.2.7-.2,1.4-.4,2.1-.5.7-.2,1.5-.4,2.3-.5,6.1-1.2,12.9-1.7,20-.9,7.2.7,14.8,2.6,22.7,6-15.3-7.5-30.2-9.5-43.2-8-.8,0-1.6.2-2.4.3-.8.1-1.7.3-2.5.4-.9.2-1.8.4-2.7.7-.9.2-1.8.5-2.7.7-3.6,1-7.1,2.4-10.3,3.9-3.2,1.5-6.1,3.2-8.3,5-1.1.9-2.1,1.8-3,2.9-.4.5-.8,1.1-1.1,1.7-.1.3-.2.7-.2,1,0,0,0,.2,0,.3,0,0,0,0,0,.2h0c0,.3.2.5.3.6.4.5.8.8,1.3,1.1.4.3.9.5,1.3.7.9.4,1.8.8,2.9,1.2,1,.4,2.2.7,3.5,1,1.4.3,3,.5,4.7.7,3.6.3,7.7.4,12.1.5,2.1,0,4.2,0,6.4,0,1.5,0,2.9,0,4.5,0,6,.1,12.3.2,19,.4,3.4,0,6.8.2,10.4.3.9,0,1.8,0,2.7.1.9,0,1.9,0,2.7.1,1.6.1,3,.3,4.3.7h0Z"/>
  <path class="st1" d="M364,256.7c-23.2-12.6-60.1-12.2-82.1,3.8-17.2,12.5-20.2,30.8-14.2,45,.7,1.7,9.4,21.3,34.9,28.9,35.7,10.6,78.6-9.8,78.6-9.8,0,0-18.6,8.2-44.2,6.7-6.1-.4-31.8-1.9-41.1-14.5-3.6-4.9-6.4-13.8-.9-17.9,1-.8,2.4-1.4,4.1-1.8,17-4.3,75.9,7.1,87.5-2.1,8.2-6.6-2.6-27.4-22.5-38.2h0ZM309.8,271.5c-6.4,3.5-13.8,4.1-16.6,1.5s0-7.6,6.5-11.1c6.4-3.5,13.8-4.1,16.6-1.5,2.8,2.6,0,7.6-6.5,11.1ZM339.4,274.2c-6.4,3.5-13.8,4.1-16.6,1.5-2.8-2.6,0-7.6,6.5-11.1,6.4-3.5,13.8-4.1,16.6-1.5,2.8,2.6,0,7.6-6.5,11.1Z"/>
  <path class="st1" d="M208.1,347.3c-7,11.6-11.2,24.5-9.3,38.2.5,3.5,2.3,12.5,6.6,13.6,5.1,1.3,7.2-9.2,8-12.3.6-2.7.8-6.2,0-8.9-.6-1.9-1.4-2.4-2,0-.5,2.2-1.7,8.4-4.9,8.8-2.8.3-5-5.1-5.3-7.4-.9-6.4,4.4-14.7,7.6-20,1.3-2.1,1.1-5.3,1-7.7,0-.5-.9-5.6-1.7-4.4h0Z"/>
  <path class="st4" d="M218.7,341.7c-1.9.9-3.2,3.2-2.6,4.2.5.7,2,.5,2.8.2,2.2-.8,3.7-3.4,3.1-4.4-.5-.7-2.2-.5-3.3,0Z"/>
  <ellipse class="st4" cx="251.1" cy="361.8" rx="21.9" ry="11.4"/>
  <path class="st4" d="M232.8,394.3h29.9c6,0,10.9-2.4,10.9-5.2s-4.9-5.2-10.9-5.2h-17.3,15.1-19.9c-6,0-10.9-2.4-10.9-5.2s4.9-5.2,10.9-5.2h10.6c12.1,0,21.9-4.7,21.9-11.1v-6.1c0-2.9,4.9-5.2,10.9-5.2h4.9"/>
  <polyline class="st5" points="299.2 399.4 299.2 347.1 388 397.7 388 347.1"/>
  <path class="st1" d="M362.7,121.7c-7.8,1-13.5-3.6-15.1-5.1-3.5-3.2-5.6-7-6.1-11.3,0,0,0-.1,0-.2-1.8,2.7-3,5.6-3.6,8.7-.5,2.4-1.2,5.9.3,10,.5,1.4,1.5,4.2,4.2,6.1,3.5,2.5,7.8,1.7,10.7,1.3,2.6-.4,4.9-1.3,6.8-2.3.5-.3,1-.6,1.6-.9,2.5-1.6,4.2-3.4,5-4.4,1.1-1.3,2-2.6,2.8-4.1-1.7,1-3.9,1.9-6.6,2.2h0Z"/>
  <path class="st1" d="M384.9,148.4c7.2-1.4,15-.9,22.3,1.4v.2c.2,0,.4,0,.7.1,0,0,0,0,0,0l2.1-88.4c-.5,0-1-.2-1.6-.2-15.7,0-26.7-.4-34.4-1.2h0c-.9,0-2.3-.2-3.9,0-3.9,1.3-6.5,3.8-7.8,5.1-.4.4-.7.7-1,1.1-1.2,1.8-2.5,4-3.8,6.5-3.5,6.9-5.2,10.4-5.4,14.6-.2,7.4,1.8,12.7,6.1,15.8,6.5,4.7,14.5,1.6,14.8,1.5,3.9-1.5,6-4.2,8.9-7.8,1.9-2.4,4.8-6.1,5.4-11.4.4-3.6,0-5.7-.9-6.3-1.2-.7-4,.6-7.2,3.2-3.2,2.7-5,6-6,7.8-.6,1.2-1.3,2.4-2.6,1.8-1.2-.6-.8-1.9-.5-2.9.5-1.4,1.4-4.1,1.3-7.2,0-1.7-.4-3.4-1-5.1l2.6-1c.7,2,1.1,4,1.2,6,0,.6,0,1.2,0,1.8.9-1.1,2-2.3,3.3-3.4,3.1-2.6,7.4-5.2,10.4-3.5,3,1.8,2.4,6.8,2.2,9-.7,6.1-4,10.3-6,12.8-3.1,3.9-5.5,6.9-10,8.7-.4.2-9.8,3.7-17.5-1.8-4.8-3.5-7.3-9.2-7.3-16.9-.5,1-1,2-1.6,3-.7,1.3-1.2,2.3-1.8,3.3l.6.4c-1.1,1.7-2.8,5.2-2.3,9.7.4,3.6,2.2,6.8,5.2,9.5,1.3,1.2,6.2,5.2,12.8,4.4,4.6-.6,7.5-3.1,9.1-4.5,2.5-2.2,4.5-5,5.7-8.1l2.6,1c-1.3,3.4-3.5,6.5-6.2,8.9-1,3.4-2.7,6.4-4.9,9.1h0c3.8-.8,7.1-.5,12.9,0,.8,0,1.4.1,2.1.2,1.5-.7,2.9-1.4,4.4-2.1l1.2,2.5c-.5.2-.9.4-1.4.6h0c.4,2-12.2,4.8-27.2,14.7-2.7,1.8-4.9,3.4-6.6,5.1-2.7,4.7-3.9,10.7-1.6,13.1,2.1,2.1,6.8,1.3,8.5.8,2.3-.7,3.6-1.9,5.2-3.4.7-.6,1.5-1.4,2.4-2.1,5.5-4.4,11.4-5.5,16.5-6.5h0Z"/>
  <path class="st1" d="M340.9,132.2c-1.7-1.2-2.9-2.6-3.7-4,0,0,0,.1,0,.2.7,7.7.4,15.1-.8,22,0,.5-.2,1.1-.3,1.6-.7,3.5-1.3,6.9.3,8.4,1.3,1.2,3.8,1.2,5.6.5.9-.3,3.5-1.3,6.7-10.6,1.7-5.1,2.9-10.5,3.4-16.1-3.1.4-7.3.6-11-2h0Z"/>
  <path class="st1" d="M207.4,185.2c2.6,4,3,5.6,2.8,8-.1,2.1-.9,4.8-2.4,10.1-2.8,9.7-3.8,11.2-4.4,15.2-.2,1.1-.3,2.7.7,9.4,1.3,8.5,2.2,10.2,1.6,11.7-.9,2.3-4.5,1.5-7.1-1.6-1.4-1.6-4.9-5.8-4.6-18.1.1-5.6,1-10.5,2-16.2,1.2-6.5,3.6-20.2,6.4-23.4,1-1.1,2.3.9,4.9,5Z"/>
  <polygon class="st1" points="217.6 187.8 217.6 235.3 223.9 235.3 226.7 192.2 217.6 187.8"/>
  <path class="st1" d="M238.9,199.6c6.5,0,12.1,2.6,14.9,6.4,1.7-1.9,2.7-4.1,2.7-6.4,0-6.5-7.5-11.8-16.7-11.8s-16.7,5.3-16.7,11.8.7,3.8,1.8,5.4c3-3.2,8.1-5.4,14-5.4h0Z"/>
  <path class="st1" d="M202.5,208.8c-1.1-3.9-7.5-3.4-8.5-7.5-.7-2.7,2-3.7,1.8-7.3-.2-4.3-4.4-9.1-8.5-9.3-4.6-.2-6.7,5.6-10.1,4.7-2.4-.7-1.8-3.7-4.9-6.3-4-3.4-11-3.3-15.6-.6-4.2,2.4-2.9,5-6.9,7.5-6.3,3.9-12.1-1.2-16.2,2.6-2.8,2.6-3.5,8.2-1.6,11.5,1.3,2.2,3.3,2.7,3.2,4.4,0,2.1-3,2.3-3.8,4.9-1,2.8,1.1,7.2,4.3,8.7,3.6,1.7,7.1-.9,8.5.8,1.3,1.6-1.4,4.2-.4,7.1,1.4,3.9,9,6.3,12.9,3.8,2.9-1.8,2.9-5.5,4.7-5.5,1.6,0,1.8,3,4.3,5.1,3.4,2.9,8.7,1.7,13.8.6,2.2-.5,12.1-2.6,12.3-6.5.1-2.4-3.5-3.6-3-5.5.5-1.9,4.4-1.1,8.3-3.6,3.2-2.1,6.4-6.5,5.5-9.7h0ZM183.3,215c-2.3,1.5-4.5,1-4.8,2.1-.3,1.1,1.8,1.8,1.8,3.2-.1,2.2-5.9,3.5-7.2,3.8-3,.6-6,1.3-8-.4-1.4-1.2-1.5-2.9-2.5-2.9-1,0-1,2.1-2.7,3.2-2.3,1.4-6.7,0-7.5-2.2-.6-1.7,1-3.2.2-4.1-.8-1-2.9.5-4.9-.5-1.8-.9-3-3.4-2.5-5.1.5-1.5,2.2-1.6,2.2-2.8,0-1-1.2-1.3-1.9-2.6-1.1-1.9-.7-5.2.9-6.7,2.4-2.2,5.7.8,9.4-1.5,2.3-1.4,1.6-2.9,4-4.3,2.7-1.5,6.7-1.6,9.1.4,1.8,1.5,1.4,3.3,2.8,3.6,2,.5,3.2-2.8,5.9-2.7,2.4,0,4.8,2.9,4.9,5.4,0,2.1-1.4,2.7-1.1,4.2.6,2.4,4.3,2.1,4.9,4.3.5,1.9-1.3,4.4-3.2,5.6h0Z"/>
  <path class="st1" d="M238.9,97.1c-11-14.7-48-49.1-111.8-4.3-5.3,3.7-12.6,5.9-13.3,11.3-5.6,44.8-11.1,89.6-16.7,134.5-.2,1.9-.5,3.8-.7,5.6l22.1-46.1c2.3-7.3,15.6-46.7,26.6-45,26.1,4.3,75,2.8,88-8.9,9-8.1,14-36.4,5.9-47.2ZM166.3,105.3c-.1-4.4-.2-8.8,4.4-11.9,2.2-1.5,7.1-3.6,10.9-2.4,4.2,1.4,4.7,6.6,5.5,16.9,1,12.2-1.3,13.9-3.1,14.6-2.7,1.1-6.6.7-9.3-.3-8.1-3-8.4-12.3-8.5-16.9ZM185.7,139.7c-2.7,1.2-6.7.8-9.2-.9-2.8-1.9-2.4-4.5-2.3-5.2,0-.6.5-3.3,3.5-4.2,3.2-.9,7.8.7,9.7,3.2,1.8,2.3,1.6,5.5-1.7,7h0Z"/>
  <path class="st1" d="M262.1,117.9c-3.6.4-.9,36.5,2.7,84.5,1.8,23.6,3,34.9,10.8,38.4,7.9,3.6,20.8-1.4,26.5-10.3,3.3-5.1,4.7-12.3,2.7-13.5-3.3-2.1-12.7,13.7-20,11.4-3.7-1.2-5-6.7-7.6-17.9-2.5-10.9-4.5-20.1-2.2-31.9,1.5-7.5,2.4-12.2,6.5-15.7,5.6-4.8,11.9-3.1,14.6-8.1,1.9-3.4,1.4-8.7-1.1-10.3-4.9-3-14.8,10.1-20.6,7-2.6-1.4-2.2-5-3.8-12.5-2-9.3-6.5-21.3-8.7-21.1h0Z"/>
  <path class="st1" d="M340.6,166c-2.3,1.7-2.7,5.4-1.6,8.1,1.8,4.3,7.9,6.6,11.4,4.1,2.3-1.7,2.9-5.1,2-7.7-1.6-4.6-8.3-7.1-11.8-4.5h0Z"/>
  <path class="st1" d="M337.4,183.4c-4.5,2.5-3.6,8.4-5.7,15.8-5.1,18.2-21.5,23.6-19.1,30,.8,2,3,3.2,15.4,5.3,23,3.9,34.6,5.8,36.9,1.2,1.7-3.3-3.3-5.9-11-23.5-3.1-7.2-4.7-10.9-4.9-15.4-.3-5.9,1.4-9.1-.8-11.8-2.3-2.8-7.6-3.5-11-1.6h0Z"/>
  <path class="st1" d="M238.9,211.6c6.5,0,12.1-2.6,14.9-6.4,1.7,1.9,2.7,4.1,2.7,6.4,0,6.5-7.5,11.8-16.7,11.8s-16.7-5.3-16.7-11.8.7-3.8,1.8-5.4c3,3.2,8.1,5.4,14,5.4h0Z"/>
  <path class="st1" d="M238.3,225.4c6.7,3.7,13.4,5.5,17.5,4.9,1.2,2,1.5,3.8.8,5.2-2,3.7-11.5,2.4-21.1-2.9-9.6-5.3-15.7-12.6-13.6-16.3.6-1.1,1.9-1.8,3.6-2,2.1,3.5,6.8,7.7,12.9,11.1Z"/>
  <path class="st1" d="M244.8,272.9c-21.3-16-46.6-23.2-71.7-24.7-13.7-.8-27.4,0-41,1.8-8.9,1.1-23,.6-30.9,6.3-8,5.7-6.8,13.8-6.2,24,.3,4,2.3,49.6,3.9,49.9,41.8,6,84.1,2.4,125.9-1.8,8.2-.8,16.5-1.9,23.8-6.4,7.2-4.4,13.1-13,12.9-22.6-.3-11.3-8.5-20.3-16.7-26.5h0ZM173.7,315.7c-34.7,5.8-64.5-1.2-66.4-15.7-2-14.5,24.5-30.9,59.3-36.7,34.7-5.8,64.5,1.2,66.4,15.7,2,14.5-24.5,30.9-59.3,36.7Z"/>
</svg>