<svg width="117" height="42" viewBox="0 0 117 42" fill="none" xmlns="http://www.w3.org/2000/svg">
<path d="M74.4434 27.2462C74.3587 27.1313 74.274 27.0067 74.1799 26.8918C74.0858 26.7768 73.9729 26.6618 73.86 26.5565L73.7753 26.4798L73.6906 26.4032L73.5119 26.2595C73.3896 26.1733 73.2672 26.087 73.1355 26.0104C72.6274 25.723 72.1005 25.5505 71.6019 25.4643C71.1032 25.3781 70.6327 25.3589 70.2093 25.3685C69.9929 25.3685 69.8142 25.3877 69.6354 25.3972C69.4472 25.3972 69.2685 25.4164 69.0897 25.426C68.3746 25.4739 67.6783 25.5218 67.0103 25.5697C65.6742 25.6751 64.4417 25.79 63.2656 25.905C62.9739 25.9337 62.6822 25.9625 62.3999 25.9816H62.2964L62.2494 26.0008L62.1459 26.02C62.08 26.02 62.0236 26.0391 61.9577 26.0487C61.7037 26.087 61.412 26.1253 61.1015 26.1637C60.791 26.202 60.4523 26.2307 60.0853 26.2499C59.9066 26.2499 59.709 26.2691 59.5208 26.2595C59.4267 26.2595 59.3232 26.2595 59.2197 26.2403C59.1256 26.2307 59.0221 26.2116 58.928 26.1733C58.834 26.1349 58.8434 26.1158 58.834 26.0679V25.9529C58.8528 25.8858 58.8998 25.8284 58.9375 25.7709C59.0221 25.6559 59.1256 25.5505 59.2385 25.4547C59.4738 25.2535 59.7466 25.0619 60.0665 24.8703C60.3864 24.6883 60.7534 24.4967 61.1674 24.3434C61.2709 24.3051 61.3838 24.2668 61.4873 24.2285C61.6002 24.1901 61.7037 24.1422 61.826 24.1135C61.9577 24.0752 62.0989 24.0368 62.2306 24.0081C62.3059 23.9889 62.3811 23.9698 62.447 23.9506C62.5223 23.9315 62.5975 23.9219 62.6728 23.9027C62.8233 23.874 62.9739 23.8452 63.1338 23.8165C63.2091 23.8165 63.2844 23.7878 63.3691 23.7782C63.4443 23.7686 63.529 23.759 63.6043 23.7494C63.7642 23.7303 63.9242 23.7111 64.0841 23.692C64.2441 23.6728 64.404 23.6728 64.5734 23.6632C65.232 23.6249 65.9095 23.6536 66.6245 23.7207C66.8033 23.7399 66.9821 23.759 67.1609 23.7878C67.3396 23.8165 67.5184 23.8452 67.7066 23.874C67.8853 23.9027 68.0735 23.9506 68.2523 23.9889C68.4405 24.0273 68.6192 24.0752 68.8074 24.1231C69.5507 24.3243 70.3128 24.5829 71.0844 24.9182C70.3317 24.535 69.5884 24.238 68.8451 23.9889C68.6569 23.9315 68.4781 23.8644 68.2899 23.8165C68.1017 23.7686 67.923 23.7111 67.7442 23.6632C67.5654 23.6249 67.3773 23.577 67.1985 23.5387C67.0197 23.5003 66.841 23.4716 66.6622 23.4333C65.9471 23.3087 65.2508 23.2321 64.5734 23.2225C64.404 23.2225 64.2347 23.2129 64.0653 23.2225C63.896 23.2225 63.736 23.2225 63.5666 23.2417C63.482 23.2417 63.3973 23.2417 63.322 23.2417C63.2467 23.2513 63.1621 23.2608 63.0774 23.2608C62.9174 23.28 62.7575 23.2992 62.5975 23.3087C62.5223 23.3087 62.4376 23.3087 62.3623 23.3375C62.287 23.3471 62.2023 23.3662 62.1271 23.3758C61.9577 23.4045 61.7978 23.4333 61.6284 23.462C61.4402 23.4908 61.2709 23.5483 61.0921 23.5962C60.9133 23.6441 60.7346 23.692 60.5558 23.7399C60.377 23.7878 60.1982 23.8452 60.0289 23.9027C59.8595 23.9602 59.6808 24.0273 59.5114 24.0943C59.1727 24.2285 58.8434 24.3722 58.5329 24.5254C57.9025 24.832 57.3379 25.1673 56.8957 25.5314C56.6793 25.7134 56.4817 25.8954 56.3124 26.1062C56.2277 26.2116 56.1524 26.317 56.1054 26.4415C56.0865 26.499 56.0583 26.5756 56.0583 26.6523V26.7672C56.0771 26.8055 56.096 26.8343 56.1148 26.863C56.1995 26.9588 56.2841 27.0163 56.3688 27.0738C56.4535 27.1313 56.5382 27.1696 56.6229 27.2175C56.8016 27.3037 56.9804 27.3804 57.1874 27.4474C57.3944 27.5241 57.6108 27.5911 57.8837 27.6486C58.1471 27.7061 58.467 27.754 58.8151 27.7827C59.5208 27.8498 60.3394 27.869 61.1956 27.8785H62.4564C62.7481 27.8785 63.0397 27.8881 63.3314 27.8977C64.5075 27.9169 65.7495 27.936 67.0668 27.9743C67.7254 27.9935 68.4028 28.0127 69.1085 28.0414C69.2873 28.0414 69.466 28.051 69.6448 28.0606C69.8236 28.0606 70.0118 28.0797 70.1623 28.0893C70.4728 28.1085 70.7551 28.1564 71.0091 28.233V28.2618C71.2631 28.3288 71.4607 28.4342 71.6113 28.5396C71.6489 28.5683 71.6771 28.5971 71.7148 28.6258C71.7148 28.645 71.743 28.6545 71.7524 28.6737L71.7712 28.6929L71.79 28.712C71.8089 28.7408 71.8371 28.7695 71.8653 28.8078C71.8935 28.8462 71.9124 28.8845 71.9406 28.9228C72.0347 29.0952 72.1005 29.2964 72.11 29.421V29.5264C72.0911 29.5551 71.9876 29.6796 71.8089 29.8042C71.6301 29.9287 71.3855 30.0628 71.122 30.1874C70.5857 30.4269 69.9553 30.6185 69.3249 30.7814C68.0453 31.0975 66.728 31.3083 65.4672 31.4616C65.1568 31.4999 64.8369 31.5382 64.5358 31.567C64.3852 31.5861 64.2253 31.5957 64.0747 31.6149C63.9242 31.6149 63.7736 31.634 63.6325 31.6532C63.4914 31.6723 63.3408 31.6819 63.1997 31.6915C63.0586 31.6915 62.9174 31.6915 62.7763 31.7107C62.6352 31.7107 62.494 31.7298 62.3623 31.7298H61.9577C61.6849 31.7298 61.4308 31.7298 61.1768 31.7298C60.9227 31.7298 60.9227 31.7202 60.8004 31.7107C60.6781 31.7107 60.5558 31.7011 60.4429 31.6915C59.9724 31.6532 59.5302 31.5957 59.135 31.5095C58.7399 31.4232 58.3823 31.3179 58.0624 31.2029C58.0248 31.1837 57.9872 31.1742 57.9495 31.155C57.9119 31.1358 57.8742 31.1263 57.8366 31.1071C57.7613 31.0784 57.6955 31.04 57.6296 31.0113C57.4979 30.9442 57.3662 30.8676 57.2438 30.7814C56.7452 30.4556 56.3594 30.1203 56.0771 29.9C55.7855 29.6796 55.5879 29.5647 55.4562 29.6317C55.3338 29.6988 55.2868 29.9383 55.3809 30.3407C55.475 30.7431 55.7008 31.2987 56.1712 31.9214C56.2841 32.0747 56.4253 32.2376 56.5852 32.4004C56.6699 32.4771 56.7546 32.5633 56.8393 32.6399C56.8863 32.6783 56.9333 32.7166 56.9804 32.7549C57.0274 32.7932 57.0745 32.8316 57.1215 32.8603C57.5073 33.1477 57.9589 33.4064 58.4482 33.6267C58.9375 33.8375 59.4738 34.0099 60.0383 34.1536C60.1794 34.192 60.3206 34.2207 60.4617 34.2494C60.6028 34.2782 60.7534 34.3165 60.9039 34.3357C61.1956 34.3836 61.5061 34.4315 61.8072 34.4602C61.9577 34.4794 62.1177 34.4889 62.2776 34.5081C62.4376 34.5177 62.5881 34.5273 62.7481 34.5368C62.908 34.5368 63.068 34.556 63.2279 34.5656H64.7051C65.0344 34.5656 65.3732 34.5464 65.7213 34.5177C67.095 34.4315 68.5346 34.2782 70.0588 33.9141C70.8209 33.7321 71.6019 33.5022 72.411 33.1285C72.8156 32.9369 73.239 32.707 73.6624 32.3909C73.8694 32.228 74.0858 32.046 74.2928 31.816C74.4998 31.5861 74.6974 31.3179 74.8574 30.9921C74.895 30.9155 74.9326 30.8293 74.9703 30.743C75.0079 30.6568 75.0361 30.561 75.0644 30.4748C75.1208 30.2928 75.1584 30.1012 75.1773 29.9191C75.2243 29.5455 75.1961 29.191 75.1302 28.8749C75.0079 28.233 74.7633 27.7157 74.4434 27.2367V27.2462Z" fill="black"/>
<path d="M97.1943 21.0095C104.204 23.1459 112.644 19.0551 112.644 19.0551C112.644 19.0551 108.974 20.7029 103.941 20.3964C102.736 20.3197 97.6836 20.0132 95.8677 17.4935C95.162 16.5068 94.6163 14.7344 95.6889 13.9009C95.8959 13.7381 96.1593 13.6231 96.4886 13.5273C99.8288 12.6555 111.411 14.9452 113.688 13.1058C115.307 11.7933 113.18 7.61626 109.275 5.45111C104.712 2.91234 97.4484 2.99856 93.1202 6.20796C89.733 8.70841 89.1591 12.3681 90.3352 15.223C90.4669 15.5487 92.1699 19.4767 97.1943 21.0095ZM102.454 7.0127C103.705 6.32292 105.164 6.17922 105.709 6.71571C106.255 7.24263 105.691 8.23898 104.439 8.92876C103.188 9.61854 101.729 9.76225 101.184 9.22575C100.638 8.69883 101.203 7.70248 102.454 7.0127ZM96.6204 6.47621C97.8718 5.78642 99.3301 5.64272 99.8759 6.17922C100.422 6.70613 99.857 7.70248 98.6057 8.39226C97.3543 9.08204 95.8959 9.22575 95.3502 8.68925C94.8044 8.16234 95.369 7.16599 96.6204 6.47621Z" fill="black"/>
<path d="M79.2515 30.3215C79.148 30.7814 78.8751 32.1513 78.1883 32.0747C77.6426 32.0172 77.3132 30.9634 77.2286 30.5035C77.2286 30.4844 77.2286 30.4748 77.2286 30.4652C77.2474 30.3119 77.2756 30.1299 77.3132 29.967C77.4073 29.5455 77.5391 29.1336 77.699 28.7312C77.9907 27.9839 78.3576 27.275 78.7622 26.5948C79.0163 26.1732 78.9786 25.5314 78.9504 25.0524C78.9504 24.9565 78.7716 23.9219 78.6211 24.1805H78.6117C77.238 26.4702 76.4006 29.0569 76.7675 31.7777C76.8428 32.3621 76.9933 32.9465 77.238 33.483C77.4073 33.8566 77.6426 34.4123 78.0754 34.556C79.0539 34.8913 79.5243 32.6591 79.6467 32.0939C79.769 31.5286 79.7784 30.8772 79.6467 30.3215C79.5526 29.9096 79.3644 29.8617 79.2609 30.3215H79.2515ZM77.2192 30.4556C77.2098 30.3598 77.2192 30.3598 77.2192 30.4556V30.4556Z" fill="black"/>
<path d="M81.9518 22.6189C81.6225 22.1112 80.9356 22.1208 80.4087 22.3507H80.3899C79.9571 22.571 79.5902 23.0117 79.4678 23.4524C79.3832 23.759 79.4302 24.0464 79.5808 24.2763C79.7877 24.5829 80.1171 24.6979 80.437 24.6979C80.7569 24.6979 80.7945 24.6691 80.9545 24.6116H80.9733C81.4437 24.4392 81.8577 24.0177 82.0271 23.5291C82.14 23.1938 82.1118 22.8776 81.9424 22.6189H81.9518ZM80.738 23.4333C80.7192 23.4045 80.7004 23.3758 80.691 23.347C80.7192 23.3758 80.7381 23.4045 80.7663 23.4333H80.7475C80.7475 23.4333 80.7475 23.4333 80.738 23.4333ZM80.7663 23.462H80.7851C80.8039 23.4812 80.8227 23.5099 80.8321 23.5386C80.8039 23.5195 80.7851 23.4907 80.7569 23.462H80.7663Z" fill="black"/>
<path d="M90.9468 25.0906C90.0341 24.4392 88.6604 24.0464 87.0703 24.0464C84.1912 24.0464 82.0271 25.3493 82.0271 27.0738C82.0271 28.7982 82.4317 28.4916 83.1374 29.009C82.507 29.3251 82.1212 29.8233 82.1212 30.4077C82.1212 31.4424 83.3255 32.1992 84.9815 32.1992H89.3378C90.0435 32.1992 90.4857 32.3908 90.6739 32.5154C90.4857 32.6495 90.0341 32.8315 89.3378 32.8315H83.4667V34.3069H89.3378C90.9938 34.3069 92.1982 33.5405 92.1982 32.5058C92.1982 31.4711 90.9938 30.7143 89.3378 30.7143H84.9815C84.2758 30.7143 83.8336 30.5227 83.6454 30.3981C83.8336 30.264 84.2852 30.082 84.9815 30.082H86.4869C86.6751 30.0916 86.8727 30.1011 87.0703 30.1011C87.8889 30.1011 88.6416 29.9957 89.3096 29.8041C91.0126 29.3443 92.1135 28.3671 92.1135 27.1312V25.9624C92.2264 25.8475 92.6968 25.5888 93.5248 25.5888H94.4751V24.1134H93.5248C92.3487 24.1134 91.3984 24.4967 90.9468 25.0906ZM87.0703 25.5218C89.2626 25.5218 90.6645 26.4415 90.6645 27.0738C90.6645 27.7061 89.8177 28.233 88.4158 28.5012C88.0112 28.5779 87.5596 28.6162 87.0703 28.6162H86.6939C84.7181 28.5204 83.4761 27.6677 83.4761 27.0738C83.4761 26.4798 84.878 25.5218 87.0703 25.5218Z" fill="black"/>
<path d="M112.898 24.1328V32.3431L95.4443 22.2263V34.5849H97.6272V26.0393L115.071 36.1465V24.1328H112.898Z" fill="black"/>
<path d="M43.2342 16.842C43.8269 17.2635 44.542 17.139 45.0219 17.0527C45.4547 16.9761 45.8404 16.8324 46.1509 16.6504C46.2356 16.5929 46.3297 16.545 46.4144 16.4971C46.8284 16.2288 47.1107 15.9319 47.2518 15.7594C47.4306 15.5486 47.5811 15.3091 47.7128 15.06C47.4211 15.2325 47.0542 15.3858 46.612 15.4433C45.3135 15.6061 44.3632 14.8301 44.0998 14.581C43.507 14.035 43.1683 13.3931 43.0836 12.665V12.6362C42.792 13.0961 42.585 13.5847 42.4815 14.1116C42.4062 14.514 42.2839 15.1271 42.5379 15.8073C42.6226 16.0372 42.792 16.5162 43.2436 16.842H43.2342Z" fill="black"/>
<path d="M48.5031 4.97208H48.4843C48.3338 4.95292 48.0985 4.93375 47.8257 4.97208C47.1765 5.18284 46.7343 5.62354 46.5178 5.84388C46.3014 6.06423 46.3955 5.96843 46.3485 6.03549C46.1415 6.34206 45.9251 6.70611 45.7087 7.13722C45.1253 8.30602 44.8337 8.9 44.8054 9.6281C44.7678 10.8831 45.1065 11.7932 45.831 12.3202C46.913 13.1153 48.2585 12.598 48.3055 12.5692C48.9454 12.3106 49.3029 11.8603 49.7922 11.2376C50.1121 10.8256 50.6013 10.2029 50.6954 9.30237C50.7613 8.68923 50.7142 8.32518 50.5449 8.22938C50.3567 8.11441 49.8674 8.33476 49.3499 8.77545C48.8136 9.23531 48.5031 9.80054 48.3432 10.1071C48.2397 10.3083 48.1268 10.5095 47.9104 10.4137C47.7034 10.3179 47.7786 10.0975 47.8351 9.92509C47.9198 9.68558 48.0703 9.23531 48.0515 8.70839C48.0515 8.42098 47.9856 8.12399 47.8821 7.84616L48.315 7.6833C48.4373 8.01861 48.5031 8.3635 48.5125 8.69881V8.9958C48.6631 8.80419 48.8419 8.60301 49.0583 8.42098C49.5758 7.98029 50.2908 7.53001 50.7895 7.83658C51.2882 8.14315 51.1941 8.9958 51.1565 9.35985C51.0435 10.3945 50.4884 11.1035 50.1591 11.5346C49.6416 12.1956 49.237 12.713 48.4843 13.0195C48.4185 13.0483 46.8472 13.6518 45.5675 12.713C44.7584 12.119 44.3538 11.1514 44.3538 9.82928C44.2691 10.0017 44.1844 10.1646 44.0903 10.337C43.9774 10.5478 43.8834 10.7298 43.7987 10.8927L43.9022 10.9598C43.7234 11.2472 43.4317 11.8411 43.5258 12.6171C43.5917 13.2303 43.8833 13.7764 44.3914 14.2362C44.6172 14.447 45.4358 15.1176 46.5367 14.9739C47.2988 14.8781 47.7975 14.4374 48.0609 14.1979C48.4749 13.8243 48.8042 13.3453 49.0112 12.8183L49.444 12.9908C49.2182 13.5752 48.8607 14.0925 48.4185 14.5045C48.2491 15.0793 47.9668 15.5966 47.5905 16.0565C48.2209 15.9128 48.776 15.9607 49.7357 16.0565C49.858 16.0565 49.9803 16.0756 50.0838 16.0852C50.3285 15.9703 50.5731 15.8457 50.8083 15.7307L51.0059 16.1619C50.9306 16.2002 50.8554 16.2385 50.7801 16.2672C50.846 16.6121 48.7384 17.0911 46.2356 18.7677C45.784 19.0647 45.417 19.3425 45.1347 19.6299C44.6831 20.4347 44.4761 21.4598 44.8713 21.8621C45.2194 22.2262 46.0098 22.0825 46.292 21.9963C46.6778 21.8813 46.8942 21.6705 47.1671 21.4214C47.28 21.3161 47.4117 21.1915 47.5622 21.067C48.4843 20.3197 49.4628 20.1281 50.3285 19.9652H50.3191C51.5234 19.7449 52.8124 19.8215 54.045 20.2047V20.2335C54.0732 20.2335 54.1109 20.2335 54.1579 20.2526L54.506 5.202C54.4213 5.202 54.3273 5.17326 54.2426 5.16368C51.6175 5.16368 49.7827 5.09662 48.5031 4.97208Z" fill="black"/>
<path d="M43.1305 22.1208C43.2716 22.0634 43.7138 21.9005 44.2407 20.3102C44.5324 19.4384 44.7206 18.5186 44.8053 17.5702C44.2878 17.6468 43.5915 17.6756 42.9705 17.2349C42.6883 17.0337 42.4907 16.7846 42.3589 16.5547C42.3589 16.5643 42.3589 16.5738 42.3495 16.5834C42.4624 17.8863 42.4154 19.1509 42.2084 20.3293C42.1896 20.4251 42.1708 20.5113 42.1614 20.6072C42.0484 21.2107 41.945 21.7759 42.2084 22.0346C42.4154 22.2358 42.8482 22.2358 43.1399 22.1208H43.1305Z" fill="black"/>
<path d="M20.6527 26.2499C20.2199 25.5697 19.9941 25.2248 19.8341 25.4068C19.3637 25.9433 18.9591 28.2713 18.7615 29.3827C18.7615 29.4018 18.7615 29.4114 18.7615 29.4306C18.6015 29.3252 18.4792 29.1911 18.4322 28.9899C18.3193 28.53 18.7615 28.3576 18.7333 27.754C18.705 27.0163 17.9994 26.202 17.3125 26.1733C16.5504 26.1445 16.1929 27.1217 15.6189 26.9684C15.2143 26.8535 15.3178 26.3361 14.8098 25.905C14.1417 25.3302 12.9656 25.3494 12.2035 25.7996C11.5072 26.2116 11.7142 26.6619 11.0556 27.0738C10.0018 27.7444 9.03267 26.8726 8.35523 27.5241C7.88478 27.9648 7.77187 28.9228 8.08237 29.488C8.28937 29.8617 8.62809 29.9479 8.62809 30.2449C8.62809 30.5994 8.12941 30.6377 7.98828 31.0688C7.84715 31.4999 8.17646 32.2951 8.69395 32.5537C9.29612 32.8507 9.87007 32.4005 10.1147 32.6879C10.3405 32.9657 9.87007 33.3968 10.0488 33.895C10.2841 34.5656 11.5449 34.968 12.2129 34.5464C12.6927 34.2495 12.6927 33.6171 12.9938 33.6171C13.2949 33.6171 13.2949 34.1249 13.6995 34.4794C14.2734 34.968 15.1485 34.7668 15.9953 34.5848C16.3622 34.4985 18.0182 34.1345 18.0558 33.483C18.0746 33.0807 17.4631 32.8699 17.5477 32.5537C17.6136 32.3142 17.9806 32.3238 18.4322 32.1705C18.3946 34.2303 18.9779 34.9392 19.2037 35.2171C19.6365 35.7344 20.2481 35.8685 20.3892 35.4853C20.4833 35.2458 20.3328 34.9392 20.1164 33.5022C19.947 32.3621 19.9658 32.0939 19.9941 31.9023C20.0882 31.2412 20.2669 30.9826 20.728 29.3252C20.982 28.4151 21.1043 27.9552 21.1326 27.6007C21.1608 27.1888 21.0949 26.9205 20.6621 26.2403L20.6527 26.2499ZM16.6257 31.2987C16.2493 31.5478 15.8636 31.4712 15.8165 31.6628C15.7695 31.8448 16.127 31.9693 16.1082 32.1993C16.0894 32.5825 15.1202 32.7932 14.9132 32.8411C14.424 32.9465 13.9065 33.0615 13.5772 32.7837C13.3326 32.5825 13.3231 32.2855 13.1632 32.2855C13.0032 32.2855 12.9844 32.6495 12.7116 32.822C12.3258 33.0615 11.5919 32.822 11.4508 32.4388C11.3473 32.1514 11.6201 31.9023 11.4884 31.7394C11.3473 31.567 11.0085 31.8352 10.6604 31.6628C10.3593 31.5095 10.1523 31.088 10.2464 30.8005C10.3311 30.5515 10.6134 30.5227 10.6228 30.3215C10.6228 30.1491 10.4346 30.0916 10.3123 29.8808C10.1241 29.5551 10.1994 28.9994 10.4722 28.7408C10.8674 28.3672 11.4319 28.8653 12.0435 28.4821C12.4293 28.2426 12.307 27.9839 12.7116 27.7444C13.1538 27.4858 13.8406 27.4666 14.2264 27.8019C14.5181 28.0606 14.4616 28.3576 14.6968 28.4246C15.0262 28.5204 15.2332 27.9456 15.6754 27.9648C16.0705 27.9839 16.4845 28.4534 16.5034 28.8845C16.5222 29.2294 16.2587 29.3348 16.3246 29.603C16.4187 30.0054 17.0397 29.9575 17.1526 30.3407C17.2467 30.6664 16.9362 31.0975 16.6257 31.2987Z" fill="black"/>
<path d="M10.2087 20.9328C14.5745 21.5459 22.7508 21.0861 24.8584 19.0359C26.3168 17.618 27.0319 12.7895 25.63 10.9789V10.9597C23.7388 8.50715 17.416 2.82604 6.95325 10.7298C6.07822 11.3908 4.86447 11.7932 4.77979 12.7225C4.04589 20.3676 3.31199 28.0126 2.5781 35.6673C2.54987 35.993 2.51224 36.3092 2.48401 36.6349L5.96531 28.6928C6.31344 27.4378 8.36459 20.6741 10.2087 20.9328ZM17.1808 17.254C17.4913 17.6276 17.4724 18.1928 16.9267 18.4515C16.4751 18.6718 15.8071 18.6144 15.3836 18.3461C14.9038 18.0395 14.9602 17.5988 14.9697 17.4743C14.9791 17.3689 15.0355 16.9091 15.5342 16.7462C16.0611 16.5738 16.842 16.842 17.1713 17.254H17.1808ZM14.2358 10.6436C14.6027 10.3849 15.4025 9.9921 16.0423 10.1837C16.7479 10.3945 16.8514 11.2759 17.0396 13.0195C17.256 15.0792 16.8797 15.3954 16.588 15.5199C16.1364 15.7211 15.4871 15.6732 15.0355 15.5199C13.6618 15.0505 13.5865 13.4602 13.5489 12.6842C13.5113 11.9369 13.4736 11.1896 14.2358 10.6436Z" fill="black"/>
<path d="M36.93 31.6533C36.3749 31.2988 34.813 33.9813 33.5805 33.5885C32.9595 33.3969 32.7337 32.4389 32.3103 30.5516C31.8963 28.7026 31.5575 27.1218 31.9433 25.1195C32.1879 23.8454 32.3479 23.0502 33.0253 22.4466C33.9568 21.6323 35.0106 21.9293 35.4717 21.0671C35.7821 20.4827 35.7069 19.5821 35.2929 19.3139C34.4743 18.7965 32.8183 21.0383 31.8586 20.5114C31.4258 20.2719 31.4917 19.6588 31.2282 18.3942C30.8895 16.8134 30.1368 14.7632 29.7793 14.8016H29.7887C29.1771 14.859 29.6381 21.0096 30.2403 29.1624C30.5414 33.1766 30.739 35.0926 32.0468 35.7058C33.3641 36.3189 35.5187 35.4567 36.4784 33.9526C37.0335 33.0808 37.2688 31.8641 36.93 31.6533Z" fill="black"/>
<path d="M42.9141 22.9734C42.5378 23.2704 42.4531 23.9027 42.6413 24.353C42.9423 25.0811 43.9679 25.4738 44.5419 25.0427C44.9276 24.7553 45.0311 24.1709 44.8806 23.7302C44.6171 22.9447 43.4881 22.5231 42.9141 22.9734Z" fill="black"/>
<path d="M44.335 28.2138C44.288 27.2079 44.5702 26.6714 44.2033 26.2116C43.8175 25.7326 42.9425 25.608 42.3686 25.9337C41.6158 26.3649 41.7664 27.3612 41.4183 28.6258C40.5715 31.7298 37.824 32.6304 38.2286 33.7321C38.3509 34.077 38.7273 34.2782 40.8067 34.6326C44.6549 35.2937 46.5838 35.6194 46.9789 34.8434C47.2518 34.2878 46.4238 33.8471 45.1442 30.8388C44.6267 29.6126 44.3633 28.9899 44.335 28.2138Z" fill="black"/>
<path d="M25.8182 33.0808C25.5453 32.9371 25.2913 32.7742 25.0561 32.6018C25.3666 32.688 25.6959 32.7359 26.0534 32.7359C27.5965 32.7359 28.8479 31.8354 28.8479 30.724C28.8479 29.6127 28.7067 30.0055 28.4621 29.7085C28.7067 29.4115 28.8479 29.0666 28.8479 28.693C28.8479 27.5817 27.5965 26.6812 26.0534 26.6812C24.5103 26.6812 24.388 26.9781 23.8705 27.438L22.3651 26.6812V34.7669H23.4189L23.5412 32.8796C23.9552 33.3586 24.5856 33.876 25.3477 34.3071C26.9473 35.2076 28.528 35.4375 28.8667 34.8052C28.989 34.5753 28.9325 34.2687 28.735 33.9239C28.0575 34.0197 26.9378 33.7131 25.8182 33.0808ZM25.9123 28.693C26.9473 28.693 27.8599 29.0954 28.3398 29.7085C27.8599 30.3217 26.9567 30.724 25.9123 30.724C25.0278 30.724 24.2375 30.427 23.72 29.9576L23.7576 29.4307C24.2751 28.9804 25.0467 28.693 25.9123 28.693Z" fill="black"/>
<path d="M57.1312 20.5209C65.3169 21.728 73.6062 20.9903 81.7919 20.1568C83.3915 19.9939 85.0286 19.7736 86.44 18.8922C87.8513 18.0108 89.0086 16.2959 88.9615 14.3799C88.9051 12.1189 87.3056 10.337 85.6966 9.10115H85.7061C81.5379 5.90133 76.57 4.46428 71.6679 4.17688C68.9864 4.01401 66.2954 4.17688 63.6327 4.53135C61.9015 4.75169 59.1258 4.65589 57.5828 5.78637C56.0209 6.92642 56.2467 8.54549 56.369 10.5765C56.4161 11.3717 56.8207 20.4825 57.1312 20.5209ZM70.3695 7.20425C77.1722 6.04503 82.9963 7.45334 83.3821 10.337C83.7678 13.2207 78.5741 16.4971 71.7714 17.6468C64.9688 18.806 59.1447 17.3977 58.7589 14.514C58.3731 11.6303 63.5669 8.35388 70.3695 7.20425Z" fill="black"/>
</svg>
