<svg width="844" height="423" viewBox="0 0 844 423" fill="none" xmlns="http://www.w3.org/2000/svg">
<path d="M526.952 197.543C527.947 196.121 530.053 196.121 531.048 197.543L644.61 359.816C645.77 361.473 644.585 363.75 642.562 363.75H415.438C413.415 363.75 412.23 361.473 413.39 359.816L526.952 197.543Z" stroke="white" stroke-width="3"/>
<path d="M530.048 240.457C529.053 241.879 526.947 241.879 525.952 240.457L412.39 78.1836C411.23 76.5267 412.415 74.2503 414.438 74.25L641.563 74.25C643.585 74.2503 644.77 76.5267 643.61 78.1836L530.048 240.457Z" stroke="white" stroke-width="3"/>
<text fill="black" style="white-space: pre" xml:space="preserve" font-family="Mulish" font-size="24" letter-spacing="0em"><tspan x="657" y="300.06">Wholes</tspan></text>
<text fill="black" style="white-space: pre" xml:space="preserve" font-family="Mulish" font-size="24" letter-spacing="0em"><tspan x="493" y="407.06">Essence</tspan></text>
<text fill="black" style="white-space: pre" xml:space="preserve" font-family="Mulish" font-size="24" letter-spacing="0em"><tspan x="336" y="300.06">Potential</tspan></text>
<text fill="black" style="white-space: pre" xml:space="preserve" font-family="Mulish" font-size="24" letter-spacing="0em"><tspan x="618" y="223.06">Development</tspan></text>
<text fill="black" style="white-space: pre" xml:space="preserve" font-family="Mulish" font-size="24" letter-spacing="0em"><tspan x="657" y="144.06">Nestedness</tspan></text>
<text fill="black" style="white-space: pre" xml:space="preserve" font-family="Mulish" font-size="24" letter-spacing="0em"><tspan x="513.43" y="24.06">Nodal </tspan><tspan x="474.477" y="54.06">interventions</tspan></text>
<text fill="black" style="white-space: pre" xml:space="preserve" font-family="Mulish" font-size="24" letter-spacing="0em"><tspan x="51.8281" y="142.06">outer work</tspan></text>
<text fill="black" style="white-space: pre" xml:space="preserve" font-family="Mulish" font-size="24" letter-spacing="0em"><tspan x="52.8242" y="308.06">inner work</tspan></text>
<text fill="black" style="white-space: pre" xml:space="preserve" font-family="Mulish" font-size="24" letter-spacing="0em"><tspan x="367" y="144.06">Fields</tspan></text>
<line x1="529" y1="218.5" y2="218.5" stroke="white" stroke-width="3" stroke-dasharray="10 10"/>
</svg>
